<?xml version="1.0" encoding="UTF-8"?><svg id="Layer_1" xmlns="http://www.w3.org/2000/svg" width="24.3in" height="25.8in" viewBox="0 0 1748 1858"><path d="m1000,.1c247.8,0,495.6,0,743.3,0,3.7,0,4.7.7,4.7,4.5-.1,616.2-.1,1232.4,0,1848.7,0,4.2-1,4.8-4.9,4.8-579.4-.1-1158.8-.1-1738.1,0-3.9,0-4.9-.6-4.9-4.8C.1,1237.2.1,621.1,0,5,0,.7,1.1,0,5.2,0c245.9.1,491.9.1,737.8.1,0,.5,0,1,0,1.5-23.1,2.5-40.6,22.3-41.9,44.8-1.9,34.8,31.5,58.5,60.8,49.6,3.7-1.1,4.2,0,4.2,3.2,0,13.5-.2,27,0,40.5,0,4.5-1.5,5.6-5.7,5.6-21.5-.2-43-.2-64.5,0-12.1,0-24.2.7-36.2,3.4-27.7,6.3-51.6,19.3-71.9,39-13.7,13.4-24.3,29.1-32.1,46.7-6,13.6-10.1,27.8-11.5,42.5-1.4,14.2-1.4,28.5,1.4,42.8,3,15.7,8,30.6,15.6,44.6,11.2,20.6,26.7,37.3,45.7,50.9,1.7,1.2,2.9,2.2,2.7,4.7-1.9,18.5,2.4,35.8,12.5,51.2,15.5,23.6,37.4,37.4,66,37.8,44,.6,88,.2,132,.3,2.9,0,4.1-.5,4.1-3.8-.1-29.7-.1-59.3,0-89,0-3.3-1.2-3.8-4.1-3.7-9.2.1-18.3,0-27.5,0-33.5,0-67,.2-100.5-.2-7.9,0-15.4,7.2-14.7,15.3.7,8,6.5,13.8,15.2,13.8,31.3,0,62.7,0,94,0,4.2,0,6,.9,5.8,5.5-.4,8.7-.3,17.3,0,26,.1,4.1-1.3,5-5.2,5-31.5-.1-63-.2-94.5,0-17.5,0-31.4-6.8-42.1-20.5-7.3-9.4-10.4-20.4-10.1-32.1.1-7,1.6-14.2,5.2-20.6,1.3-2.3,1.6-3.7-2-5.4-39.5-19.2-62.9-50.6-67.7-94.3-3.1-27.9,3.3-54.1,19.7-77.3,23.3-33,55.3-50.1,95.6-50.7,33.8-.5,67.6-.2,101.5,0,4.4,0,5.6-1,5.6-5.5-.2-37.8-.1-75.7-.1-113.5,0-5.5-.4-10.9-1-16.4-2.2-20.1-21.2-38.4-40.3-40.1,0-.5,0-1.1,0-1.6,80,0,160,0,240,0-3.4,2.1-7.4,1.5-11,2.5-20,5.5-36,23.6-36,47.9,0,40.5,0,81,0,121.5,0,4.1,1,5.2,5.2,5.2,33.5-.2,67,0,100.5-.1,28.4,0,53.8,8.9,75.5,27.1,24.3,20.3,38.3,46.7,41.2,78.3,2.2,23.6-2.3,46.1-13.9,67.2-12.5,22.6-30.5,38.9-53.6,49.8-3.4,1.6-3.8,2.7-2.5,5.6,4.9,10.3,6.4,20.8,4.2,32.3-4.2,21.8-24.3,40.2-46.6,40.5-33.3.4-66.6.1-100,.3-3.4,0-4.2-1.4-4.2-4.5.1-8.7.3-17.3,0-26-.2-5,1.6-6,6.3-6,31,.2,62,0,93,.1,4.2,0,7.9-1.2,11-3.8,5.2-4.4,5.7-10.2,3.8-16.3-1.7-5.3-7.2-8.7-13.7-8.7-42.7,0-85.3,0-128-.1-3.9,0-4.2,1.5-4.2,4.7,0,29,.1,58,0,87,0,3.9,1,4.9,4.9,4.9,41.8-.1,83.6-.3,125.5,0,19.7.2,37.2-5.1,52.6-17.3,22.3-17.5,32.6-40.8,31.8-68.9-.2-5.1,1.4-7.3,5-9.9,25.5-18.7,43.7-42.9,53.6-73.1,4.8-14.6,7.1-29.6,7.3-45,.3-23.6-4.7-46-15.2-67.1-9.7-19.6-22.9-36.3-40-50-23.8-19.1-50.9-30-81.3-32.2-15-1.1-30-.5-45-.6-12.2,0-24.3,0-36.5,0-2.3,0-4.5,0-4.5-3.2,0-14.7,0-29.3,0-44,0-2.4.9-3.1,3.5-2.3,3.4,1.2,7,2.2,10.7,2.3,23.3.6,45.8-15.6,50.2-40.8,3.7-21.2-8.7-43.6-27.9-52.2-6-2.7-12.6-2.3-18.5-5Zm-126.5,1307.1c18.5,0,37,0,55.5,0,53,0,106,0,159,0,2.9,0,5.3,0,7-3.3,5.3-9.7,11.2-19.1,16.7-28.7,14.7-25.6,29.3-51.3,44.1-76.9,15.1-26.2,30.2-52.4,45.4-78.6,13.7-23.6,27.4-47.1,41.1-70.8,11.5-19.9,22.8-39.8,34.3-59.7,10.5-18.1,21-36.3,31.7-54.3,2.6-4.3,2.6-7.7,0-12.1-19.4-33.1-38.6-66.2-57.7-99.4-15.8-27.3-31.3-54.8-47.1-82.1-18.1-31.3-36.4-62.5-54.5-93.8-18.1-31.3-36.1-62.7-54.1-94.1-1.5-2.6-3.1-3.7-6.2-3.7-143.1,0-286.2,0-429.4,0-2.5,0-4.2.4-5.5,3-2.4,4.8-5.5,9.4-8.2,14.1-14.9,25.8-29.7,51.5-44.5,77.3-10.2,17.7-20.6,35.3-30.8,53-13.8,23.9-27.5,47.9-41.3,71.8-14.8,25.6-29.6,51.3-44.4,76.9-13.9,24-27.6,48.2-41.9,71.9-4.4,7.3-5.6,12.9-.7,20.8,11.9,19,22.6,38.8,33.9,58.2,13.7,23.7,27.6,47.3,41.3,71.1,11.6,20.1,23,40.2,34.6,60.3,10.4,18,20.9,36,31.3,54,11.4,19.7,22.8,39.4,34.2,59.1,11.6,20.1,23.2,40.1,34.6,60.3,2.2,3.8,4.4,5.6,9.2,5.6,70.8-.2,141.6-.1,212.4-.1Zm-102.1,205.7c26.8,0,53.7.1,80.5-.1,5,0,6.4,1.1,6.4,6.3-.2,46.8-.2,93.7,0,140.5,0,5.5-1.5,8.2-6.6,10.9-21,10.7-29.4,31.9-25,52.2,6.1,28.5,32.6,43,57.6,37.6,26-5.6,43-30.7,37-57.9-3.4-15.7-12.9-27-27.6-33.6-2.5-1.1-3.6-2.3-3.6-5.1,0-48.8,0-97.7,0-146.5,0-3.2.8-4.3,4.2-4.3,54.7.1,109.3,0,164,.2,11.5,0,21.9,4.5,30.8,12,17.8,14.8,24.4,40.2,12.4,62.9-8.3,15.7-21.7,26.2-39.7,26.7-34.3.9-68.6.2-103,.4-3.2,0-3.9-1.1-3.8-4,.2-6.5,0-13,0-19.5,0-4-1.3-9.2.8-11.6,2.4-2.8,7.8-.9,11.9-.9,29,0,58,0,87,0,8.1,0,14.3-4.8,15.5-11.8,1.7-10.6-4.7-17.5-16.6-17.6-41.7,0-83.3,0-125,0-3.6,0-4.9.7-4.8,4.6.2,29.3.1,58.7,0,88,0,3.3.6,4.6,4.3,4.6,43.7-.1,87.3-.1,131,0,5.4,0,10.7-.7,15.8-2,33.7-8.2,59.3-35.8,63.2-71.3,2.6-23.8-3.9-44.8-19.3-62.6-13.7-15.9-31.2-25.5-52.5-28.1-12.8-1.6-25.6-1-38.4-1.1-44.2-.2-88.3-.1-132.5,0-4,0-5.7-.8-5.4-5.2.4-5.6,0-11.3,0-17,0-35.3,0-70.7.1-106,0-4.6-1.3-5.6-5.6-5.4-7.1.4-14.3.4-21.5,0-4.2-.2-5.2,1-5.2,5.2.2,40.7,0,81.3.2,122,0,4.9-1,6.4-6.2,6.4-52.8-.2-105.6-.3-158.5,0-12.3,0-24.3,2.5-35.6,7.7-40.7,18.9-58.8,63.9-42.5,105.8,11.8,30.2,41.8,51.3,74.2,51.5,43.3.3,86.7,0,130,.2,3.9,0,4.6-1.2,4.6-4.8-.1-29-.2-58,0-87,0-4.6-1.5-5.4-5.7-5.4-41,.2-82,0-123,.1-2.5,0-5,.1-7.4.7-5.8,1.2-9.9,6-10.5,11.8-1,10,5.2,16.9,15.4,17,31.5,0,63,.1,94.5-.1,4.6,0,5.5,1.3,5.3,5.5-.3,8.7-.3,17.3,0,26,.1,3.8-.9,4.7-4.7,4.7-32.3-.2-64.7-.2-97,0-11.4,0-21.5-3.4-30.4-10.1-19.1-14.4-24.9-38.9-17-58.6,9.2-22.8,27-33.4,51.4-33.3,25.3,0,50.7,0,76,0ZM421.2,371c-32.5,0-56.7,11.7-72.1,32.8-9.1,12.4-15.9,26.3-23.6,39.6-15.7,26.8-31.2,53.7-46.8,80.6-1.2,2.1-.9,3.2,1.6,4.5,6.8,3.5,13.2,7.5,19.8,11.3,19.4,11.3,38.8,22.6,58.3,33.9,1.9,1.1,3.3,1.2,4.7-1.3,3-5.7,6.5-11.1,9.7-16.7,18.3-31.8,36.5-63.6,54.8-95.4,3.8-6.7,1.3-15.6-5.7-19.7-6.1-3.6-15.1-1.4-18.9,4.8-2.4,3.8-4.6,7.7-6.8,11.5-13.9,24-27.9,47.9-41.5,72.1-2.3,4-4.3,3.8-7.5,2-7.8-4.6-15.7-9.2-23.6-13.6-2.7-1.5-2.9-3.1-1.4-5.6,2.3-3.8,4.4-7.7,6.6-11.5,13.7-23.6,27.9-46.9,41.1-70.8,12.6-22.7,40.1-33.5,65.8-22.5,27.6,11.8,38,44.7,24.6,70.1-10.4,19.7-22.3,38.6-33.4,58-10.5,18.2-20.8,36.4-31.2,54.6-5.7,9.9-11.3,19.8-17.1,29.6-1,1.7-1.8,4.3-5.3,2.3-14.6-8.7-29.4-17-44.1-25.4-27.8-16-55.5-32-83.3-48-2.3-1.3-3.3-2.7-2.8-5.6,1.1-6.2.5-12.5-1.2-18.3-7.9-26.9-35.9-41.6-61.8-33.3-21.7,7-36.7,31.2-32.9,53.6,6.1,35.8,47.4,52.9,76.5,31.2,2.2-1.6,4.1-1.7,6.4-.4,5.8,3.4,11.7,6.8,17.6,10.2,24,13.9,48,27.8,72,41.7,12.3,7.1,24.6,14.3,36.9,21.4,2.1,1.2,3.8,2.1,2,5.3-11.2,19.1-22.1,38.3-33.2,57.4-15.6,27-32.1,53.6-46.8,81-10.7,20-37.2,33.4-61.6,25.4-30.8-10.1-44-46.1-28.8-73.2,8.3-14.9,16.9-29.6,25.4-44.3,7.7-13.3,15.3-26.6,23.1-39.9,1.2-2.1,2.2-4.6,5.6-2.5,8,4.9,16.1,9.7,24.4,14.2,3.4,1.8,3.6,3.6,1.8,6.7-5.2,8.8-10.2,17.7-15.3,26.5-11,19.1-22.1,38.1-33,57.2-3.8,6.7-1,15.3,5.2,19.2,8.6,5.3,16.8.3,19.9-4.6,3.5-5.4,6.6-11.1,9.8-16.6,18.2-31.6,36.4-63.2,54.7-94.8,1.6-2.8,1.3-4.3-1.6-5.8-5.6-2.9-11-6.1-16.4-9.2-20.3-11.7-40.6-23.5-60.8-35.3-2.3-1.3-3.7-1.5-5.2,1.1-8.9,15.6-17.8,31.2-26.8,46.8-11.6,20-23.2,40.1-34.9,60.1-7.8,13.3-13.2,27.4-13.7,43-.4,11.3,1.7,22,5.7,32.6,6.7,17.9,18.4,31.7,34.7,41.3,21.1,12.4,43.6,14.9,67.1,7.4,18.2-5.8,33-16.2,43.2-32.3,9.9-15.6,18.8-31.9,28.1-47.9,10.5-18.1,20.8-36.4,31.3-54.5,8.4-14.5,16.9-28.8,25.2-43.3,1.5-2.6,2.6-2.7,5-1.2,7.1,4.3,14.4,8.2,21.5,12.3,29.2,16.9,58.3,33.7,87.4,50.7,2.7,1.6,4.1,1,5.5-1.6,3.8-6.8,7.6-13.6,11.7-20.2,1.8-2.9,1.6-4.4-1.5-6.2-18.2-10.3-36.4-20.8-54.5-31.3-18-10.4-36-21-54-31.4-2.5-1.4-3.2-2.4-1.6-5.3,14.1-24.1,27.9-48.5,41.9-72.6,13.6-23.4,28.1-46.4,40.6-70.3,14-26.8,13.6-54.3-1.9-80.7-15.7-26.8-40-39.4-64.4-40.5Zm-180.7,635.5c-29.6-.2-48.3,7.3-64,21.8-15.9,14.7-24.4,33.1-26.3,54.5-1.6,18.7,4.1,35.7,13.4,51.7,20.6,35.4,41.1,70.9,61.6,106.4,1.4,2.4,2.2,3.6,5.2,1.9,26-15.1,52.1-30.1,78.2-45,2.2-1.3,2.6-2.4,1.2-4.7-2.3-3.6-4.2-7.5-6.4-11.2-19.3-33.3-38.7-66.6-58-99.9-4.2-7.2-12.3-9.8-19.7-6-6.9,3.5-10,12.3-6.1,19.3,8.8,15.7,17.9,31.2,26.9,46.7,7.1,12.2,14.1,24.4,21.2,36.5,2,3.5,2,5.7-2.1,7.8-7.2,3.7-14.1,7.9-21.2,11.9-6.1,3.4-5.9,3.4-9.3-2.5-12.5-21.8-25.3-43.4-37.7-65.3-5.8-10.3-13-19.9-15.1-32.1-4.9-28,11.9-54,40.6-59.9,20.7-4.3,42.7,5.9,53.3,23.9,13.7,23.4,27.1,46.9,40.6,70.4,13.5,23.5,26.8,47.1,40.6,70.4,2.2,3.7,1.1,4.8-1.6,6.4-8,4.6-16,9.3-23.9,13.9-33.9,19.6-67.8,39.1-101.7,58.7-2.9,1.7-5.1,1.4-7.7-.5-11.3-8.6-24.4-10.9-37.8-8.1-25.9,5.3-42.5,30-37.9,55.6,4.9,27,29,44.6,57.2,39.5,24.7-4.5,41.2-27.6,38.6-52.5-.4-3.5.8-5,3.6-6.6,17.6-9.9,35.1-20,52.5-30,24.5-14.1,48.9-28.1,73.2-42.5,3.4-2,4.6-.8,6.1,1.6,10.2,17.6,20.3,35.2,30.4,52.8,15.9,27.6,31.7,55.4,47.9,82.8,8.9,15.1,12.3,30.8,6.1,47.6-6.7,18.1-19.7,28.8-38.9,32.8-18.7,3.9-41.4-5.7-50.8-20.9-6.2-10.2-12.2-20.5-18.1-30.8-11-19-22-38-33-57-1.2-2-1.4-3.8.9-5.1,8.6-4.9,17.3-9.7,25.9-14.8,2.5-1.4,3.7-1.1,5,1.4,2.7,5.1,5.8,10,8.7,15,13.2,22.9,26.3,45.9,39.6,68.7,5.1,8.8,13.5,9.4,19.6,6.1,7.2-3.9,10.3-11.9,5.1-20.9-3.3-5.7-6.6-11.4-9.9-17.1-17.9-31.1-35.9-62.1-53.7-93.3-1.6-2.7-2.7-3.1-5.4-1.5-25.8,15-51.7,30-77.7,44.8-2.3,1.3-2.6,2.4-1.3,4.7,5.4,9.2,10.6,18.6,15.9,27.9,13,22.5,26,45,39.1,67.4,6,10.2,11.1,21,19.2,29.9,16.1,17.7,36.1,27.4,59.9,27.8,26.2.5,48.4-9.6,65.1-29.9,18.4-22.4,23.3-48.1,15.7-76.1-2.5-9-7.1-17-11.8-25-14.7-25.4-29.5-50.9-44.2-76.4-11-19-21.8-38.1-32.9-57.1-1.7-2.9-.7-4.1,1.7-5.4,4.1-2.2,8.2-4.3,12.1-6.6,20.1-11.7,40.2-23.5,60.4-35.2,12.1-7,24.3-14,36.6-20.9,2.3-1.3,3-2.6,1.5-5.2-2.7-4.3-5.2-8.8-7.8-13.2-2.1-3.5-3.6-8.9-6.6-10-3.6-1.3-7.3,3.3-11,5.4-33.4,19.1-66.8,38.2-100,57.7-4.2,2.5-5.5,1.2-7.4-2.1-8.3-14.8-16.8-29.5-25.2-44.2-17.2-29.8-34.8-59.3-51.5-89.3-16.6-29.7-41-45.8-67.1-46.8ZM1340.4,371.1c-21.6-.1-37.2,4.1-48.4,10.9-21.5,13-35,31.7-39.6,56.5-3.1,16.8-1.6,33.2,5.7,48.7,8.2,17.3,18.7,33.4,28.1,50.1,17.2,30.7,35.2,60.9,52.9,91.3,1.8,3.1,5.4,6.3,4.8,9.5-.6,3.3-5.5,4.2-8.6,6-22,12.8-44.1,25.5-66.1,38.2-12,6.9-24,13.9-36.1,20.7-3.5,1.9-3.6,3.5-1.4,6.8,4.1,6.2,7.6,12.8,11.2,19.3,1.3,2.3,2.4,3.9,5.4,2.2,17.5-10.2,35.1-20.3,52.6-30.5,18.2-10.5,36.3-21.1,54.6-31.6,5.5-3.2,5.6-2.9,8.9,2.9,5.7,10.1,11.5,20.1,17.3,30.1,15,26,30.1,52,45.1,78,7,12,13.1,24.6,21.1,35.9,13.6,19.2,32.4,30.8,56,34.1,14.5,2.1,28.6.8,42-4.8,26.1-10.9,42.8-30.3,49.7-57.8,4.1-16.1,2.7-31.9-3.1-47.5-4.6-12.5-12.2-23.4-18.6-34.9-16.9-29.9-34.4-59.5-51.5-89.3-1.6-2.8-2.6-2.5-4.8-1.2-10.4,6.2-20.9,12.1-31.4,18.2-15.6,9-31.2,18-46.8,27-2.2,1.2-2.8,2.1-1.3,4.5,4.3,7,8.2,14.3,12.3,21.4,17.3,29.9,34.7,59.7,52,89.6,4.5,7.7,12.1,10.1,20.1,5.9,6.6-3.5,9.5-12.5,5.6-19.4-10-17.7-20.4-35.2-30.6-52.8-6-10.3-11.9-20.5-17.9-30.8-1.7-3-1.4-4.9,2-6.6,8-4.2,16-8.7,23.7-13.5,3.3-2.1,4.7-.9,6.2,1.8,16,27.8,32.1,55.4,47.9,83.3,8.4,14.7,9.2,30.2,2.6,45.9-6.3,15.1-17.7,24.1-33.1,29-19.5,6.2-45.8-3.3-56.1-20.9-9-15.2-17.7-30.6-26.5-45.9-18.7-32.3-37.3-64.7-56.2-96.9-2.1-3.7-1-4.8,1.7-6.4,17.9-10.3,35.8-20.6,53.7-31,23.9-13.8,47.8-27.6,71.6-41.5,2.7-1.6,4.7-1.9,7.6.2,12.5,9.3,26.9,12.1,41.5,7.5,19.3-6,31.4-19.4,34.6-40,3.9-24.9-12.7-48.4-37.1-53.9-29.2-6.7-58.3,14.6-58.6,44.3-.1,11.1-4.3,15.9-12.8,19.8-1.1.5-2.1,1-3.1,1.5-36.1,20.8-72.1,41.6-108.2,62.4-8.9,5.1-9.2,5.2-14.4-3.6-12.8-21.8-25.4-43.7-38-65.5-12.8-22.2-25.7-44.3-38.5-66.5-8.6-14.8-10.8-30.1-4.8-46.7,11.8-32.9,53-41.9,78.2-22.7,8.3,6.3,13.4,14.8,18.5,23.6,14.5,25.2,29.1,50.4,43.7,75.6,1.1,1.9,1.8,3.8-.5,5.2-8.7,5.1-17.5,10.1-26.3,15-2,1.1-3.7.9-4.9-1.5-1.7-3.3-3.8-6.5-5.7-9.8-14.4-24.9-28.7-49.8-43.1-74.7-3.8-6.6-12.5-8.8-19-5.2-6.9,3.8-9.8,12.7-5.8,19.6,9.1,15.9,18.2,31.8,27.3,47.6,12.4,21.5,24.9,42.9,37.2,64.4,1.5,2.7,3.2,2.4,5.2,1.3,25.9-15,51.7-30.2,77.6-45.1,2.9-1.7,2.4-2.9,1.1-5-4.8-8.1-9.5-16.3-14.2-24.5-15.7-27.2-31.7-54.1-46.9-81.5-16.4-29.4-40.6-45.4-67.4-46.4Zm257.6,716.5c.5-13.5-3.3-27.3-10.7-39.6-19.3-32.3-52.8-47.7-90.3-39.5-21.7,4.7-38.9,16.8-50.8,35.8-7.2,11.5-13.6,23.4-20.4,35.2-11.7,20.3-23.5,40.6-35.2,60.9-9.2,15.9-18.4,31.7-27.5,47.6-1.5,2.6-2.6,3.4-5.7,1.5-9.8-6.1-19.9-11.7-29.9-17.5-26.2-15.1-52.4-30.2-78.5-45.4-2.8-1.6-4.2-1.3-5.8,1.5-3.9,7.1-7.9,14-12.1,20.9-1.5,2.5-1,3.7,1.4,5.1,11.9,6.8,23.7,13.8,35.6,20.7,24.2,14,48.3,27.9,72.6,41.7,3.5,2,4.2,3.3,1.9,7.1-11.3,18.8-22.2,37.9-33.2,56.9-13.2,22.9-26.4,45.8-39.5,68.8-7.2,12.6-15,24.8-17.4,39.6-3.5,21.4-.7,41.8,11.4,59.6,20.2,29.6,48.6,42.8,84.5,36.7,20.7-3.5,37.5-14.1,50.3-30.9,9.8-12.9,16.8-27.6,25.1-41.5,15.3-25.7,29.9-51.8,44.9-77.7,1.7-2.9,2.4-4.3-1.4-6.5-25.3-14.3-50.5-28.7-75.5-43.5-4.4-2.6-5.6-1.5-7.6,2.2-10.4,18.3-21.1,36.5-31.6,54.8-10,17.3-20.1,34.6-30,52.1-1.3,2.4-3.1,4.7-3.4,7.7-.6,7,3,13.9,8.6,15.9,7.1,2.6,14.4.2,18.4-6.6,16.1-27.7,32.2-55.4,48-83.3,1.9-3.3,3.6-3.2,6.2-1.7,6.2,3.5,12.4,7,18.5,10.7,11.1,6.6,10.2,4,3.8,15.2-14.6,25.7-29.9,51-44.4,76.8-11.7,21-36.8,31.4-60.4,24.1-30.5-9.4-44.8-44.9-29.4-72.9,7.3-13.2,14.9-26.2,22.4-39.2,11.6-20.2,23.3-40.3,34.9-60.5,7.9-13.7,15.8-27.5,23.7-41.2,1.8-3.1,3.2-4.5,7.1-2.2,19,11.3,38.2,22.2,57.4,33.3,23,13.3,46.1,26.6,69.1,39.8,1.7,1,2.8,1.9,2.4,4.3-1.4,8.2-.3,16.2,2.8,23.9,8.6,22.1,30.2,34.8,54.3,30.2,29.9-5.7,46.1-36.1,36.4-63.7-9.8-28.1-43.9-41.3-69.2-25.7-7.1,4.3-12,4.2-17.9-.4-.3-.2-.6-.4-.8-.5-20.2-11.6-40.4-23.3-60.5-34.9-19.4-11.2-38.9-22.4-58.3-33.6-2.4-1.4-4.1-2.6-2-6.1,11.8-20.1,23.1-40.5,34.8-60.7,15-26.1,30.4-51.9,45.1-78.1,11.5-20.5,36.2-31.6,59.3-25.1,32.3,9.2,46.8,46,30.2,75.1-5.9,10.3-11.9,20.5-17.8,30.8-10.3,17.8-20.6,35.5-30.7,53.3-1.4,2.5-2.8,2.4-4.8,1.2-7.9-4.6-15.6-9.4-23.6-13.6-4.2-2.2-4.5-4.5-2.3-8.2,15.9-27.3,31.7-54.6,47.5-81.9,3.8-6.6,2.3-15-3.5-19.2-6.2-4.5-14.1-3.6-19.4,1.9-2.4,2.4-3.8,5.5-5.4,8.3-20.4,35.2-40.6,70.4-61,105.6-1.5,2.5-1.4,3.5,1.1,4.9,26,14.8,51.9,29.8,77.8,44.7,2,1.1,3.3,2.3,5-.8,7.6-13.6,15.5-27,23.3-40.5,12.7-22,25.3-44.1,38.2-66,8.5-14.4,14.3-29.5,14.1-47.7ZM980,375.7c25.3,0,50.7,0,76,0,11.1,0,22-1.6,32-6.2,28.9-13.3,46.4-35.3,50.1-67.4,2.6-22.5-3.5-42.7-17.6-60.2-16.1-20-37.3-30.5-63-30.7-43.3-.4-86.6-.1-130-.2-2.8,0-3.7.9-3.7,3.7,0,30,0,60,0,90,0,2.5.6,3.4,3.3,3.4,43.3,0,86.6,0,130,0,6,0,11.9-5.1,13.1-10.9,2-10.2-4.1-17.9-14.5-17.9-31.7,0-63.3,0-95,0-3.7,0-5.9-.3-5.7-5,.4-8.8.3-17.7,0-26.5-.2-4.4,1.2-5.7,5.6-5.6,31,.2,62,0,93,.1,9.5,0,18.6,2,27.3,6.5,21.6,11.3,33.2,39.7,23,63.6-9,21.1-25.2,32-48.4,32-53.3,0-106.6,0-160,0-4,0-5.4-.9-5.4-5.2.2-48,.1-96,0-144,0-3.2.9-4.9,3.9-6.4,19.5-9.8,29.3-25.5,28.2-47.6-1-20.4-14.7-37.2-33.4-42.6-17.5-5.2-34.4-2.1-48.1,11.1-12.7,12.2-17.4,27.6-14.1,44.6,3.1,15.9,12.7,27.8,27.7,34.7,2.7,1.2,3.9,2.6,3.9,5.9-.1,48.3-.1,96.7,0,145,0,3.9-1.2,4.7-4.8,4.7-54-.1-108-.2-162,0-11.6,0-21.8-3.5-30.8-10.4-18.2-13.8-24.6-37.5-16.8-57.9,8.4-21.9,25.4-33.3,48.7-33.7,32.2-.5,64.3-.1,96.5-.2,3.5,0,4.1,1.4,4.1,4.5-.2,8.8-.3,17.7,0,26.5.2,4.7-1,6.2-6,6.2-31.7-.2-63.3-.1-95,0-8.6,0-14.4,5.9-14.4,14.3,0,8.3,6,14.5,14.3,14.5,42.7,0,85.3,0,128,.1,3.6,0,4.3-1.1,4.3-4.5-.1-29.3-.1-58.7,0-88,0-3.8-1.1-4.7-4.8-4.7-42,.1-84,0-126,.1-11.2,0-22.2,1.5-32.6,6-21.9,9.4-37.6,25-46.2,47.5-8.2,21.7-7.6,43.2,2.6,63.8,15.6,31.5,41.7,47.3,77,47.3,52.2,0,104.3,0,156.5,0q7.3,0,7.3,7.3c0,40.5,0,81,0,121.5,0,3.6.8,5,4.7,4.8,7.3-.3,14.7-.3,22,0,4.3.2,5.6-.8,5.6-5.4-.2-40.8,0-81.7-.2-122.5,0-4.7,1.5-5.9,6-5.8,28,.2,56,0,84,0Zm531.4,541.8c27.8,0,50.1-5.6,71-16.1,21.6-10.9,39.6-26.3,53.7-46,14.3-20,23-42.3,26.5-66.6,2.2-15.6,1.7-31.1-1.3-46.6-3-15.6-8-30.4-15.8-44.2-12-21.3-24.3-42.4-36.5-63.5-1.5-2.5-1.7-4.4,1.3-6.1,12-6.8,24-13.8,36-20.8,2.6-1.5,4.1-1.7,5.2,2.2,7.9,28.5,39.4,43.6,66.8,31.3,27.8-12.5,37.5-49.5,18.4-73.4-12.3-15.4-28.4-22.1-48.4-18.1-10.7,2.2-19.3,8.3-28.4,13.6-30.9,17.8-61.8,35.7-92.8,53.4-3.3,1.9-3.2,3.7-1.7,6.2,14.7,25.4,29.4,50.9,44.3,76.2,11.4,19.3,20.7,39.1,21.9,62.1.8,16.2-.9,31.8-6.4,47-7.7,21.5-20.7,39.3-38.8,53.3-16.8,12.9-35.8,20.7-56.7,23.3-11.7,1.5-23.4,1-35.2-1.2-16.6-3.1-31.6-9.5-45.4-18.9-3.8-2.6-5.4-2.5-8.1,1.2-9.1,12.6-21.3,19.6-37.1,20.6-21.2,1.4-37.5-6.9-48.2-24.7-16.7-27.7-32.4-56-48.7-84-1.3-2.3-1.2-3.6,1-4.9,8.6-5,17.3-9.8,25.8-14.9,2.9-1.7,4-.6,5.4,1.8,7.2,12.6,14.5,25.2,21.7,37.7,8.9,15.3,17.7,30.6,26.6,45.9,3.8,6.5,12.5,8.9,18.6,5.4,8.2-4.7,10.2-12.1,6.7-18.9-6.9-13.5-14.8-26.5-22.4-39.6-14-24.2-28.1-48.3-42-72.5-1.8-3.2-3.1-3.4-6-1.7-25.7,15-51.5,29.9-77.3,44.7-2.4,1.4-2.6,2.3-1.4,4.5,7.6,13.2,15.1,26.4,22.8,39.6,12.9,22.3,26,44.4,38.7,66.9,9.4,16.7,21.5,30.4,39.3,38.5,28.3,12.8,55.5,10.4,81.5-6.1,2.7-1.7,4.7-2,7.2-.7,19.8,9.6,40.8,13.7,58.3,14.2Zm-980.3,485c.5,14.1-1.9,27.7-6.7,41-11.7,32.5-33.9,55-65.4,68.4-23.5,10-48.1,11.1-72.8,5-25.3-6.2-46.2-19.9-62.4-40.5-11.6-14.7-19.6-31.7-29.1-47.7-10.8-18.2-21.4-36.5-31.8-54.9-1.5-2.7-2.9-3.2-5.4-1.7-9.5,5.6-19.1,11.2-28.6,16.8-26,15-52.1,30.1-78.1,45-19.4,11.1-29,33.7-23,54.9,8.3,29.2,38.1,42.7,65.5,31.9,17.7-7,29.7-24.6,29.8-43.7.1-12.8-4.1-24.1-12.8-33.5-2.8-3.1-3.9-5,.8-7.6,11.9-6.5,23.4-13.5,35.1-20.4,2.4-1.4,3.8-.7,5.2,1.7,8.9,15.6,18,31.1,26.9,46.7,7.9,13.8,15.7,27.7,26.6,39.4,23.4,25.1,51.7,40.7,85.8,46.8,24.1,4.3,47.4,2,70.3-5.1,16.7-5.2,32.1-13.7,46-24.8,30.6-24.4,49-55.8,54.7-94.6,1-6.7.4-14.4,9.4-16.8,2.6-.7,4.6-2.6,6.8-4.1,29.7-19.8,43-59.9,31.2-93.6-4.4-12.5-11.6-23.4-18.2-34.7-17.5-30.3-35.1-60.6-52.4-91-2.1-3.7-3.5-3.6-6.7-1.8-23.9,14-48,27.8-71.9,41.7-7.9,4.6-7.7,4.6-3.1,12.5,10.6,18.3,21,36.7,31.5,55,9.8,17,19.8,34,29.7,51,4.2,7.2,12.9,9.9,20.1,5.6,6.5-3.9,9.4-12.2,5.4-19.5-8.8-15.9-18.1-31.5-27.3-47.2-6.9-11.9-13.9-23.7-20.7-35.6-1.3-2.2-2.9-4.5.9-6.6,8.3-4.4,16.5-9,24.4-13.9,3.4-2.1,4.7-1.2,6.5,1.9,13.7,23.9,27.4,47.9,41.4,71.7,8.9,15.1,16.1,29.9,11.7,48.6-4.6,19.5-22.7,36.8-42.7,38.7-6.8.6-6.8.5-6.5,7.1,0,2.5,0,5,0,7.5ZM84,767.8c.3,19.8,3.5,38.2,10.5,55.5,10.6,26.2,27.1,48.3,50.1,65.1,24.8,18.1,52.6,28,83.3,29,23.6.8,46.1-3.9,67.5-14.2,2-1,3.9-1.4,6,.2,13.2,9.4,28,14.5,44.1,14.7,32,.4,56.9-12.9,73.7-40.4,8.6-14.1,16.6-28.5,24.9-42.7,13.4-23.2,26.8-46.4,40.2-69.6,1.2-2,1.5-3.4-1.3-4.6-3.4-1.6-6.5-3.8-9.8-5.7-22.4-12.9-44.8-25.7-67-38.7-3.6-2.1-5-1.4-6.8,1.8-9.3,16.5-18.9,32.9-28.3,49.4-11.8,20.5-23.6,41-35.3,61.5-4.4,7.6-.8,16,6.3,19.8,6.2,3.3,14.7.9,18.5-5.6,16.1-27.7,32.2-55.4,48.1-83.2,1.8-3.1,3.2-3.6,6.1-2,8.3,4.8,16.7,9.6,25,14.4,2.2,1.3,2.7,2.8,1.2,5.3-4.8,7.9-9.4,15.9-14,23.9-10.4,18.1-21,36-31,54.3-7.8,14.1-18.1,25.4-34.1,29-21.3,4.8-41-.2-54.9-19.5-2.5-3.5-4.1-3.7-7.7-1.1-15.6,11.3-33.2,18-52.2,20.3-25.9,3.2-50.5-1.9-73.1-15.2-19-11.1-33.6-26.4-44-45.9-8.1-15.4-12.6-31.5-13.3-49-.7-18.1,1.5-35.6,9.3-52,10.4-22,23.8-42.3,35.7-63.5,7-12.4,14.2-24.6,21.3-36.9,1.3-2.3,1.6-3.9-1.3-5.6-11.2-6.3-22.3-13-33.5-19.4-23.8-13.7-47.7-27-71.3-40.9-15.9-9.4-32-11.1-48.6-2.6-21,10.7-29.9,30.8-25.7,52.7,4.8,25.4,29.8,43,56,37.9,19.7-3.9,32.3-15.7,38.2-34.6,1.3-4.3,2.9-3.6,5.4-2.2,11.7,6.7,23.4,13.6,35.2,20.3,3.4,1.9,3.3,4,1.7,6.9-11.1,19.1-22.1,38.4-33.3,57.4-14,23.7-20.9,49.2-21.7,75.6Zm1245.8,752.6c-24.3.6-48.8-8.3-69.7-25.6-31.5-26-45.6-60.2-42.8-101,.3-4.6-.8-5.6-4.9-5.7-11.6-.5-21.3-5.5-29.7-13.2-17-15.6-21.4-42.4-9.2-63,8.5-14.3,16.5-29,24.8-43.4,7.7-13.4,15.4-26.6,23.1-40,1.5-2.6,3-3.3,5.9-1.5,7.4,4.6,14.8,9.3,22.7,13,5,2.4,4.7,4.7,2.4,8.7-15.5,26.7-30.7,53.6-46.5,80.2-4.6,7.7-2,16.4,3.7,20.5,7.1,5,16.7,2.2,21.2-5.6,20.9-36.6,41.9-73.1,63.2-109.4,2.3-3.9,1.3-5.1-1.9-7-10.8-6.1-21.5-12.4-32.3-18.6-14.7-8.5-29.5-16.8-44.2-25.3-2-1.2-3.3-1.7-4.7.8-9.8,17.2-19.8,34.3-29.7,51.5-10.5,18.2-20.8,36.5-31.5,54.5-11.5,19.4-17.7,39.7-12.8,62.6,5.7,26.9,20.9,46.3,45.2,58.8,2.4,1.2,3.5,2.6,3.7,5.2.4,4.5.7,9,1.6,13.4,5.6,28.3,17.2,53.6,37.3,74.8,24.5,25.8,54.3,41.1,89.3,46.3,23.6,3.4,46.6.5,69.1-7.5,18.3-6.4,34.5-16.2,49.1-28.9,18-15.6,29.6-35.8,41.1-56.2,7.9-13.9,16-27.7,23.9-41.6,1.2-2.1,2.7-2.9,4.9-1.6,11.8,6.9,23.6,13.9,35.5,20.6,3.9,2.2,3.9,3.8,1,6.9-12.9,14.4-16.8,30.8-10.4,49.3,5.2,15.4,16.2,25.6,31.2,30.1,14.1,4.2,28.2,2.5,41.1-5.7,18-11.4,26.3-36.6,19-56.5-5-13.6-14.6-22.3-26.7-29.3-33.9-19.5-67.8-39.2-101.7-58.7-2-1.2-4.1-2.2-5.5,1.3-1,2.7-2.9,5.1-4.4,7.7-11.6,20-23.3,40-34.8,60-7.4,12.9-13.8,26.6-23.7,37.8-23.6,26.9-53.2,41.4-92.7,41.2Zm3.9-1215.4c-8-.4-15.7.8-23.5,1.9-13.9,2-27.2,6.1-39.8,12.1-20.2,9.6-37.6,22.9-51.9,40.2-10.9,13.3-19.3,27.9-24.9,44.2-4.2,12.3-7,24.9-8.1,37.8-.2,2.3-1.2,3.6-3.2,4.5-24.2,11.7-39,30.8-45.3,56.8-2.2,9.2-2.9,18.5-1.6,27.7,2.3,16,9.6,30,18,43.7,9.4,15.4,18.1,31.1,27.1,46.7,10.1,17.6,20.3,35.2,30.3,52.8,1.1,2,1.7,2.5,4,1,6.4-4.1,13.2-7.7,19.8-11.5,19.6-11.3,39.2-22.6,58.9-33.8,2.2-1.3,2.7-2.2,1.2-4.5-3.9-6.3-7.6-12.8-11.3-19.2-17.8-30.9-35.5-61.9-53.4-92.8-3.2-5.5-11.5-10.3-20.3-4.7-6,3.9-8.7,13-5,19.3,10.2,17.6,20.6,35.1,30.8,52.7,6,10.3,11.7,20.7,17.7,30.9,1.6,2.7,1,4.1-1.5,5.6-8.4,4.7-16.8,9.3-25,14.3-2.7,1.7-3.9.7-5.2-1.4-2.5-4.2-5-8.5-7.5-12.8-13.8-23.9-27.8-47.6-41.2-71.7-9-16.2-8.9-33.1,0-49.4,9-16.4,23.5-25.1,42.3-26.4,2.3-.2,2.5-.7,2.3-2.9-2-23,1.3-45,12.3-65.6,21.8-40.9,56.2-61.6,102.1-63.6,14.4-.6,28.4,2.2,41.9,7.2,16.8,6.2,31.3,16,43.9,28.9,12.2,12.5,19.8,28,28.5,42.8,13.2,22.5,26.3,45,39.1,67.7,1.8,3.3,3.3,2.9,5.8,1.5,15.6-9,31.2-18,46.8-27,19.9-11.5,39.5-23.3,59.6-34.4,22.9-12.7,31.4-43.6,18.4-66.4-9.3-16.2-30.4-27.4-50.7-23.6-20.1,3.8-35,19.3-38.9,37.1-3.8,17.3,1.2,32.4,13.5,45.1,1.8,1.8,2.7,2.6-.2,4.2-12.6,7.2-25.2,14.6-37.8,21.9-2.2,1.3-3.5.7-4.8-1.5-11.2-19.5-22.3-39-33.7-58.4-29-49.8-72.7-74.8-129.7-77.2Zm-720.5,213.5c.6-7.1-1.5-15.3-4.1-23.4-7.4-22.7-21.9-39.2-43.5-49.5-1.9-.9-2.7-2.1-2.8-4.2-.8-8.9-2.3-17.7-4.6-26.4-6.1-23.1-17-43.6-33.3-61.2-14.8-16-32.1-28.4-52.3-36.9-16.4-6.9-33.4-10.9-51.1-11.7-25.9-1.2-50.4,4.3-73.6,15.9-23.4,11.8-42.7,28.6-56.7,50.6-14,22.2-26.7,45.2-39.7,68-1.9,3.2-3.4,3.4-6.1,1.8-11.3-6.6-22.6-13.1-33.9-19.6-5.8-3.4-5.7-3.3-1.3-8.2,12.5-14,16-30,10.1-47.9-10.7-32.2-50.2-43.6-77-21.6-22.2,18.2-22.8,53.7-1.3,72.8,9.1,8.1,20.3,12.9,30.6,19.1,18.1,10.7,36.4,21,54.6,31.6,10,5.8,19.9,11.6,29.9,17.4,2.5,1.4,4,1.9,5.8-1.4,5.1-9.6,10.8-18.8,16.3-28.2,11.7-20.2,23.1-40.5,35-60.5,18.6-31.3,46.2-50.1,81.9-56.5,19.6-3.5,39-1.5,57.8,5.3,22,7.9,40,21,54,39.6,18.4,24.5,25.4,52.2,22.8,82.5-.2,2.3-.2,3.1,2.5,3.3,16.1,1,29.5,7.8,38.8,21,8.3,11.9,11.8,25.1,8.6,40-1.9,8.7-6,16-10.3,23.5-14.5,25.2-28.9,50.4-43.4,75.6-1.3,2.3-2.7,3.2-5.6,1.4-7.9-4.9-16-9.4-24.2-13.7-3.4-1.8-3.8-3.6-2-6.6,15.7-27,31.1-54.2,47-81.1,5-8.5,2.5-17.3-3.5-21-8.2-5.1-16.2-2.7-21.3,6.1-21.1,36.6-42.2,73.3-63.6,109.8-1.9,3.2-.9,4.2,1.5,5.6,26.1,15,52.3,29.9,78.3,45,1.9,1.1,2.4,1.3,3.6-.8,5.3-9.5,11-18.8,16.4-28.2,15-26,29.9-52.2,45.1-78.1,8.6-14.7,14.7-30,14.5-48.9Zm-380.5,421.8c-24.4-.2-47.3,5.6-68.7,17-35.6,18.9-59.9,47.8-72.5,86-6.8,20.9-9.5,42.4-6,64.4,1.9,12.2,4.6,24.1,9.1,35.5,6.3,15.7,15.6,29.8,24,44.4,6.8,11.8,13.6,23.5,20.4,35.2,1.7,2.9,1.5,5-1.9,6.8-5.8,3.1-11.4,6.6-17.2,9.9-6,3.5-12.1,6.9-18.1,10.3-2.6,1.5-4.3,2-5.1-2.1-.9-4.5-3.2-8.7-5.5-12.7-13.6-24.2-50.1-30.2-71.4-12.4-15.7,13.2-23.2,34.9-14.6,56.1,7,17.2,20.3,27,38.6,29.8,13.5,2,25.3-2.7,36.8-9.4,33.4-19.6,66.8-39,100.4-58.2,3.3-1.9,3.5-3.3,1.9-6-10.4-17.9-20.8-35.7-31.1-53.6-8.1-14-16.6-27.8-23.8-42.2-12.4-24.8-14.7-51.1-8.2-78,8.4-35,29.1-60.5,60.9-76.6,21.2-10.8,43.7-14.9,67.6-11.3,18.7,2.8,35.8,9,51.1,20.1,3.6,2.6,5.3,1.8,7.7-1.6,20.2-28.1,61.8-27.9,81.8-.9,7,9.4,12.1,20.1,18,30.2,11.4,19.6,22.8,39.2,34.2,58.8,1.1,1.9,1.6,3.5-.9,4.9-8.6,4.8-17.1,9.8-25.7,14.7-2.2,1.3-4,.9-5.4-1.5-9.7-16.9-19.4-33.8-29.2-50.7-6.4-11-12.6-22.1-19.2-33-4.3-7-12.6-8.6-19.5-5-6.5,3.4-9,13.4-5.4,19.3,9.1,15.2,17.7,30.6,26.5,45.9,12.5,21.8,25.1,43.6,37.5,65.4,1.6,2.9,3.3,3.3,6,1.7,25.7-14.9,51.3-29.9,77.1-44.7,2.9-1.7,2.6-2.9,1.1-5.4-14.1-24.3-28-48.7-42-73-7.8-13.6-15.2-27.5-23.8-40.7-13.7-21-32.9-33.7-58.1-37.5-20.8-3.1-39.5,1.7-56.9,12.7-3.1,1.9-5.7,2.3-8.8.8-19.5-9.1-40.1-13.5-61.7-13.6Zm1431.3,149.8c-.3-21.1-4-39.9-11.5-58-11.3-27.3-29.3-49.3-53.7-66-20.7-14.2-43.7-22.7-68.7-25.1-26.6-2.5-52.2,1.7-76.6,13-2.5,1.2-4.9,1.6-7.5-.1-18.2-12-37.9-16.9-59.6-13.2-23.5,4-42.1,15.7-55,35.5-8.6,13.1-15.9,27.1-23.8,40.6-14.7,25.3-29.3,50.5-44,75.7-1.3,2.1-.8,3.1,1.3,4.2,5.3,3,10.6,6.1,15.9,9.2,20.2,11.6,40.4,23.2,60.4,35,4,2.4,6.1,2.3,7.9-2.2.9-2.3,2.4-4.4,3.6-6.5,19.7-34.2,39.5-68.5,59.3-102.7,4.4-7.7,1.8-16.6-5.3-20.5-6.9-3.7-15.4-1.3-19.7,6-5.4,9.2-10.7,18.6-16,27.9-10.4,18-21,36-31.3,54.1-1.8,3.2-3.6,4-6.7,2.1-8.1-4.8-16.2-9.5-24.4-14.1-2.8-1.6-2.8-2.9-1.3-5.5,16-27.6,32-55.2,47.9-82.8,7.3-12.8,18.2-21.4,32.2-24.5,22.2-4.9,40.9,1.8,54.4,20.7,2.1,3,3.6,2.7,6.2.9,10.3-7.3,21.5-12.6,33.7-16.4,24.6-7.8,48.8-7,72.8,1.6,32.2,11.6,55.3,33.4,68.4,64.9,13.5,32.5,12.5,65.3-3.3,96.8-10.1,20.2-22.3,39.3-33.6,58.9-6.9,11.9-13.9,23.7-20.7,35.6-1.1,1.8-2.4,3.8.9,5.6,13.5,7.5,26.9,15.4,40.3,23.1,22,12.7,44.1,25.4,66.1,38.2,10.8,6.3,22.5,8.7,34.5,6.2,23.8-4.8,40.5-25.2,39.1-50.1-1-18.2-9.7-31.7-25.2-40.1-27.5-14.8-60.3-.8-69.4,29.3-1.4,4.7-3.2,4-6.2,2.2-11.6-6.7-23.1-13.5-34.8-20.1-3.2-1.8-3.2-3.7-1.6-6.4,10.9-18.9,21.5-38,32.7-56.7,14.5-24,21.6-49.9,22.3-76.3Zm-670.7,257.8c-21.5,0-43,0-64.5,0-3.7,0-5.1.7-5.1,4.8.2,29.2.2,58.3,0,87.5,0,4,1.2,4.9,5,4.9,40-.1,80,0,120,0,2.8,0,5.7.1,8.5,0,6.7-.5,11.8-4.9,12.9-11.1,1.9-10.4-4.2-17.4-15.5-17.4-31,0-62-.1-93,0-4.5,0-6.3-1.2-6.2-5.9.3-8.7.2-17.3,0-26,0-4,1-5.5,5.3-5.5,31.2.2,62.3,0,93.5.1,8.4,0,16.3,2,24,5.5,22.9,10.3,35.4,39,25.7,64.1-3.1,7.9-3,7.7,4.8,11.7,32,16.5,52.3,42.5,60.8,77.3,4.6,19.2,4.1,38.5-1.4,57.6-9.3,32.2-28.7,56.1-58.2,71.9-17.4,9.3-36,13.3-55.6,13.4-33.2,0-66.3.1-99.5,0-4.2,0-5.2,1.2-5.2,5.3.2,40.3,0,80.7.2,121,0,6.4,1.1,12.7,3.4,18.9,9.2,24.5,36.9,36.8,61.2,28.1,23.2-8.3,35.6-30.2,31.5-54.4-4.6-27.3-32.3-45.2-59.1-38-3.6,1-5.1.3-5-3.8.2-13.3.3-26.7,0-40,0-4.4,1.5-5.2,5.5-5.2,22.5.2,45,.2,67.5,0,25.3-.2,49.2-5.7,71.5-17.9,37.5-20.5,61.8-51.5,73.3-92.6,5.8-20.6,6.3-41.7,2.8-62.8-4.4-26.9-15.3-50.8-33.3-71.4-8.2-9.4-17.1-17.9-27.4-25-1.7-1.2-3.9-2.2-3.4-5.4,1.5-9.5,0-18.9-2.4-28.1-4.9-18.6-15.2-33.5-30.6-45-15.3-11.5-32.6-16.5-51.6-16.5-20.2,0-40.3,0-60.5,0Zm-237.1,97.1c21,0,42-.1,63,.1,4.3,0,5.1-1.2,5.1-5.3-.2-28.8-.2-57.7,0-86.5,0-4.2-.8-5.6-5.4-5.6-41.5.2-83,0-124.5.2-6.1,0-12.5,0-18.4,1.4-21.5,5-39.4,16-52.1,34.4-10.6,15.4-15.5,32.6-14.5,51.2.2,4.1-.6,6.4-3.7,8.6-35.3,25.3-55.7,59.7-61.2,102.5-2.8,22.1-.7,44.2,6.7,65.4,10.7,30.4,28.9,55.1,55.2,73.7,25.1,17.8,53.2,26.6,83.8,27.2,23.7.5,47.3.2,71,0,3.5,0,5,.7,4.9,4.6-.2,13.5-.2,27,0,40.5,0,4.2-1.4,4.7-5,3.8-16.1-4.1-30.8-.6-43.2,10.2-19.6,17.2-22.4,43.5-7.5,64.9,12.8,18.3,38.6,25.3,58.5,16,20.1-9.4,29.2-25.7,29.3-47.2.2-39.8,0-79.7.1-119.5,0-4.1-.9-5.3-5.2-5.3-33.2.2-66.3.2-99.5,0-7.8,0-15.5-.7-23.3-2.1-22.2-4.2-41.6-13.8-58-29.3-19.8-18.7-32-41.4-35.7-68.7-2.4-18.1-1.4-35.9,4.5-53.1,10.8-31.8,31.8-54.8,62.1-69.2,3.7-1.7,3.7-3.1,2.3-6.1-5.2-11-6.4-22.4-3.4-34.3,5.6-22.4,25.9-38.4,50.2-38.6,31.7-.2,63.3,0,95-.2,4.2,0,5.1,1.6,5,5.3-.2,8.5,0,17,0,25.5,0,6.4,0,6.5-6.4,6.5-30,0-60,0-90,0-2.5,0-5,0-7.5.4-5.6.8-10.2,5.9-10.8,11.5-1,10.1,4.8,16.7,14.9,16.8,21.2.1,42.3,0,63.5,0Z" fill="#fefdfd" stroke-width="0"/><path d="m1000,.1c5.9,2.7,12.5,2.3,18.5,5,19.1,8.6,31.6,30.9,27.9,52.2-4.4,25.2-26.8,41.4-50.2,40.8-3.7-.1-7.3-1.1-10.7-2.3-2.6-.9-3.5-.2-3.5,2.3,0,14.7,0,29.3,0,44,0,3.2,2.2,3.2,4.5,3.2,12.2,0,24.3,0,36.5,0,15,0,30-.5,45,.6,30.5,2.2,57.5,13.1,81.3,32.2,17.1,13.7,30.3,30.4,40,50,10.5,21.2,15.4,43.5,15.2,67.1-.2,15.4-2.5,30.4-7.3,45-9.9,30.2-28.1,54.4-53.6,73.1-3.5,2.6-5.1,4.8-5,9.9.9,28-9.5,51.3-31.8,68.9-15.4,12.1-33,17.4-52.6,17.3-41.8-.3-83.6-.2-125.5,0-3.9,0-4.9-1-4.9-4.9.2-29,.1-58,0-87,0-3.1.3-4.7,4.2-4.7,42.7.2,85.3,0,128,.1,6.5,0,12,3.4,13.7,8.7,1.9,6.1,1.4,11.9-3.8,16.3-3.1,2.6-6.8,3.9-11,3.8-31,0-62,0-93-.1-4.7,0-6.5,1-6.3,6,.4,8.6.2,17.3,0,26,0,3.1.8,4.5,4.2,4.5,33.3-.1,66.7.1,100-.3,22.3-.3,42.3-18.7,46.6-40.5,2.2-11.5.7-22-4.2-32.3-1.4-2.9-.9-4.1,2.5-5.6,23.1-10.9,41.1-27.2,53.6-49.8,11.7-21.1,16.1-43.5,13.9-67.2-2.9-31.6-16.9-58-41.2-78.3-21.7-18.1-47-27.1-75.5-27.1-33.5,0-67,0-100.5.1-4.2,0-5.2-1.1-5.2-5.2.2-40.5.1-81,0-121.5,0-24.4,16-42.5,36-47.9,3.6-1,7.6-.4,11-2.5h3Zm-1.2,32.9c-9.7,0-16.7,6.9-16.6,16.4,0,9.2,7,16.5,16.3,16.3,11.3-.2,16.2-7.1,16.8-16.5.6-8.9-7.5-16.2-16.5-16.3Z" fill="#ea1f26" stroke-width="0"/><path d="m757,.1c0,.5,0,1.1,0,1.6-4.7-.4-9.4-.8-14-.1,0-.5,0-1,0-1.5,4.7,0,9.3,0,14,0Z" fill="#e5d1af" stroke-width="0"/><path d="m873.5,1307.2c-70.8,0-141.6,0-212.4.1-4.7,0-7-1.8-9.2-5.6-11.4-20.2-23-40.2-34.6-60.3-11.4-19.7-22.8-39.4-34.2-59.1-10.4-18-20.9-36-31.3-54-11.6-20.1-23-40.2-34.6-60.3-13.7-23.7-27.6-47.4-41.3-71.1-11.3-19.4-21.9-39.2-33.9-58.2-5-7.9-3.7-13.6.7-20.8,14.3-23.8,28-47.9,41.9-71.9,14.8-25.6,29.6-51.2,44.4-76.9,13.8-23.9,27.5-47.9,41.3-71.8,10.2-17.7,20.6-35.3,30.8-53,14.9-25.7,29.7-51.5,44.5-77.3,2.7-4.7,5.8-9.2,8.2-14.1,1.3-2.6,3-3,5.5-3,143.1,0,286.2,0,429.4,0,3.1,0,4.7,1,6.2,3.7,17.9,31.4,36,62.8,54.1,94.1,18.1,31.3,36.4,62.5,54.5,93.8,15.8,27.3,31.4,54.7,47.1,82.1,19.2,33.2,38.4,66.3,57.7,99.4,2.5,4.3,2.5,7.7,0,12.1-10.8,18-21.2,36.1-31.7,54.3-11.5,19.9-22.8,39.8-34.3,59.7-13.7,23.6-27.4,47.2-41.1,70.8-15.2,26.2-30.3,52.3-45.4,78.6-14.7,25.6-29.4,51.3-44.1,76.9-5.5,9.6-11.4,19-16.7,28.7-1.8,3.2-4.1,3.3-7,3.3-53,0-106,0-159,0-18.5,0-37,0-55.5,0Zm.6-30.1c19,0,38,0,57,0,46.7,0,93.3,0,140,0,3.1,0,5.1-.6,6.7-3.6,3.9-7.4,8.3-14.6,12.5-21.9,14.8-25.6,29.7-51.2,44.5-76.9,15.9-27.5,31.7-55,47.6-82.5,16.9-29.2,33.8-58.4,50.6-87.6,13.8-23.9,27.5-47.9,41.4-71.7,1.8-3,1.8-5,0-8-14.9-25.4-29.5-50.9-44.2-76.4-12.4-21.5-24.7-42.9-37.1-64.4-14.9-25.8-29.9-51.5-44.8-77.3-12.7-22.1-25.4-44.2-38.1-66.3-10.4-18.2-21-36.3-31.3-54.5-2.3-4.1-4.9-6-10.1-6-129.5.2-258.9.2-388.4,0-5.6,0-8.6,1.8-11.3,6.5-24.4,42.8-49,85.4-73.6,128.1-24,41.7-48.1,83.3-72.1,125-16.7,28.9-33.5,57.8-50.3,86.6-1.2,2-1.2,3.6,0,5.5,4.3,7.4,8.6,15,12.9,22.4,15.9,27.4,31.9,54.8,47.8,82.3,17.2,29.8,34.3,59.6,51.5,89.4,14.7,25.5,29.4,51,44.1,76.4,13.7,23.6,27.4,47.2,40.9,70.9,1.8,3.2,3.7,4.1,7.3,4.1,65.5-.1,131,0,196.5,0Z" fill="#ea1f26" stroke-width="0"/><path d="m771.3,1512.9c-25.3,0-50.7,0-76,0-24.4,0-42.2,10.6-51.4,33.3-8,19.8-2.1,44.2,17,58.6,9,6.8,19,10.2,30.4,10.1,32.3-.2,64.7-.1,97,0,3.7,0,4.8-.9,4.7-4.7-.3-8.7-.3-17.3,0-26,.2-4.2-.8-5.6-5.3-5.5-31.5.2-63,.2-94.5.1-10.2,0-16.5-7-15.4-17,.6-5.8,4.7-10.6,10.5-11.8,2.4-.5,5-.7,7.4-.7,41,0,82,0,123-.1,4.2,0,5.7.8,5.7,5.4-.2,29-.2,58,0,87,0,3.6-.7,4.8-4.6,4.8-43.3-.2-86.7,0-130-.2-32.5-.2-62.4-21.2-74.2-51.5-16.4-41.9,1.7-86.9,42.5-105.8,11.3-5.3,23.3-7.7,35.6-7.7,52.8-.2,105.6-.2,158.5,0,5.2,0,6.2-1.5,6.2-6.4-.2-40.7,0-81.3-.2-122,0-4.1,1-5.4,5.2-5.2,7.1.4,14.3.4,21.5,0,4.3-.2,5.6.8,5.6,5.4-.2,35.3-.1,70.7-.1,106,0,5.7.3,11.4,0,17-.3,4.4,1.4,5.2,5.4,5.2,44.2-.1,88.3-.2,132.5,0,12.8,0,25.6-.5,38.4,1.1,21.3,2.7,38.8,12.2,52.5,28.1,15.4,17.9,21.9,38.8,19.3,62.6-3.9,35.6-29.5,63.2-63.2,71.3-5.1,1.2-10.4,2-15.8,2-43.7,0-87.3,0-131,0-3.7,0-4.3-1.3-4.3-4.6.1-29.3.1-58.7,0-88,0-3.9,1.3-4.6,4.8-4.6,41.7.1,83.3,0,125,0,11.9,0,18.4,6.9,16.6,17.6-1.1,7-7.4,11.8-15.5,11.8-29,0-58,0-87,0-4.1,0-9.5-1.9-11.9.9-2,2.4-.7,7.6-.8,11.6,0,6.5.1,13,0,19.5,0,2.9.6,4,3.8,4,34.3-.1,68.7.6,103-.4,18-.5,31.4-10.9,39.7-26.7,12-22.7,5.3-48.1-12.4-62.9-9-7.5-19.3-11.9-30.8-12-54.7-.3-109.3,0-164-.2-3.4,0-4.2,1.2-4.2,4.3,0,48.8,0,97.7,0,146.5,0,2.8,1.1,4,3.6,5.1,14.7,6.6,24.2,17.9,27.6,33.6,5.9,27.2-11,52.3-37,57.9-25.1,5.4-51.6-9.1-57.6-37.6-4.3-20.3,4.1-41.5,25-52.2,5.2-2.6,6.7-5.4,6.6-10.9-.2-46.8-.2-93.7,0-140.5,0-5.2-1.4-6.3-6.4-6.3-26.8.3-53.7.1-80.5.1Zm103.1,184c-10.4-1.3-16.9,7.7-17,15.8-.1,9.1,6.9,16.6,16.5,16.9,8.8.3,16.9-7.8,16.9-16.6,0-8-7.4-17.5-16.4-16.1Z" fill="#ea1f26" stroke-width="0"/><path d="m421.2,371c24.4,1.1,48.7,13.7,64.4,40.5,15.5,26.4,15.9,53.9,1.9,80.7-12.5,24-27.1,46.9-40.6,70.3-14,24.2-27.8,48.5-41.9,72.6-1.7,2.9-1,3.8,1.6,5.3,18.1,10.4,36,20.9,54,31.4,18.1,10.5,36.3,21,54.5,31.3,3.1,1.7,3.3,3.2,1.5,6.2-4.1,6.6-8,13.4-11.7,20.2-1.4,2.6-2.8,3.2-5.5,1.6-29.1-17-58.3-33.8-87.4-50.7-7.2-4.1-14.5-8.1-21.5-12.3-2.5-1.5-3.5-1.3-5,1.2-8.3,14.5-16.9,28.9-25.2,43.3-10.5,18.1-20.8,36.4-31.3,54.5-9.3,16-18.2,32.2-28.1,47.9-10.2,16.1-25,26.5-43.2,32.3-23.5,7.5-46.1,4.9-67.1-7.4-16.2-9.5-27.9-23.4-34.7-41.3-4-10.6-6-21.3-5.7-32.6.5-15.6,5.9-29.7,13.7-43,11.7-20,23.3-40,34.9-60.1,9-15.6,17.9-31.1,26.8-46.8,1.4-2.5,2.9-2.4,5.2-1.1,20.2,11.8,40.5,23.5,60.8,35.3,5.4,3.1,10.9,6.3,16.4,9.2,2.9,1.5,3.2,3,1.6,5.8-18.3,31.6-36.5,63.2-54.7,94.8-3.2,5.6-6.3,11.2-9.8,16.6-3.2,4.9-11.3,9.9-19.9,4.6-6.2-3.9-9-12.4-5.2-19.2,10.9-19.1,22-38.1,33-57.2,5.1-8.8,10.1-17.7,15.3-26.5,1.8-3,1.6-4.8-1.8-6.7-8.3-4.5-16.4-9.3-24.4-14.2-3.5-2.1-4.4.4-5.6,2.5-7.7,13.3-15.4,26.6-23.1,39.9-8.5,14.8-17.1,29.5-25.4,44.3-15.2,27.2-2,63.1,28.8,73.2,24.4,8,50.9-5.4,61.6-25.4,14.7-27.5,31.2-54,46.8-81,11.1-19.1,22-38.3,33.2-57.4,1.8-3.1.1-4.1-2-5.3-12.3-7.1-24.6-14.3-36.9-21.4-24-13.9-48-27.8-72-41.7-5.9-3.4-11.8-6.7-17.6-10.2-2.3-1.3-4.2-1.2-6.4.4-29.1,21.7-70.5,4.6-76.5-31.2-3.8-22.5,11.2-46.6,32.9-53.6,25.9-8.4,53.9,6.4,61.8,33.3,1.7,5.9,2.3,12.2,1.2,18.3-.5,2.8.5,4.3,2.8,5.6,27.8,16,55.5,32,83.3,48,14.7,8.5,29.5,16.8,44.1,25.4,3.5,2.1,4.2-.5,5.3-2.3,5.8-9.8,11.5-19.7,17.1-29.6,10.4-18.2,20.8-36.4,31.2-54.6,11.1-19.3,23-38.3,33.4-58,13.5-25.4,3.1-58.3-24.6-70.1-25.8-11-53.3-.2-65.8,22.5-13.2,23.9-27.4,47.2-41.1,70.8-2.2,3.8-4.3,7.8-6.6,11.5-1.5,2.5-1.3,4.1,1.4,5.6,7.9,4.4,15.7,9.1,23.6,13.6,3.2,1.9,5.2,2,7.5-2,13.6-24.1,27.6-48.1,41.5-72.1,2.2-3.9,4.5-7.7,6.8-11.5,3.8-6.1,12.8-8.4,18.9-4.8,7,4.1,9.5,13,5.7,19.7-18.3,31.8-36.5,63.6-54.8,95.4-3.2,5.6-6.7,11-9.7,16.7-1.3,2.6-2.8,2.4-4.7,1.3-19.4-11.3-38.9-22.6-58.3-33.9-6.6-3.8-13.1-7.9-19.8-11.3-2.5-1.3-2.8-2.3-1.6-4.5,15.6-26.9,31.1-53.7,46.8-80.6,7.7-13.3,14.5-27.2,23.6-39.6,15.5-21.1,39.6-32.8,72.1-32.8Zm-242.6,166c0,9.3,7.3,16.7,16.3,16.6,8.8-.1,16.8-8.2,16.7-17-.1-8.9-7.7-16.3-16.7-16.3-9.6,0-16.3,6.9-16.3,16.7Z" fill="#ea1f26" stroke-width="0"/><path d="m240.6,1006.5c26.1.9,50.5,17.1,67.1,46.8,16.7,30,34.3,59.5,51.5,89.3,8.5,14.7,16.9,29.5,25.2,44.2,1.9,3.4,3.2,4.6,7.4,2.1,33.2-19.5,66.6-38.6,100-57.7,3.6-2.1,7.4-6.7,11-5.4,3,1.1,4.5,6.5,6.6,10,2.6,4.4,5.1,8.9,7.8,13.2,1.6,2.5.9,3.8-1.5,5.2-12.2,6.9-24.4,13.9-36.6,20.9-20.1,11.7-40.2,23.5-60.4,35.2-4,2.3-8.1,4.5-12.1,6.6-2.4,1.3-3.4,2.5-1.7,5.4,11.1,19,22,38.1,32.9,57.1,14.7,25.5,29.4,50.9,44.2,76.4,4.6,8,9.3,16,11.8,25,7.6,28,2.8,53.7-15.7,76.1-16.7,20.3-38.8,30.4-65.1,29.9-23.8-.4-43.9-10.1-59.9-27.8-8.1-8.9-13.2-19.7-19.2-29.9-13.1-22.4-26.1-44.9-39.1-67.4-5.4-9.3-10.5-18.6-15.9-27.9-1.3-2.3-1-3.4,1.3-4.7,25.9-14.9,51.8-29.8,77.7-44.8,2.6-1.5,3.8-1.2,5.4,1.5,17.8,31.1,35.8,62.2,53.7,93.3,3.3,5.7,6.6,11.4,9.9,17.1,5.2,9,2,17-5.1,20.9-6.2,3.3-14.5,2.7-19.6-6.1-13.3-22.8-26.4-45.8-39.6-68.7-2.9-5-6-9.9-8.7-15-1.3-2.5-2.6-2.9-5-1.4-8.6,5-17.2,9.9-25.9,14.8-2.3,1.3-2.1,3.1-.9,5.1,11,19,22,38,33,57,6,10.3,11.9,20.7,18.1,30.8,9.3,15.2,32.1,24.8,50.8,20.9,19.2-4,32.2-14.7,38.9-32.8,6.2-16.8,2.8-32.4-6.1-47.6-16.2-27.5-31.9-55.2-47.9-82.8-10.1-17.6-20.3-35.2-30.4-52.8-1.4-2.5-2.6-3.7-6.1-1.6-24.3,14.4-48.8,28.4-73.2,42.5-17.5,10.1-35,20.1-52.5,30-2.8,1.6-3.9,3.1-3.6,6.6,2.5,24.9-14,48-38.6,52.5-28.1,5.1-52.3-12.4-57.2-39.5-4.6-25.6,12-50.3,37.9-55.6,13.4-2.7,26.5-.5,37.8,8.1,2.5,1.9,4.7,2.2,7.7.5,33.9-19.6,67.8-39.1,101.7-58.7,8-4.6,16-9.3,23.9-13.9,2.8-1.6,3.8-2.7,1.6-6.4-13.8-23.3-27.1-46.9-40.6-70.4-13.5-23.5-26.9-47-40.6-70.4-10.6-18.1-32.6-28.2-53.3-23.9-28.7,5.9-45.6,31.9-40.6,59.9,2.1,12.2,9.3,21.8,15.1,32.1,12.4,21.9,25.1,43.5,37.7,65.3,3.4,5.9,3.2,6,9.3,2.5,7-4,14-8.2,21.2-11.9,4.1-2.1,4.1-4.3,2.1-7.8-7.1-12.1-14.2-24.3-21.2-36.5-9-15.6-18.2-31.1-26.9-46.7-3.9-7-.8-15.8,6.1-19.3,7.4-3.7,15.5-1.2,19.7,6,19.3,33.3,38.7,66.6,58,99.9,2.2,3.7,4.1,7.6,6.4,11.2,1.4,2.3,1.1,3.4-1.2,4.7-26.1,14.9-52.2,29.9-78.2,45-3,1.8-3.8.5-5.2-1.9-20.5-35.5-41-70.9-61.6-106.4-9.3-16-15-33-13.4-51.7,1.8-21.4,10.4-39.9,26.3-54.5,15.7-14.5,34.4-22,64-21.8Zm-61.9,314.6c-.3,10,7.4,16.4,16.1,16.4,9.7,0,16.3-7.1,16.7-16.6.4-8.7-7.9-16.8-16.7-16.8-7.4,0-16.9,5.9-16.2,17Z" fill="#ea1f26" stroke-width="0"/><path d="m1340.4,371.1c26.8,1,51.1,17,67.4,46.4,15.3,27.4,31.3,54.4,46.9,81.5,4.7,8.2,9.5,16.3,14.2,24.5,1.2,2.1,1.8,3.3-1.1,5-25.9,14.9-51.7,30-77.6,45.1-2,1.2-3.7,1.4-5.2-1.3-12.3-21.5-24.8-43-37.2-64.4-9.1-15.9-18.2-31.7-27.3-47.6-4-7-1.2-15.8,5.8-19.6,6.5-3.6,15.2-1.3,19,5.2,14.4,24.9,28.7,49.8,43.1,74.7,1.9,3.3,4,6.4,5.7,9.8,1.2,2.4,2.9,2.6,4.9,1.5,8.8-4.9,17.5-9.9,26.3-15,2.3-1.3,1.6-3.3.5-5.2-14.6-25.2-29.1-50.4-43.7-75.6-5-8.8-10.2-17.2-18.5-23.6-25.1-19.2-66.3-10.2-78.2,22.7-6,16.6-3.8,31.9,4.8,46.7,12.8,22.2,25.7,44.3,38.5,66.5,12.7,21.8,25.2,43.8,38,65.5,5.2,8.8,5.5,8.7,14.4,3.6,36.1-20.8,72.1-41.6,108.2-62.4,1-.6,2.1-1,3.1-1.5,8.4-3.9,12.6-8.7,12.8-19.8.3-29.7,29.4-51,58.6-44.3,24.4,5.6,40.9,29,37.1,53.9-3.2,20.7-15.3,34-34.6,40-14.6,4.6-29,1.8-41.5-7.5-2.9-2.1-4.9-1.8-7.6-.2-23.8,13.9-47.7,27.7-71.6,41.5-17.9,10.3-35.8,20.7-53.7,31-2.8,1.6-3.9,2.8-1.7,6.4,18.9,32.2,37.5,64.5,56.2,96.9,8.8,15.3,17.6,30.7,26.5,45.9,10.4,17.6,36.6,27.1,56.1,20.9,15.4-4.9,26.7-14,33.1-29,6.6-15.7,5.8-31.2-2.6-45.9-15.8-27.9-32-55.6-47.9-83.3-1.5-2.7-2.9-3.8-6.2-1.8-7.7,4.8-15.6,9.3-23.7,13.5-3.4,1.8-3.8,3.7-2,6.6,6,10.3,11.9,20.5,17.9,30.8,10.2,17.6,20.5,35.1,30.6,52.8,3.9,6.9,1,15.9-5.6,19.4-8,4.2-15.7,1.8-20.1-5.9-17.3-29.9-34.7-59.7-52-89.6-4.1-7.1-8.1-14.4-12.3-21.4-1.5-2.4-.8-3.3,1.3-4.5,15.6-8.9,31.2-18,46.8-27,10.5-6,21-12,31.4-18.2,2.3-1.4,3.3-1.6,4.8,1.2,17.1,29.8,34.6,59.4,51.5,89.3,6.5,11.5,14,22.4,18.6,34.9,5.7,15.6,7.1,31.3,3.1,47.5-6.9,27.5-23.6,46.9-49.7,57.8-13.4,5.6-27.5,6.9-42,4.8-23.7-3.4-42.4-15-56-34.1-8-11.3-14.2-23.9-21.1-35.9-15.1-26-30.1-52-45.1-78-5.8-10-11.6-20-17.3-30.1-3.3-5.9-3.4-6.1-8.9-2.9-18.2,10.5-36.4,21-54.6,31.6-17.6,10.2-35.1,20.3-52.6,30.5-2.9,1.7-4.1.1-5.4-2.2-3.6-6.5-7.1-13.1-11.2-19.3-2.2-3.3-2.1-4.9,1.4-6.8,12.1-6.8,24.1-13.8,36.1-20.7,22-12.7,44.1-25.5,66.1-38.2,3.1-1.8,7.9-2.7,8.6-6,.6-3.2-3-6.3-4.8-9.5-17.7-30.4-35.6-60.6-52.9-91.3-9.4-16.7-19.9-32.8-28.1-50.1-7.4-15.5-8.8-31.9-5.7-48.7,4.5-24.8,18-43.5,39.6-56.5,11.2-6.8,26.8-11,48.4-10.9Zm212.7,149.2c-9,0-16.7,7.8-16.5,16.6.2,8.8,7.9,16.5,16.7,16.7,9,.2,16.6-7.7,16.5-17.1,0-9.2-7.3-16.2-16.7-16.1Z" fill="#ea1f26" stroke-width="0"/><path d="m1598,1087.6c.3,18.2-5.6,33.3-14.1,47.7-12.9,21.9-25.4,44-38.2,66-7.8,13.5-15.7,26.9-23.3,40.5-1.7,3.1-3.1,1.9-5,.8-25.9-14.9-51.8-29.8-77.8-44.7-2.5-1.4-2.6-2.4-1.1-4.9,20.4-35.1,40.6-70.4,61-105.6,1.6-2.8,3-5.9,5.4-8.3,5.4-5.5,13.3-6.4,19.4-1.9,5.8,4.2,7.3,12.6,3.5,19.2-15.8,27.3-31.7,54.6-47.5,81.9-2.2,3.7-1.9,6,2.3,8.2,8,4.2,15.8,9,23.6,13.6,2,1.2,3.4,1.3,4.8-1.2,10.1-17.8,20.5-35.6,30.7-53.3,5.9-10.3,12-20.5,17.8-30.8,16.6-29,2.1-65.9-30.2-75.1-23.1-6.6-47.8,4.6-59.3,25.1-14.7,26.2-30.1,52.1-45.1,78.1-11.6,20.2-23,40.6-34.8,60.7-2.1,3.6-.5,4.7,2,6.1,19.4,11.2,38.9,22.4,58.3,33.6,20.2,11.6,40.4,23.3,60.5,34.9.3.2.6.3.8.5,5.9,4.6,10.8,4.7,17.9.4,25.4-15.6,59.4-2.4,69.2,25.7,9.6,27.6-6.5,58-36.4,63.7-24.2,4.6-45.7-8.1-54.3-30.2-3-7.7-4.2-15.7-2.8-23.9.4-2.4-.7-3.3-2.4-4.3-23.1-13.3-46.1-26.5-69.1-39.8-19.2-11.1-38.4-22-57.4-33.3-3.9-2.3-5.3-.9-7.1,2.2-7.8,13.8-15.8,27.5-23.7,41.2-11.6,20.2-23.3,40.3-34.9,60.5-7.5,13-15.1,26-22.4,39.2-15.4,27.9-1.1,63.4,29.4,72.9,23.6,7.3,48.6-3.1,60.4-24.1,14.4-25.8,29.7-51.1,44.4-76.8,6.4-11.2,7.2-8.6-3.8-15.2-6.1-3.7-12.3-7.2-18.5-10.7-2.6-1.5-4.3-1.5-6.2,1.7-15.9,27.8-31.9,55.6-48,83.3-4,6.8-11.3,9.2-18.4,6.6-5.6-2.1-9.1-8.9-8.6-15.9.2-3,2-5.3,3.4-7.7,9.9-17.4,20-34.7,30-52.1,10.6-18.3,21.2-36.5,31.6-54.8,2.1-3.7,3.3-4.8,7.6-2.2,25,14.8,50.2,29.3,75.5,43.5,3.7,2.1,3,3.6,1.4,6.5-15,25.9-29.6,52-44.9,77.7-8.3,13.9-15.3,28.6-25.1,41.5-12.7,16.8-29.6,27.4-50.3,30.9-35.9,6.1-64.3-7.1-84.5-36.7-12.2-17.8-14.9-38.3-11.4-59.6,2.4-14.8,10.2-27,17.4-39.6,13.1-23,26.3-45.9,39.5-68.8,11-19,21.9-38.1,33.2-56.9,2.3-3.8,1.6-5.1-1.9-7.1-24.3-13.8-48.4-27.8-72.6-41.7-11.9-6.9-23.7-13.9-35.6-20.7-2.4-1.4-2.9-2.6-1.4-5.1,4.2-6.9,8.3-13.9,12.1-20.9,1.6-2.9,3-3.2,5.8-1.5,26.1,15.2,52.3,30.3,78.5,45.4,10,5.8,20.1,11.4,29.9,17.5,3.1,1.9,4.2,1.1,5.7-1.5,9.1-15.9,18.3-31.7,27.5-47.6,11.7-20.3,23.5-40.6,35.2-60.9,6.8-11.7,13.2-23.7,20.4-35.2,11.9-18.9,29.2-31.1,50.8-35.8,37.6-8.2,71.1,7.2,90.3,39.5,7.3,12.3,11.2,26.1,10.7,39.6Zm-28.3,233.3c.2-10-7.7-16.7-16.6-16.7-8.8,0-16.9,8.1-16.5,16.9.5,9.5,7,16.3,16.4,16.4,9.4.1,16.6-6.6,16.6-16.6Z" fill="#ea1f26" stroke-width="0"/><path d="m980,375.7c-28,0-56,0-84,0-4.5,0-6,1.1-6,5.8.2,40.8,0,81.7.2,122.5,0,4.6-1.3,5.6-5.6,5.4-7.3-.3-14.7-.3-22,0-3.9.2-4.7-1.2-4.7-4.8.1-40.5,0-81,0-121.5q0-7.3-7.3-7.3c-52.2,0-104.3,0-156.5,0-35.3,0-61.4-15.8-77-47.3-10.2-20.5-10.8-42.1-2.6-63.8,8.6-22.5,24.2-38.1,46.2-47.5,10.4-4.5,21.4-5.9,32.6-6,42,0,84,0,126-.1,3.7,0,4.8.9,4.8,4.7-.2,29.3-.1,58.7,0,88,0,3.4-.7,4.5-4.3,4.5-42.7-.1-85.3,0-128-.1-8.3,0-14.3-6.2-14.3-14.5,0-8.4,5.8-14.3,14.4-14.3,31.7,0,63.3-.1,95,0,5,0,6.2-1.4,6-6.2-.4-8.8-.2-17.7,0-26.5,0-3.1-.6-4.5-4.1-4.5-32.2.1-64.3-.3-96.5.2-23.3.4-40.3,11.8-48.7,33.7-7.8,20.4-1.4,44.1,16.8,57.9,9,6.9,19.2,10.5,30.8,10.4,54-.2,108-.1,162,0,3.6,0,4.8-.8,4.8-4.7-.1-48.3-.1-96.7,0-145,0-3.3-1.3-4.6-3.9-5.9-15.1-6.9-24.6-18.7-27.7-34.7-3.3-17,1.4-32.4,14.1-44.6,13.7-13.1,30.6-16.2,48.1-11.1,18.7,5.5,32.4,22.2,33.4,42.6,1.1,22.1-8.7,37.8-28.2,47.6-3,1.5-3.9,3.2-3.9,6.4.1,48,.1,96,0,144,0,4.3,1.3,5.2,5.4,5.2,53.3-.1,106.6,0,160,0,23.2,0,39.4-10.9,48.4-32,10.2-23.9-1.3-52.3-23-63.6-8.7-4.5-17.7-6.5-27.3-6.5-31-.1-62,0-93-.1-4.4,0-5.8,1.2-5.6,5.6.3,8.8.4,17.7,0,26.5-.2,4.7,2,5,5.7,5,31.7,0,63.3,0,95,0,10.4,0,16.5,7.7,14.5,17.9-1.2,5.8-7.1,10.9-13.1,10.9-43.3,0-86.6,0-130,0-2.7,0-3.3-.9-3.3-3.4,0-30,0-60,0-90,0-2.8.9-3.7,3.7-3.7,43.3.1,86.6-.1,130,.2,25.7.2,46.9,10.7,63,30.7,14.1,17.5,20.3,37.7,17.6,60.2-3.8,32.1-21.2,54.1-50.1,67.4-10.1,4.6-20.9,6.2-32,6.2-25.3,0-50.7,0-76,0Zm-106-247.6c-9.6-.4-16.7,7.8-16.6,16.6,0,8.8,6.7,16.3,16.4,16.5,9.1.2,17-7.5,17-16.5,0-8.3-7.6-17.2-16.8-16.5Z" fill="#ea1f26" stroke-width="0"/><path d="m1511.4,917.5c-17.5-.5-38.5-4.6-58.3-14.2-2.6-1.2-4.5-1-7.2.7-26,16.5-53.2,18.8-81.5,6.1-17.8-8-29.9-21.8-39.3-38.5-12.7-22.4-25.8-44.6-38.7-66.9-7.6-13.2-15.1-26.4-22.8-39.6-1.2-2.1-1.1-3.1,1.4-4.5,25.9-14.8,51.6-29.7,77.3-44.7,2.9-1.7,4.2-1.5,6,1.7,13.9,24.3,28,48.3,42,72.5,7.6,13.1,15.4,26.2,22.4,39.6,3.5,6.8,1.5,14.2-6.7,18.9-6.1,3.5-14.8,1.1-18.6-5.4-8.9-15.3-17.7-30.6-26.6-45.9-7.3-12.6-14.6-25.1-21.7-37.7-1.4-2.4-2.5-3.5-5.4-1.8-8.5,5.1-17.2,9.9-25.8,14.9-2.1,1.2-2.3,2.6-1,4.9,16.3,28,32,56.3,48.7,84,10.7,17.8,27,26.1,48.2,24.7,15.8-1.1,28-8.1,37.1-20.6,2.7-3.8,4.3-3.8,8.1-1.2,13.7,9.5,28.8,15.8,45.4,18.9,11.8,2.2,23.5,2.7,35.2,1.2,20.9-2.6,39.9-10.4,56.7-23.3,18.1-14,31.1-31.8,38.8-53.3,5.4-15.2,7.2-30.8,6.4-47-1.1-23-10.4-42.8-21.9-62.1-15-25.3-29.6-50.8-44.3-76.2-1.5-2.5-1.6-4.3,1.7-6.2,31-17.6,61.9-35.6,92.8-53.4,9.1-5.2,17.7-11.4,28.4-13.6,20-4,36.1,2.7,48.4,18.1,19.1,23.9,9.4,60.8-18.4,73.4-27.4,12.4-58.9-2.8-66.8-31.3-1.1-3.8-2.6-3.7-5.2-2.2-12,6.9-24,13.9-36,20.8-3,1.7-2.7,3.6-1.3,6.1,12.2,21.2,24.5,42.3,36.5,63.5,7.8,13.8,12.8,28.6,15.8,44.2,3,15.6,3.5,31.1,1.3,46.6-3.5,24.3-12.2,46.6-26.5,66.6-14.1,19.7-32.1,35.1-53.7,46-20.9,10.5-43.2,16.1-71,16.1Zm186.8-304.4c9.5,0,16.4-6.9,16.5-16.2,0-9.2-7.8-17.1-16.8-16.6-10.7.6-16.2,7.6-16.4,16.5-.2,8.2,6.3,17,16.8,16.3Z" fill="#ea1f26" stroke-width="0"/><path d="m531.1,1402.6c0-2.5,0-5,0-7.5-.2-6.6-.2-6.4,6.5-7.1,20-1.9,38.2-19.1,42.7-38.7,4.4-18.7-2.8-33.5-11.7-48.6-14-23.8-27.7-47.7-41.4-71.7-1.7-3-3-4-6.5-1.9-8,4.9-16.2,9.5-24.4,13.9-3.8,2-2.2,4.3-.9,6.6,6.8,11.9,13.8,23.7,20.7,35.6,9.1,15.7,18.5,31.3,27.3,47.2,4,7.2,1.1,15.6-5.4,19.5-7.1,4.3-15.8,1.6-20.1-5.6-9.9-17-19.9-34-29.7-51-10.6-18.3-20.9-36.7-31.5-55-4.6-7.9-4.8-7.9,3.1-12.5,24-13.9,48-27.7,71.9-41.7,3.2-1.8,4.6-1.9,6.7,1.8,17.3,30.4,34.9,60.7,52.4,91,6.5,11.3,13.8,22.2,18.2,34.7,11.8,33.7-1.6,73.8-31.2,93.6-2.2,1.5-4.2,3.4-6.8,4.1-9,2.4-8.4,10.1-9.4,16.8-5.7,38.8-24,70.1-54.7,94.6-13.9,11.1-29.2,19.6-46,24.8-22.8,7.1-46.2,9.4-70.3,5.1-34-6.1-62.4-21.7-85.8-46.8-10.9-11.7-18.7-25.6-26.6-39.4-8.9-15.6-18-31.1-26.9-46.7-1.4-2.4-2.8-3.1-5.2-1.7-11.7,6.8-23.2,13.9-35.1,20.4-4.8,2.6-3.7,4.5-.8,7.6,8.7,9.4,12.9,20.7,12.8,33.5-.2,19.1-12.1,36.7-29.8,43.7-27.4,10.8-57.1-2.7-65.5-31.9-6.1-21.2,3.6-43.8,23-54.9,26.1-15,52.1-30,78.1-45,9.6-5.5,19.1-11.2,28.6-16.8,2.5-1.5,3.9-1,5.4,1.7,10.5,18.4,21,36.7,31.8,54.9,9.5,16,17.5,33,29.1,47.7,16.2,20.6,37.1,34.2,62.4,40.5,24.7,6.1,49.3,5,72.8-5,31.4-13.4,53.6-35.9,65.4-68.4,4.8-13.3,7.2-26.9,6.7-41Zm-356.4,90.3c9.4,0,16.6-7.3,16.5-16.8,0-9-7.5-16.3-16.6-16.3-9,0-16.5,7.5-16.6,16.4,0,9.2,7.5,16.7,16.7,16.7Z" fill="#ea1f26" stroke-width="0"/><path d="m84,767.8c.8-26.3,7.7-51.9,21.7-75.6,11.3-19,22.2-38.3,33.3-57.4,1.7-2.9,1.7-5-1.7-6.9-11.8-6.7-23.5-13.6-35.2-20.3-2.6-1.5-4.1-2.1-5.4,2.2-5.8,18.9-18.5,30.7-38.2,34.6-26.2,5.2-51.2-12.4-56-37.9-4.2-22,4.7-42,25.7-52.7,16.7-8.5,32.7-6.8,48.6,2.6,23.6,13.9,47.5,27.3,71.3,40.9,11.2,6.4,22.2,13.1,33.5,19.4,2.9,1.6,2.7,3.3,1.3,5.6-7.1,12.3-14.4,24.5-21.3,36.9-11.9,21.2-25.3,41.5-35.7,63.5-7.7,16.4-10,33.9-9.3,52,.7,17.4,5.2,33.6,13.3,49,10.3,19.5,25,34.7,44,45.9,22.6,13.3,47.2,18.3,73.1,15.2,19-2.3,36.6-9,52.2-20.3,3.6-2.6,5.2-2.4,7.7,1.1,13.9,19.3,33.6,24.3,54.9,19.5,16-3.6,26.3-14.9,34.1-29,10.1-18.2,20.6-36.2,31-54.3,4.6-8,9.2-16,14-23.9,1.5-2.5,1.1-4-1.2-5.3-8.3-4.8-16.7-9.5-25-14.4-2.9-1.7-4.3-1.2-6.1,2-15.9,27.8-32,55.5-48.1,83.2-3.8,6.5-12.3,8.9-18.5,5.6-7.1-3.8-10.7-12.1-6.3-19.8,11.7-20.5,23.5-41,35.3-61.5,9.5-16.5,19-32.9,28.3-49.4,1.8-3.3,3.2-4,6.8-1.8,22.2,13.1,44.7,25.9,67,38.7,3.3,1.9,6.4,4.1,9.8,5.7,2.7,1.2,2.4,2.6,1.3,4.6-13.4,23.2-26.8,46.4-40.2,69.6-8.3,14.3-16.3,28.6-24.9,42.7-16.8,27.5-41.7,40.8-73.7,40.4-16.1-.2-31-5.2-44.1-14.7-2.2-1.5-4-1.1-6-.2-21.3,10.2-43.9,15-67.5,14.2-30.7-1-58.5-11-83.3-29-23-16.8-39.5-38.9-50.1-65.1-7-17.3-10.2-35.6-10.5-55.5Zm-33.6-154.6c9.2,0,16.6-7.3,16.5-16.3,0-8.9-8.2-16.8-17.1-16.6-9.1.2-16.4,7.6-16.3,16.6,0,9.6,7,16.3,16.9,16.3Z" fill="#ea1f26" stroke-width="0"/><path d="m1329.8,1520.4c39.5.2,69.1-14.3,92.7-41.2,9.9-11.2,16.2-24.9,23.7-37.8,11.6-20,23.2-40,34.8-60,1.5-2.6,3.4-5,4.4-7.7,1.4-3.5,3.4-2.5,5.5-1.3,33.9,19.6,67.8,39.2,101.7,58.7,12.1,6.9,21.7,15.6,26.7,29.3,7.3,19.8-1.1,45.1-19,56.5-13,8.2-27.1,9.9-41.1,5.7-15-4.5-25.9-14.7-31.2-30.1-6.3-18.5-2.4-34.9,10.4-49.3,2.8-3.2,2.8-4.8-1-6.9-11.9-6.7-23.7-13.7-35.5-20.6-2.2-1.3-3.7-.5-4.9,1.6-8,13.9-16.1,27.7-23.9,41.6-11.5,20.4-23.1,40.5-41.1,56.2-14.6,12.7-30.9,22.5-49.1,28.9-22.4,7.9-45.5,10.9-69.1,7.5-35-5.1-64.8-20.5-89.3-46.3-20.1-21.2-31.7-46.5-37.3-74.8-.9-4.4-1.2-8.9-1.6-13.4-.2-2.6-1.3-3.9-3.7-5.2-24.3-12.4-39.4-31.8-45.2-58.8-4.9-22.9,1.3-43.1,12.8-62.6,10.7-18.1,21-36.4,31.5-54.5,9.9-17.2,19.9-34.3,29.7-51.5,1.5-2.5,2.7-2,4.7-.8,14.7,8.5,29.5,16.9,44.2,25.3,10.8,6.2,21.4,12.5,32.3,18.6,3.3,1.8,4.2,3,1.9,7-21.3,36.3-42.3,72.8-63.2,109.4-4.4,7.8-14.1,10.5-21.2,5.6-5.7-4-8.3-12.7-3.7-20.5,15.8-26.6,31-53.5,46.5-80.2,2.3-4,2.6-6.3-2.4-8.7-7.8-3.8-15.3-8.4-22.7-13-2.9-1.8-4.4-1.1-5.9,1.5-7.7,13.3-15.5,26.6-23.1,40-8.3,14.5-16.2,29.1-24.8,43.4-12.2,20.5-7.8,47.3,9.2,63,8.4,7.7,18.1,12.7,29.7,13.2,4.1.2,5.2,1.2,4.9,5.7-2.7,40.8,11.3,75,42.8,101,20.9,17.3,45.4,26.2,69.7,25.6Zm243.5-27.5c9.2,0,17-7.5,17-16.5,0-8.8-7.5-16.4-16.5-16.6-9.5-.2-16.8,7.1-16.7,16.6,0,9.4,6.9,16.4,16.2,16.5Z" fill="#ea1f26" stroke-width="0"/><path d="m1333.7,305c57.1,2.4,100.7,27.4,129.7,77.2,11.3,19.4,22.5,38.9,33.7,58.4,1.2,2.2,2.6,2.7,4.8,1.5,12.6-7.3,25.1-14.7,37.8-21.9,2.8-1.6,2-2.4.2-4.2-12.3-12.7-17.2-27.8-13.5-45.1,3.9-17.8,18.7-33.4,38.9-37.1,20.3-3.8,41.4,7.5,50.7,23.6,13,22.7,4.5,53.6-18.4,66.4-20.1,11.1-39.7,23-59.6,34.4-15.6,9-31.2,18-46.8,27-2.5,1.4-3.9,1.8-5.8-1.5-12.8-22.7-25.9-45.2-39.1-67.7-8.7-14.8-16.3-30.3-28.5-42.8-12.5-12.9-27-22.7-43.9-28.9-13.5-5-27.5-7.8-41.9-7.2-45.9,2-80.3,22.7-102.1,63.6-11,20.6-14.3,42.6-12.3,65.6.2,2.2,0,2.8-2.3,2.9-18.8,1.3-33.2,9.9-42.3,26.4-8.9,16.2-9,33.2,0,49.4,13.4,24.1,27.4,47.9,41.2,71.7,2.5,4.3,4.9,8.6,7.5,12.8,1.2,2,2.4,3,5.2,1.4,8.2-5,16.6-9.7,25-14.3,2.6-1.4,3.1-2.9,1.5-5.6-6-10.3-11.7-20.6-17.7-30.9-10.2-17.6-20.6-35.1-30.8-52.7-3.7-6.3-1-15.5,5-19.3,8.8-5.6,17.1-.8,20.3,4.7,17.9,30.9,35.6,61.8,53.4,92.8,3.7,6.4,7.4,12.9,11.3,19.2,1.5,2.3,1,3.3-1.2,4.5-19.7,11.2-39.3,22.6-58.9,33.8-6.6,3.8-13.3,7.4-19.8,11.5-2.3,1.4-2.9,1-4-1-10-17.6-20.2-35.2-30.3-52.8-9-15.6-17.7-31.3-27.1-46.7-8.3-13.7-15.6-27.7-18-43.7-1.3-9.2-.7-18.5,1.6-27.7,6.3-26,21.2-45.1,45.3-56.8,2-1,3-2.2,3.2-4.5,1.1-12.9,3.9-25.5,8.1-37.8,5.6-16.3,13.9-31,24.9-44.2,14.3-17.3,31.7-30.6,51.9-40.2,12.6-6,25.9-10.1,39.8-12.1,7.8-1.1,15.5-2.3,23.5-1.9Zm223.5,75.9c-.2,9.3,6.5,16.5,15.8,16.8,9.5.3,17.1-6.7,17.4-16,.3-8.7-7.6-16.9-16.6-17.1-8.8-.2-16.4,7.3-16.6,16.3Z" fill="#ea1f26" stroke-width="0"/><path d="m613.2,518.5c.2,18.9-5.9,34.2-14.5,48.9-15.2,26-30,52.1-45.1,78.1-5.4,9.4-11.1,18.8-16.4,28.2-1.2,2.1-1.7,1.9-3.6.8-26.1-15.1-52.2-30-78.3-45-2.4-1.4-3.3-2.4-1.5-5.6,21.3-36.5,42.4-73.2,63.6-109.8,5.1-8.8,13.2-11.2,21.3-6.1,6,3.8,8.5,12.6,3.5,21-15.9,26.9-31.3,54-47,81.1-1.8,3.1-1.4,4.9,2,6.6,8.2,4.3,16.3,8.9,24.2,13.7,2.9,1.8,4.2.9,5.6-1.4,14.5-25.2,28.9-50.5,43.4-75.6,4.3-7.5,8.4-14.7,10.3-23.5,3.2-14.9-.2-28-8.6-40-9.3-13.2-22.6-20.1-38.8-21-2.6-.2-2.7-.9-2.5-3.3,2.6-30.3-4.4-58.1-22.8-82.5-14-18.6-32.1-31.7-54-39.6-18.9-6.8-38.3-8.8-57.8-5.3-35.7,6.4-63.3,25.2-81.9,56.5-11.9,20-23.3,40.3-35,60.5-5.4,9.4-11.1,18.6-16.3,28.2-1.8,3.3-3.3,2.9-5.8,1.4-9.9-5.8-19.9-11.6-29.9-17.4-18.2-10.5-36.5-20.8-54.6-31.6-10.3-6.1-21.4-11-30.6-19.1-21.5-19.1-20.9-54.6,1.3-72.8,26.8-22,66.4-10.6,77,21.6,5.9,17.9,2.4,33.9-10.1,47.9-4.4,4.9-4.5,4.8,1.3,8.2,11.3,6.5,22.6,13.1,33.9,19.6,2.8,1.6,4.3,1.4,6.1-1.8,13-22.8,25.7-45.9,39.7-68,14-22.1,33.3-38.9,56.7-50.6,23.1-11.6,47.7-17.1,73.6-15.9,17.7.8,34.7,4.8,51.1,11.7,20.2,8.5,37.5,20.9,52.3,36.9,16.3,17.6,27.1,38.1,33.3,61.2,2.3,8.7,3.8,17.5,4.6,26.4.2,2.1,1,3.3,2.8,4.2,21.6,10.3,36.1,26.8,43.5,49.5,2.6,8.1,4.7,16.3,4.1,23.4Zm-422-137.2c0-9.2-7.9-17.1-16.8-16.8-8.8.2-16.4,8.1-16.4,16.9,0,9.1,7.4,16.3,16.7,16.3,9.3,0,16.5-7.1,16.5-16.3Z" fill="#ea1f26" stroke-width="0"/><path d="m232.7,940.3c21.5.1,42.1,4.5,61.7,13.6,3.1,1.5,5.7,1.1,8.8-.8,17.4-11,36.1-15.8,56.9-12.7,25.2,3.8,44.4,16.5,58.1,37.5,8.5,13.2,15.9,27.1,23.8,40.7,14,24.3,27.9,48.7,42,73,1.5,2.5,1.8,3.7-1.1,5.4-25.7,14.8-51.4,29.8-77.1,44.7-2.7,1.6-4.3,1.2-6-1.7-12.4-21.9-24.9-43.6-37.5-65.4-8.8-15.3-17.4-30.8-26.5-45.9-3.6-6-1.1-16,5.4-19.3,7-3.6,15.3-2,19.5,5,6.6,10.9,12.8,22,19.2,33,9.7,16.9,19.5,33.8,29.2,50.7,1.4,2.4,3.2,2.8,5.4,1.5,8.6-4.9,17.1-9.9,25.7-14.7,2.5-1.4,2.1-3,.9-4.9-11.4-19.6-22.8-39.2-34.2-58.8-5.9-10.1-11-20.8-18-30.2-20-26.9-61.6-27.2-81.8.9-2.5,3.4-4.1,4.2-7.7,1.6-15.3-11.1-32.4-17.3-51.1-20.1-23.9-3.6-46.5.5-67.6,11.3-31.8,16.2-52.5,41.7-60.9,76.6-6.5,27-4.2,53.2,8.2,78,7.2,14.4,15.8,28.2,23.8,42.2,10.3,17.9,20.7,35.7,31.1,53.6,1.6,2.8,1.3,4.1-1.9,6-33.6,19.2-67,38.6-100.4,58.2-11.4,6.7-23.3,11.4-36.8,9.4-18.3-2.8-31.6-12.6-38.6-29.8-8.6-21.2-1.1-43,14.6-56.1,21.3-17.8,57.8-11.8,71.4,12.4,2.3,4.1,4.6,8.2,5.5,12.7.8,4.1,2.5,3.6,5.1,2.1,6-3.5,12.1-6.9,18.1-10.3,5.7-3.3,11.3-6.8,17.2-9.9,3.4-1.8,3.6-3.9,1.9-6.8-6.8-11.7-13.7-23.5-20.4-35.2-8.4-14.6-17.7-28.8-24-44.4-4.6-11.4-7.2-23.3-9.1-35.5-3.5-22-.8-43.6,6-64.4,12.5-38.3,36.8-67.1,72.5-86,21.4-11.4,44.4-17.2,68.7-17Zm-182.8,336.7c9.6,0,17.1-7.1,17.1-16.4,0-8.6-7.9-16.5-16.5-16.7-9.1-.1-16.9,7.6-16.9,16.7,0,9.4,6.9,16.3,16.3,16.3Z" fill="#ea1f26" stroke-width="0"/><path d="m1664,1090.2c-.6,26.4-7.8,52.3-22.3,76.3-11.3,18.7-21.8,37.8-32.7,56.7-1.6,2.8-1.6,4.6,1.6,6.4,11.7,6.6,23.2,13.4,34.8,20.1,3,1.7,4.8,2.5,6.2-2.2,9.1-30.1,41.9-44.1,69.4-29.3,15.5,8.4,24.2,21.8,25.2,40.1,1.4,25-15.3,45.3-39.1,50.1-12.1,2.5-23.7,0-34.5-6.2-22-12.8-44.1-25.5-66.1-38.2-13.4-7.7-26.8-15.6-40.3-23.1-3.3-1.8-2-3.8-.9-5.6,6.8-11.9,13.9-23.7,20.7-35.6,11.3-19.6,23.5-38.7,33.6-58.9,15.8-31.4,16.8-64.3,3.3-96.8-13.1-31.5-36.3-53.3-68.4-64.9-23.9-8.6-48.2-9.3-72.8-1.6-12.2,3.8-23.3,9.2-33.7,16.4-2.6,1.8-4.1,2.1-6.2-.9-13.5-18.9-32.2-25.6-54.4-20.7-14.1,3.1-24.9,11.7-32.2,24.5-15.9,27.7-31.8,55.3-47.9,82.8-1.5,2.6-1.5,3.9,1.3,5.5,8.2,4.6,16.3,9.3,24.4,14.1,3.2,1.9,4.9,1.1,6.7-2.1,10.3-18.1,20.9-36.1,31.3-54.1,5.4-9.3,10.6-18.6,16-27.9,4.3-7.4,12.8-9.7,19.7-6,7.1,3.9,9.8,12.8,5.3,20.5-19.8,34.2-39.5,68.4-59.3,102.7-1.2,2.2-2.7,4.2-3.6,6.5-1.7,4.4-3.8,4.5-7.9,2.2-20-11.9-40.3-23.4-60.4-35-5.3-3.1-10.5-6.2-15.9-9.2-2-1.1-2.5-2.1-1.3-4.2,14.7-25.2,29.4-50.5,44-75.7,7.9-13.6,15.2-27.5,23.8-40.6,12.9-19.8,31.5-31.4,55-35.5,21.8-3.8,41.4,1.2,59.6,13.2,2.6,1.7,5,1.3,7.5.1,24.3-11.3,49.9-15.5,76.6-13,25,2.4,47.9,10.9,68.7,25.1,24.4,16.7,42.3,38.7,53.7,66,7.5,18.1,11.2,37,11.5,58Zm34,186.9c9.7,0,16.7-6.9,16.6-16.4,0-9-7.4-16.6-16.4-16.6-9.4,0-16.7,7.1-17,16.5-.3,8.1,6.6,17.1,16.7,16.5Z" fill="#ea1f26" stroke-width="0"/><path d="m993.3,1348c20.2,0,40.3,0,60.5,0,18.9,0,36.3,5,51.6,16.5,15.3,11.5,25.7,26.4,30.6,45,2.4,9.2,3.9,18.6,2.4,28.1-.5,3.2,1.7,4.2,3.4,5.4,10.3,7.1,19.2,15.6,27.4,25,18,20.6,28.9,44.5,33.3,71.4,3.4,21.1,3,42.1-2.8,62.8-11.5,41-35.8,72-73.3,92.6-22.3,12.2-46.3,17.7-71.5,17.9-22.5.2-45,.1-67.5,0-4,0-5.5.8-5.5,5.2.3,13.3.2,26.7,0,40,0,4.2,1.4,4.8,5,3.8,26.8-7.2,54.5,10.7,59.1,38,4.1,24.3-8.3,46.1-31.5,54.4-24.3,8.7-52-3.6-61.2-28.1-2.3-6.2-3.4-12.5-3.4-18.9-.1-40.3,0-80.7-.2-121,0-4.1.9-5.3,5.2-5.3,33.2.2,66.3.2,99.5,0,19.6,0,38.2-4.1,55.6-13.4,29.5-15.8,49-39.6,58.2-71.9,5.5-19.1,6-38.5,1.4-57.6-8.4-34.9-28.7-60.8-60.8-77.3-7.8-4-7.8-3.8-4.8-11.7,9.8-25.1-2.8-53.9-25.7-64.1-7.8-3.5-15.6-5.5-24-5.5-31.2,0-62.3,0-93.5-.1-4.4,0-5.4,1.6-5.3,5.5.2,8.7.3,17.3,0,26-.2,4.7,1.7,5.9,6.2,5.9,31-.2,62-.1,93,0,11.3,0,17.3,7,15.5,17.4-1.1,6.2-6.2,10.6-12.9,11.1-2.8.2-5.7,0-8.5,0-40,0-80,0-120,0-3.9,0-5.1-.9-5-4.9.2-29.2.2-58.3,0-87.5,0-4.1,1.3-4.9,5.1-4.8,21.5.2,43,0,64.5,0Zm5.2,476.9c8.6.4,16.7-6.6,16.7-16.6,0-9.5-7.5-16.5-16.4-16.5-9.6,0-16.8,6.9-16.8,16.4,0,9.5,7.1,16.7,16.4,16.7Z" fill="#ea1f26" stroke-width="0"/><path d="m756.2,1445.1c-21.2,0-42.3,0-63.5,0-10.2,0-15.9-6.7-14.9-16.8.6-5.6,5.2-10.7,10.8-11.5,2.5-.4,5-.4,7.5-.4,30,0,60,0,90,0,6.3,0,6.4,0,6.4-6.5,0-8.5-.1-17,0-25.5,0-3.7-.8-5.3-5-5.3-31.7.2-63.3,0-95,.2-24.2.2-44.5,16.2-50.2,38.6-3,11.9-1.9,23.3,3.4,34.3,1.4,3,1.4,4.3-2.3,6.1-30.2,14.4-51.2,37.4-62.1,69.2-5.9,17.2-6.9,35-4.5,53.1,3.7,27.2,15.9,50,35.7,68.7,16.4,15.4,35.8,25.1,58,29.3,7.7,1.4,15.5,2.1,23.3,2.1,33.2.2,66.3.2,99.5,0,4.3,0,5.2,1.3,5.2,5.3-.1,39.8,0,79.7-.1,119.5-.1,21.5-9.2,37.8-29.3,47.2-19.9,9.3-45.7,2.3-58.5-16-15-21.4-12.2-47.7,7.5-64.9,12.4-10.8,27.1-14.3,43.2-10.2,3.6.9,5.1.4,5-3.8-.2-13.5-.2-27,0-40.5,0-4-1.4-4.6-4.9-4.6-23.7.1-47.3.4-71,0-30.6-.6-58.6-9.4-83.8-27.2-26.4-18.7-44.6-43.4-55.2-73.7-7.5-21.3-9.5-43.4-6.7-65.4,5.5-42.8,25.9-77.2,61.2-102.5,3.1-2.3,3.9-4.5,3.7-8.6-1-18.6,3.9-35.8,14.5-51.2,12.7-18.4,30.5-29.4,52.1-34.4,5.9-1.4,12.2-1.4,18.4-1.4,41.5-.1,83,0,124.5-.2,4.6,0,5.4,1.4,5.4,5.6-.2,28.8-.2,57.7,0,86.5,0,4-.8,5.3-5.1,5.3-21-.2-42-.1-63-.1Zm-6.7,379.8c9.4,0,16.5-7.2,16.5-16.6,0-9.5-7.1-16.5-16.7-16.4-9.1,0-16.2,7.1-16.4,16.3-.2,9.2,7.3,16.7,16.5,16.8Z" fill="#ea1f26" stroke-width="0"/><path d="m743,1.6c4.7-.7,9.4-.3,14,.1,19.1,1.8,38.1,20,40.3,40.1.6,5.5,1,10.9,1,16.4,0,37.8,0,75.7.1,113.5,0,4.5-1.2,5.5-5.6,5.5-33.8-.2-67.7-.5-101.5,0-40.3.6-72.3,17.6-95.6,50.7-16.4,23.3-22.8,49.5-19.7,77.3,4.9,43.8,28.2,75.2,67.7,94.3,3.5,1.7,3.3,3,2,5.4-3.6,6.4-5,13.6-5.2,20.6-.2,11.6,2.8,22.7,10.1,32.1,10.6,13.7,24.6,20.6,42.1,20.5,31.5-.1,63,0,94.5,0,3.8,0,5.3-.9,5.2-5-.3-8.7-.3-17.3,0-26,.2-4.6-1.5-5.5-5.8-5.5-31.3.2-62.7.1-94,0-8.7,0-14.5-5.7-15.2-13.8-.7-8,6.8-15.4,14.7-15.3,33.5.4,67,.2,100.5.2,9.2,0,18.3,0,27.5,0,2.8,0,4.1.4,4.1,3.7-.1,29.7-.1,59.3,0,89,0,3.3-1.2,3.8-4.1,3.8-44,0-88,.4-132-.3-28.6-.4-50.5-14.2-66-37.8-10.1-15.4-14.4-32.7-12.5-51.2.3-2.5-.9-3.5-2.7-4.7-18.9-13.6-34.5-30.3-45.7-50.9-7.6-14-12.5-29-15.6-44.6-2.8-14.2-2.8-28.6-1.4-42.8,1.4-14.7,5.4-28.9,11.5-42.5,7.8-17.6,18.3-33.3,32.1-46.7,20.2-19.8,44.2-32.8,71.9-39,12-2.7,24-3.3,36.2-3.4,21.5-.1,43-.1,64.5,0,4.3,0,5.8-1.1,5.7-5.6-.3-13.5-.1-27,0-40.5,0-3.2-.5-4.3-4.2-3.2-29.3,8.9-62.7-14.8-60.8-49.6,1.2-22.6,18.8-42.4,41.9-44.8Zm7,31.4c-9.6-.2-16.8,6.8-17,16.2-.1,9.1,6.9,16.3,16.2,16.6,9.2.4,16.7-6.7,16.9-15.8.2-9.7-6.6-16.9-16.1-17Z" fill="#ea1f26" stroke-width="0"/><path d="m998.8,33c9,0,17.1,7.3,16.5,16.3-.6,9.4-5.5,16.3-16.8,16.5-9.3.2-16.3-7.1-16.3-16.3,0-9.5,7-16.5,16.6-16.4Z" fill="#fefdfd" stroke-width="0"/><path d="m874,1277.1c-65.5,0-131,0-196.5,0-3.6,0-5.5-1-7.3-4.1-13.5-23.7-27.3-47.3-40.9-70.9-14.7-25.5-29.4-50.9-44.1-76.4-17.2-29.8-34.3-59.6-51.5-89.4-15.9-27.5-31.9-54.9-47.8-82.3-4.3-7.4-8.5-15-12.9-22.4-1.1-1.9-1.1-3.5,0-5.5,16.8-28.8,33.6-57.7,50.3-86.6,24.1-41.6,48.1-83.3,72.1-125,24.6-42.7,49.2-85.3,73.6-128.1,2.7-4.7,5.6-6.5,11.3-6.5,129.5.2,258.9.2,388.4,0,5.2,0,7.8,1.9,10.1,6,10.3,18.2,20.9,36.3,31.3,54.5,12.7,22.1,25.3,44.2,38.1,66.3,14.9,25.8,29.9,51.5,44.8,77.3,12.4,21.4,24.7,42.9,37.1,64.4,14.7,25.5,29.3,51,44.2,76.4,1.8,3,1.8,5,0,8-13.9,23.8-27.6,47.8-41.4,71.7-16.9,29.2-33.7,58.4-50.6,87.6-15.9,27.5-31.7,55-47.6,82.5-14.8,25.6-29.7,51.2-44.5,76.9-4.2,7.3-8.6,14.5-12.5,21.9-1.6,3-3.5,3.6-6.7,3.6-46.7,0-93.3,0-140,0-19,0-38,0-57,0Zm-23-578.2c-5.8-2.9-11.4-.7-17.3,0-7.8.8-15.4,2.5-22.6,4.8-9.1,3-18.6,5.2-27.4,9.5-9.5,4.6-19.2,8.8-28.2,14.1-11.7,6.9-22.7,14.8-33.1,23.8-13.4,11.7-25.6,24.3-36.2,38.5-6.9,9.1-12.8,19-18.2,29.1-5.9,11-10.7,22.4-15,34.1-4.8,12.8-7.2,26.2-9.7,39.6-1.9,10.6-1.4,21.6-3.2,32.4-1.3,7.8,2.2,15.3,1.8,23-.4,10,2,19.6,3.6,29.2,1.8,11.3,5.9,22,9.4,32.9,3.7,11.8,9.6,22.6,15.3,33.4,8.1,15.3,18.9,28.7,30,42,9.3,11.1,20.2,20.2,31.4,29,11.6,9.2,24.2,17.1,37.7,23.5,14.1,6.7,28.4,12.6,43.5,16.7,6.8,1.8,13.6,3.4,20.6,4.4,9.6,1.4,19.2,2.7,28.9,3.2,12.8.7,25.5-.8,37.9-3.8,1.7,1.6,3.8,1,5.7.7,21.7-3,42.5-8.9,62.5-17.8,26.3-11.7,49.6-27.8,70-48.2,21.5-21.5,38.2-46.2,49.9-74.1,9.2-22,14.9-45,17-68.9,2-23.2,1-46.3-3.8-69-6.4-30-18.2-57.8-35.6-83.1-18.2-26.4-40.8-48.4-67.9-65.4-23.8-14.9-49.4-25.5-77.2-30.9-17.7-3.4-35.5-5.7-53.5-4.5-5.4.4-10.9,1.3-16.3,1.9Z" fill="#e5d1af" stroke-width="0"/><path d="m874.5,1696.9c9-1.3,16.4,8.1,16.4,16.1,0,8.8-8.1,16.9-16.9,16.6-9.5-.3-16.6-7.8-16.5-16.9.1-8.2,6.6-17.1,17-15.8Z" fill="#fefdfd" stroke-width="0"/><path d="m178.7,537c0-9.8,6.7-16.7,16.3-16.7,9,0,16.6,7.4,16.7,16.3.1,8.7-7.9,16.8-16.7,17-8.9.1-16.2-7.3-16.3-16.6Z" fill="#fefdfd" stroke-width="0"/><path d="m178.7,1321.1c-.7-11.1,8.8-16.9,16.2-17,8.8,0,17.1,8,16.7,16.8-.4,9.4-7.1,16.6-16.7,16.6-8.8,0-16.5-6.4-16.1-16.4Z" fill="#fefdfd" stroke-width="0"/><path d="m1553,520.3c9.4,0,16.6,6.9,16.7,16.1,0,9.4-7.5,17.3-16.5,17.1-8.7-.2-16.5-7.9-16.7-16.7-.2-8.8,7.5-16.5,16.5-16.6Z" fill="#fefdfd" stroke-width="0"/><path d="m1569.7,1320.9c0,9.9-7.2,16.7-16.6,16.6-9.4-.1-16-6.9-16.4-16.4-.5-8.8,7.6-17,16.5-16.9,8.8,0,16.7,6.8,16.6,16.7Z" fill="#fefdfd" stroke-width="0"/><path d="m874.1,128.2c9.2-.7,16.7,8.2,16.8,16.5,0,9-7.9,16.8-17,16.5-9.6-.2-16.3-7.7-16.4-16.5,0-8.8,7-17,16.6-16.6Z" fill="#fefdfd" stroke-width="0"/><path d="m1698.2,613.2c-10.5.6-17-8.2-16.8-16.3.2-8.9,5.8-15.9,16.4-16.5,9.1-.5,16.9,7.4,16.8,16.6,0,9.3-7,16.2-16.5,16.2Z" fill="#fefdfd" stroke-width="0"/><path d="m174.6,1492.9c-9.2,0-16.8-7.5-16.7-16.7,0-9,7.6-16.4,16.6-16.4,9.1,0,16.5,7.3,16.6,16.3,0,9.4-7.1,16.8-16.5,16.8Z" fill="#fefdfd" stroke-width="0"/><path d="m50.4,613.2c-9.8,0-16.8-6.7-16.9-16.3,0-9.1,7.2-16.4,16.3-16.6,9-.2,17.1,7.7,17.1,16.6,0,9-7.4,16.3-16.5,16.3Z" fill="#fefdfd" stroke-width="0"/><path d="m1573.4,1492.9c-9.3,0-16.2-7.1-16.2-16.5,0-9.5,7.3-16.7,16.7-16.6,8.9.2,16.5,7.8,16.5,16.6,0,9-7.8,16.5-17,16.5Z" fill="#fefdfd" stroke-width="0"/><path d="m1557.2,380.9c.2-9,7.9-16.5,16.6-16.3,9,.2,16.9,8.4,16.6,17.1-.3,9.3-8,16.3-17.4,16-9.3-.3-16-7.5-15.8-16.8Z" fill="#fefdfd" stroke-width="0"/><path d="m191.1,381.4c0,9.2-7.2,16.3-16.5,16.3-9.3,0-16.6-7.1-16.7-16.3,0-8.8,7.6-16.6,16.4-16.9,8.9-.2,16.8,7.6,16.8,16.8Z" fill="#fefdfd" stroke-width="0"/><path d="m49.8,1277.1c-9.5,0-16.3-6.9-16.3-16.3,0-9.1,7.8-16.8,16.9-16.7,8.7.1,16.5,8.1,16.5,16.7,0,9.3-7.5,16.4-17.1,16.4Z" fill="#fefdfd" stroke-width="0"/><path d="m1698,1277.1c-10.1.5-17-8.4-16.7-16.5.3-9.4,7.6-16.5,17-16.5,8.9,0,16.3,7.6,16.4,16.6,0,9.6-6.9,16.5-16.6,16.4Z" fill="#fefdfd" stroke-width="0"/><path d="m998.5,1824.9c-9.4,0-16.4-7.2-16.4-16.7,0-9.4,7.2-16.3,16.8-16.4,8.9,0,16.4,6.9,16.4,16.5,0,10-8.2,17-16.7,16.6Z" fill="#fefdfd" stroke-width="0"/><path d="m749.6,1824.9c-9.2,0-16.7-7.6-16.5-16.8.2-9.2,7.3-16.2,16.4-16.3,9.6,0,16.6,6.9,16.7,16.4,0,9.5-7.1,16.6-16.5,16.6Z" fill="#fefdfd" stroke-width="0"/><path d="m750,33c9.5.2,16.3,7.3,16.1,17-.2,9.1-7.7,16.2-16.9,15.8-9.3-.4-16.3-7.6-16.2-16.6.1-9.4,7.4-16.4,17-16.2Z" fill="#fefdfd" stroke-width="0"/><path d="m900.2,1158.2c-12.5,3-25.1,4.6-37.9,3.8-9.7-.6-19.3-1.8-28.9-3.2-7-1-13.8-2.6-20.6-4.4-15.1-4-29.4-10-43.5-16.7-13.5-6.4-26.2-14.3-37.7-23.5-11.1-8.8-22.1-17.9-31.4-29-11.1-13.3-21.9-26.7-30-42-5.7-10.8-11.6-21.6-15.3-33.4-3.4-10.9-7.5-21.6-9.4-32.9-1.6-9.7-4-19.3-3.6-29.2.3-7.7-3.2-15.2-1.8-23,1.8-10.7,1.3-21.7,3.2-32.4,2.4-13.3,4.9-26.8,9.7-39.6,4.4-11.7,9.1-23.1,15-34.1,5.4-10.1,11.3-20,18.2-29.1,10.6-14.1,22.8-26.8,36.2-38.5,10.4-9,21.4-16.9,33.1-23.8,9-5.3,18.8-9.5,28.2-14.1,8.7-4.3,18.2-6.5,27.4-9.5,7.1-2.3,14.8-4,22.6-4.8,5.9-.6,11.5-2.8,17.3,0-10.9,3.2-21.8,6.6-31.8,12.3-35.9,20.3-56.3,50.9-60.2,91.8-2.9,30.1,5.5,57.5,24.3,81.3,16.7,21.3,38.5,34.8,64.8,41.1,10.9,2.6,22,3,33.2,3.5,26.5,1.2,49.7,10.9,69.4,28.3,25.7,22.7,39.2,51.5,39.8,86,.3,15.3-2.1,30.2-7.9,44.3-8.8,21.7-22.5,39.6-41.8,52.9-12.3,8.5-25.6,15-40.5,17.7Zm-26.3-68.2c23.2.8,44.7-21.6,45.3-44,.6-24.4-22.2-46.1-44.4-46.1-25,0-45.5,21.8-45.8,44.6-.3,23.4,21.9,46.4,45,45.6Z" fill="#fefdfd" stroke-width="0"/><path d="m900.2,1158.2c14.9-2.7,28.2-9.2,40.5-17.7,19.3-13.3,33.1-31.3,41.8-52.9,5.7-14.2,8.1-29,7.9-44.3-.6-34.6-14.1-63.3-39.8-86-19.7-17.4-42.9-27.2-69.4-28.3-11.1-.5-22.3-.9-33.2-3.5-26.3-6.3-48-19.9-64.8-41.1-18.8-23.9-27.2-51.2-24.3-81.3,3.9-40.9,24.3-71.5,60.2-91.8,10-5.7,20.9-9,31.8-12.3,5.4-.7,10.8-1.6,16.3-1.9,18.1-1.2,35.8,1.1,53.5,4.5,27.7,5.4,53.4,15.9,77.2,30.9,27.1,17,49.7,39,67.9,65.4,17.4,25.3,29.3,53.1,35.6,83.1,4.8,22.7,5.7,45.8,3.8,69-2,23.9-7.7,46.8-17,68.9-11.7,27.9-28.4,52.7-49.9,74.1-20.4,20.4-43.7,36.5-70,48.2-20,8.9-40.8,14.8-62.5,17.8-1.9.3-4,.9-5.7-.7Zm-26.1-391.5c-24.9-.8-46.4,20.6-46.3,45.9,0,25.7,20.4,46.4,46,46.4,25.7,0,46.3-19.4,46.6-45.8.3-26.3-21.1-47-46.3-46.5Z" fill="#ea1f26" stroke-width="0"/><path d="m873.9,1090c-23.1.8-45.3-22.2-45-45.6.3-22.8,20.8-44.5,45.8-44.6,22.3,0,45.1,21.7,44.4,46.1-.6,22.4-22.1,44.9-45.3,44Z" fill="#e5d1af" stroke-width="0"/><path d="m874.1,766.7c25.2-.5,46.7,20.2,46.3,46.5-.3,26.4-21,45.9-46.6,45.8-25.6,0-46-20.7-46-46.4,0-25.3,21.4-46.7,46.3-45.9Z" fill="#e5d1af" stroke-width="0"/></svg>