<?xml version="1.0" encoding="UTF-8"?><svg id="Layer_1" xmlns="http://www.w3.org/2000/svg" width="730" height="464.4" viewBox="0 0 730 464.4"><path d="m365,330.4c54,0,97.8,1.5,97.8,3.4s-43.8,3.4-97.8,3.4-97.8-1.5-97.8-3.4,43.8-3.4,97.8-3.4" fill="#e6e7e8" fill-rule="evenodd" opacity=".8" stroke-width="0"/><path d="m385.8,5.5c1.5,0,2.7,1.2,2.7,2.7s-1.2,2.7-2.7,2.7-2.7-1.2-2.7-2.7,1.2-2.7,2.7-2.7m-20.8,21.3c-1.5,0-2.7-1.2-2.7-2.7s1.2-2.7,2.7-2.7,2.7,1.2,2.7,2.7-1.2,2.7-2.7,2.7Zm-20.8-21.3c-1.5,0-2.7,1.2-2.7,2.7s1.2,2.7,2.7,2.7,2.7-1.2,2.7-2.7-1.2-2.7-2.7-2.7Zm2.7,24.1h5.5V7.7h0c-.2-4.3-3.8-7.7-8.2-7.7s-8.2,3.7-8.2,8.2,3.7,8.2,8.2,8.2,1.8-.2,2.7-.5v8.2h-12.3c-3.3,0-6.6.7-9.7,2-2.9,1.2-5.6,3.1-7.9,5.3-2.3,2.3-4.1,4.9-5.3,7.9-1.3,3.1-2,6.4-2,9.7,0,6,2.2,11.7,5.5,15.7.5.7,1.1,1.3,1.7,1.9,1.2,1.2,2.4,2.2,3.8,3.1,0,.5,0,1.1,0,1.6,0,1.9.4,3.7,1.1,5.4.7,1.6,1.7,3.1,3,4.4,1.3,1.3,2.8,2.3,4.4,3,1.7.7,3.5,1.1,5.4,1.1h22.2v-16.4c-7.5,0-14.9,0-22.4,0-.6,0-1.1.3-1.6.7-.2.2-.4.5-.5.8-.1.3-.2.6-.2,1,0,.3,0,.7.2,1,.1.3.3.6.5.8.2.2.5.4.8.5.3.1.6.2,1,.2h16.8,0v5.9h-16.7c-1.1,0-2.3-.2-3.3-.7-1-.4-1.9-1-2.7-1.8-.8-.8-1.4-1.7-1.8-2.7-.4-1-.7-2.2-.7-3.3,0-1.1.2-2.2.7-3.3.2-.4.3-.7.5-1.1-.2,0-.5-.2-.7-.3-1.4-.6-2.8-1.4-4-2.4-.6-.5-1.2-1-1.8-1.6-1.8-1.8-3.2-3.9-4.1-6.2-1-2.4-1.5-4.9-1.5-7.5,0-2.6.5-5.2,1.5-7.5,1-2.3,2.4-4.4,4.1-6.1,1.8-1.8,3.9-3.2,6.1-4.1,2.4-1,5-1.5,7.5-1.5h12.3Zm31.8,44.2h0,16.8c.3,0,.7,0,1-.2.3-.1.6-.3.8-.5.2-.2.4-.5.5-.8.1-.3.2-.6.2-1,0-.3,0-.7-.2-1-.1-.3-.3-.6-.5-.8-.5-.5-1-.7-1.6-.7-7.5,0-14.9,0-22.4,0v16.4h22.2c1.9,0,3.7-.4,5.4-1.1,1.6-.7,3.1-1.7,4.4-3,1.3-1.3,2.3-2.8,3-4.4.7-1.7,1.1-3.5,1.1-5.4s0-1.1,0-1.6c1.4-.9,2.6-2,3.8-3.1.6-.6,1.2-1.3,1.7-1.9,3.4-4,5.5-9.7,5.5-15.7,0-3.3-.7-6.6-2-9.7-1.2-2.9-3.1-5.6-5.3-7.9-2.3-2.3-4.9-4.1-7.9-5.3-3.1-1.3-6.4-2-9.7-2h-12.3v-8.2c.8.3,1.7.5,2.7.5,4.5,0,8.2-3.7,8.2-8.2s-3.7-8.2-8.2-8.2-7.9,3.4-8.2,7.7h0v21.9h0s5.5,0,5.5,0h0s12.3,0,12.3,0c2.6,0,5.2.5,7.5,1.5,2.3,1,4.4,2.4,6.1,4.1,1.8,1.8,3.2,3.9,4.1,6.1,1,2.4,1.5,5,1.5,7.5,0,2.6-.5,5.2-1.5,7.5-1,2.3-2.4,4.4-4.1,6.2-.6.6-1.1,1.1-1.8,1.6-1.2,1-2.6,1.8-4,2.4-.2.1-.5.2-.7.3.2.3.4.7.5,1.1.4,1,.7,2.2.7,3.3,0,1.1-.2,2.3-.7,3.3-.4,1-1,1.9-1.8,2.7-.8.8-1.7,1.4-2.7,1.8-1,.4-2.2.7-3.3.7h-16.7s0-5.9,0-5.9Zm-11-11c9.4,0,18.7,0,28.1,0h.3c5.3-.3,10-3.6,12.1-8.5.7-1.7,1.1-3.5,1.1-5.4,0-1.9-.4-3.7-1.1-5.4-.7-1.6-1.7-3.1-3-4.4-1.3-1.3-2.8-2.3-4.4-3-1.7-.7-3.5-1.1-5.4-1.1h-22.2v16.4c7.5,0,14.9,0,22.4,0h0c.6,0,1.1-.3,1.5-.7.2-.2.4-.5.5-.8.1-.3.2-.6.2-1,0-.3,0-.7-.2-1-.1-.3-.3-.6-.5-.8-.2-.2-.5-.4-.8-.5-.3-.1-.6-.2-1-.2h-16.8v-5.9h16.8c1.1,0,2.3.2,3.3.7,1,.4,1.9,1,2.7,1.8.8.8,1.4,1.7,1.8,2.7.4,1,.7,2.2.7,3.3,0,1.1-.2,2.2-.7,3.3-.4,1-1,1.9-1.8,2.7-1.5,1.5-3.5,2.4-5.6,2.5h0s-28,0-28,0v-25.6c3.2-1.1,5.4-4.2,5.4-7.7s-3.7-8.2-8.2-8.2-8.2,3.7-8.2,8.2,2.3,6.6,5.4,7.7v25.6h-28s0,0,0,0c-2.1,0-4.1-1-5.6-2.5-.8-.8-1.4-1.7-1.8-2.7-.4-1-.7-2.2-.7-3.3,0-1.1.2-2.3.7-3.3.4-1,1-1.9,1.8-2.7.8-.8,1.7-1.4,2.7-1.8,1-.4,2.2-.7,3.3-.7h16.8v5.9s-16.8,0-16.8,0c-.3,0-.7,0-1,.2-.3.1-.6.3-.8.5-.2.2-.4.5-.5.8-.1.3-.2.6-.2,1,0,.3,0,.7.2,1,.1.3.3.6.5.8.4.4.9.7,1.5.7h0c7.5,0,14.9,0,22.4,0v-16.4h-22.2c-1.9,0-3.7.4-5.4,1.1-1.6.7-3.1,1.7-4.4,3-1.3,1.3-2.3,2.8-3,4.4-.7,1.7-1.1,3.5-1.1,5.4,0,1.8.4,3.7,1.1,5.4,2.1,4.9,6.8,8.2,12.1,8.5h.2s0,0,0,0c9.4,0,18.7,0,28.1,0v22.3h5.5v-22.3Z" fill="#ec1c24" fill-rule="evenodd" stroke-width="0"/><path d="m385.8,304.6c1.5,0,2.7-1.2,2.7-2.7s-1.2-2.7-2.7-2.7-2.7,1.2-2.7,2.7,1.2,2.7,2.7,2.7m-20.8-21.3c-1.5,0-2.7,1.2-2.7,2.7s1.2,2.7,2.7,2.7,2.7-1.2,2.7-2.7-1.2-2.7-2.7-2.7Zm-20.8,21.3c-1.5,0-2.7-1.2-2.7-2.7s1.2-2.7,2.7-2.7,2.7,1.2,2.7,2.7-1.2,2.7-2.7,2.7Zm2.7-24.1h5.5v21.9h0c-.2,4.3-3.8,7.7-8.2,7.7s-8.2-3.7-8.2-8.2,3.7-8.2,8.2-8.2,1.8.2,2.7.5v-8.2h-12.3c-3.3,0-6.6-.7-9.7-2-2.9-1.2-5.6-3.1-7.9-5.3-2.3-2.3-4.1-4.9-5.3-7.9-1.3-3.1-2-6.4-2-9.7,0-6,2.2-11.7,5.5-15.7.5-.7,1.1-1.3,1.7-1.9,1.2-1.2,2.4-2.2,3.8-3.1,0-.5,0-1.1,0-1.6,0-1.9.4-3.7,1.1-5.4.7-1.6,1.7-3.1,3-4.4,1.3-1.3,2.8-2.3,4.4-3,1.7-.7,3.5-1.1,5.4-1.1h22.2v16.4c-7.5,0-14.9,0-22.4,0-.6,0-1.1-.3-1.6-.7-.2-.2-.4-.5-.5-.8-.1-.3-.2-.6-.2-1,0-.3,0-.7.2-1,.1-.3.3-.6.5-.8.2-.2.5-.4.8-.5.3-.1.6-.2,1-.2h16.8,0v-5.9h-16.7c-1.1,0-2.3.2-3.3.7-1,.4-1.9,1-2.7,1.8-.8.8-1.4,1.7-1.8,2.7-.4,1-.7,2.2-.7,3.3,0,1.1.2,2.2.7,3.3.2.4.3.7.5,1.1-.2,0-.5.2-.7.3-1.4.6-2.8,1.4-4,2.4-.6.5-1.2,1-1.8,1.6-1.8,1.8-3.2,3.9-4.1,6.2-1,2.4-1.5,4.9-1.5,7.5,0,2.6.5,5.2,1.5,7.5,1,2.3,2.4,4.4,4.1,6.1,1.8,1.8,3.9,3.2,6.1,4.1,2.4,1,5,1.5,7.5,1.5h12.3Zm31.8-44.2h0,16.8c.3,0,.7,0,1,.2.3.1.6.3.8.5.2.2.4.5.5.8.1.3.2.6.2,1,0,.3,0,.7-.2,1-.1.3-.3.6-.5.8-.5.5-1,.7-1.6.7-7.5,0-14.9,0-22.4,0v-16.4h22.2c1.9,0,3.7.4,5.4,1.1,1.6.7,3.1,1.7,4.4,3,1.3,1.3,2.3,2.8,3,4.4.7,1.7,1.1,3.5,1.1,5.4s0,1.1,0,1.6c1.4.9,2.6,2,3.8,3.1.6.6,1.2,1.3,1.7,1.9,3.4,4,5.5,9.7,5.5,15.7,0,3.3-.7,6.6-2,9.7-1.2,2.9-3.1,5.6-5.3,7.9-2.3,2.3-4.9,4.1-7.9,5.3-3.1,1.3-6.4,2-9.7,2h-12.3s0,8.2,0,8.2c.8-.3,1.7-.5,2.7-.5,4.5,0,8.2,3.7,8.2,8.2s-3.7,8.2-8.2,8.2-7.9-3.4-8.2-7.7h0v-21.9h17.8c2.6,0,5.2-.5,7.5-1.5,2.3-1,4.4-2.4,6.1-4.1,1.8-1.8,3.2-3.9,4.1-6.1,1-2.4,1.5-5,1.5-7.5,0-2.6-.5-5.1-1.5-7.5-1-2.3-2.4-4.4-4.1-6.2-.6-.6-1.1-1.1-1.8-1.6-1.2-1-2.6-1.8-4-2.4-.2-.1-.5-.2-.7-.3.2-.3.4-.7.5-1.1.4-1,.7-2.2.7-3.3,0-1.1-.2-2.3-.7-3.3-.4-1-1-1.9-1.8-2.7-.8-.8-1.7-1.4-2.7-1.8-1-.4-2.2-.7-3.3-.7h-16.7v5.9Zm-11,11c9.4,0,18.7,0,28.1,0h.3c5.3.3,10,3.6,12.1,8.5.7,1.7,1.1,3.5,1.1,5.4,0,1.9-.4,3.7-1.1,5.4-.7,1.6-1.7,3.1-3,4.4-1.3,1.3-2.8,2.3-4.4,3-1.7.7-3.5,1.1-5.4,1.1h-22.2v-16.4c7.5,0,14.9,0,22.4,0h0c.6,0,1.1.3,1.5.7.2.2.4.5.5.8.1.3.2.6.2,1,0,.3,0,.7-.2,1-.1.3-.3.6-.5.8s-.5.4-.8.5c-.3.1-.6.2-1,.2h-16.8v5.9h16.8c1.1,0,2.3-.2,3.3-.7,1-.4,1.9-1,2.7-1.8.8-.8,1.4-1.7,1.8-2.7.4-1,.7-2.2.7-3.3,0-1.1-.2-2.2-.7-3.3-.4-1-1-1.9-1.8-2.7-1.5-1.5-3.5-2.4-5.6-2.5h0s-28,0-28,0v25.6c3.2,1.1,5.4,4.2,5.4,7.7s-3.7,8.2-8.2,8.2-8.2-3.7-8.2-8.2,2.3-6.6,5.4-7.7v-25.6h-28s0,0,0,0c-2.1,0-4.1,1-5.6,2.5-.8.8-1.4,1.7-1.8,2.7-.4,1-.7,2.2-.7,3.3,0,1.1.2,2.3.7,3.3.4,1,1,1.9,1.8,2.7.8.8,1.7,1.4,2.7,1.8,1,.4,2.2.7,3.3.7h16.8v-5.9s-16.8,0-16.8,0c-.3,0-.7,0-1-.2-.3-.1-.6-.3-.8-.5s-.4-.5-.5-.8c-.1-.3-.2-.6-.2-1,0-.3,0-.7.2-1,.1-.3.3-.6.5-.8.4-.4.9-.7,1.5-.7h0c7.5,0,14.9,0,22.4,0v16.4h-22.2c-1.9,0-3.7-.4-5.4-1.1-1.6-.7-3.1-1.7-4.4-3-1.3-1.3-2.3-2.8-3-4.4-.7-1.7-1.1-3.5-1.1-5.4,0-1.8.4-3.7,1.1-5.4,2.1-4.9,6.8-8.2,12.1-8.5h.2s0,0,0,0c9.4,0,18.7,0,28.1,0v-22.3h5.5v22.3Z" fill="#ec1c24" fill-rule="evenodd" stroke-width="0"/><path d="m504.9,98.3c.7,1.3.3,2.9-1,3.7-1.3.7-2.9.3-3.7-1-.7-1.3-.3-2.9,1-3.7,1.3-.7,2.9-.3,3.7,1m-28.8-7.4c-.7-1.3-.3-2.9,1-3.7,1.3-.7,2.9-.3,3.7,1,.7,1.3.3,2.9-1,3.7-1.3.7-2.9.3-3.7-1Zm8-28.6c-.7-1.3-2.4-1.7-3.7-1-1.3.7-1.7,2.4-1,3.7.7,1.3,2.4,1.7,3.7,1,1.3-.7,1.7-2.4,1-3.7Zm-19.5,14.4l2.7,4.8h0l18.5-10.7.4-.2h0c3.6-2.4,4.8-7.2,2.6-11-2.3-3.9-7.3-5.3-11.2-3-3.9,2.3-5.3,7.3-3,11.2.5.8,1.1,1.5,1.7,2.1l-7.1,4.1-6.2-10.7c-1.7-2.9-3.9-5.4-6.5-7.4-2.6-1.9-5.5-3.3-8.5-4.2-3.1-.8-6.3-1.1-9.5-.7-3.3.4-6.5,1.5-9.4,3.1-5.2,3-9,7.7-10.8,12.6-.3.8-.6,1.6-.8,2.5-.4,1.6-.7,3.2-.8,4.9-.5.2-1,.5-1.4.7-1.6.9-3,2.2-4.1,3.6-1.1,1.4-1.9,3-2.3,4.8-.5,1.7-.6,3.5-.4,5.3.2,1.8.8,3.6,1.8,5.2l8.3,14.4h0l2.7,4.8,14.2-8.2c-3.7-6.5-7.5-12.9-11.2-19.4-.4-.5-.8-.8-1.4-1-.3,0-.6-.1-1,0-.3,0-.6.2-.9.3-.3.2-.5.4-.7.7-.2.3-.3.6-.4.9,0,.3-.1.6,0,1,0,.3.1.6.3.9l8.4,14.5h0c0,0-5.1,2.9-5.1,2.9l-8.3-14.4c-.6-1-.9-2.1-1.1-3.2-.1-1.1,0-2.2.2-3.2.3-1.1.8-2,1.4-2.9.7-.9,1.5-1.7,2.5-2.2,1-.6,2.1-.9,3.2-1.1.4,0,.8,0,1.2,0,0-.3,0-.5,0-.8-.2-1.5-.1-3.1,0-4.6.1-.8.3-1.5.5-2.3.6-2.4,1.8-4.7,3.3-6.7,1.6-2.1,3.5-3.8,5.8-5.1,2.2-1.3,4.7-2.1,7.3-2.4,2.5-.3,5-.1,7.4.5,2.4.6,4.7,1.7,6.7,3.3,2.1,1.6,3.8,3.5,5.1,5.8l6.2,10.7h0Zm-22.3,49.7h0c0,0,8.4,14.4,8.4,14.4.2.3.4.5.7.7.3.2.6.3.9.4.3,0,.6.1,1,0,.3,0,.6-.1.9-.3.3-.2.5-.4.7-.7.2-.3.3-.6.4-.9.2-.6,0-1.2-.2-1.7-3.7-6.5-7.5-12.9-11.2-19.4l-14.2,8.2,2.7,4.8h0l8.3,14.4c.9,1.6,2.2,3,3.6,4.1,1.4,1.1,3,1.9,4.8,2.3,1.7.5,3.5.6,5.3.4,1.8-.2,3.6-.8,5.2-1.8.5-.3.9-.6,1.3-.9,1.5.7,3,1.3,4.6,1.7.8.2,1.7.4,2.5.5,5.1,1,11.2,0,16.3-3,2.9-1.7,5.4-3.9,7.4-6.5,1.9-2.5,3.3-5.5,4.2-8.5.8-3.1,1.1-6.3.7-9.5-.4-3.3-1.5-6.5-3.1-9.4l-6.2-10.7,7.1-4.1c.2.9.5,1.7,1,2.5,2.3,3.9,7.3,5.3,11.2,3,3.9-2.3,5.3-7.3,3-11.2-2.2-3.8-6.9-5.2-10.8-3.2h0s-.4.2-.4.2l-18.5,10.7h0l2.7,4.8h0s6.2,10.7,6.2,10.7c1.3,2.2,2.1,4.7,2.4,7.3.3,2.5.1,5-.5,7.4-.6,2.4-1.8,4.7-3.3,6.7-1.6,2.1-3.5,3.8-5.8,5.1-2.2,1.3-4.7,2.1-7.3,2.4-2.5.3-5,.1-7.4-.5-.8-.2-1.5-.5-2.2-.7-1.4-.6-2.8-1.3-4.1-2.2-.2-.2-.4-.3-.6-.5-.2.3-.4.7-.7,1-.7.9-1.5,1.7-2.5,2.2-1,.6-2.1.9-3.2,1.1-1.1.1-2.2,0-3.2-.2-1.1-.3-2-.8-2.9-1.4-.9-.7-1.7-1.5-2.2-2.5l-8.3-14.4,5.1-3Zm4-15c4.7,8.1,9.4,16.2,14,24.3h0c0,0,.1.2.1.2,2.8,4.4,8.1,6.9,13.4,6.3,1.8-.2,3.6-.8,5.2-1.8,1.6-.9,3-2.2,4.1-3.6,1.1-1.4,1.9-3,2.3-4.8.5-1.7.6-3.5.4-5.3-.2-1.8-.8-3.6-1.8-5.2l-11.1-19.2-14.2,8.2c3.7,6.5,7.5,12.9,11.2,19.4h0c.3.5.8.9,1.4,1,.3,0,.6.1,1,0,.3,0,.6-.2.9-.3.3-.2.5-.4.7-.7.2-.3.3-.6.4-.9,0-.3.1-.6,0-1,0-.3-.1-.6-.3-.9l-8.4-14.5,5.1-3,8.4,14.5c.6,1,.9,2.1,1.1,3.2.1,1.1,0,2.2-.2,3.2-.3,1.1-.8,2-1.4,2.9-.7.9-1.5,1.7-2.5,2.2-1,.6-2.1.9-3.2,1.1-1.1.1-2.2,0-3.2-.2-2-.5-3.8-1.8-4.9-3.6h0c0,0-14-24.3-14-24.3l22.2-12.8c2.6,2.2,6.3,2.6,9.4.9,3.9-2.3,5.3-7.3,3-11.2-2.3-3.9-7.3-5.3-11.2-3-3.1,1.8-4.6,5.3-4,8.6l-22.2,12.8-14-24.3h0c-1-1.9-1.2-4.1-.7-6.1.3-1.1.8-2,1.4-2.9.7-.9,1.5-1.7,2.5-2.2,1-.6,2.1-.9,3.2-1.1,1.1-.1,2.2,0,3.2.2,1.1.3,2,.8,2.9,1.4.9.7,1.7,1.5,2.2,2.5l8.4,14.5-5.1,3-8.4-14.5c-.2-.3-.4-.5-.7-.7-.3-.2-.6-.3-.9-.4-.3,0-.6-.1-1,0-.3,0-.6.1-.9.3-.3.2-.5.4-.7.7-.2.3-.3.6-.4.9-.2.6-.1,1.1.1,1.7h0c3.7,6.5,7.5,13,11.2,19.4l14.2-8.2-11.1-19.2c-.9-1.6-2.2-3-3.6-4.1-1.4-1.1-3-1.9-4.8-2.3-1.7-.5-3.5-.6-5.3-.4-1.8.2-3.6.8-5.2,1.8-1.6.9-3,2.2-4.1,3.6-3.2,4.2-3.7,10-1.3,14.7v.2c0,0,.1,0,.1,0,4.7,8.1,9.4,16.2,14,24.3l-19.3,11.2,2.7,4.8,19.3-11.2Z" fill="#ec1c24" fill-rule="evenodd" stroke-width="0"/><path d="m245.9,247.8c.7,1.3,2.4,1.7,3.7,1,1.3-.7,1.7-2.4,1-3.7-.7-1.3-2.4-1.7-3.7-1-1.3.7-1.7,2.4-1,3.7m8-28.6c-.7-1.3-2.4-1.7-3.7-1-1.3.7-1.7,2.4-1,3.7.7,1.3,2.4,1.7,3.7,1,1.3-.7,1.7-2.4,1-3.7Zm-28.8-7.4c-.7-1.3-.3-2.9,1-3.7,1.3-.7,2.9-.3,3.7,1,.7,1.3.3,2.9-1,3.7-1.3.7-2.9.3-3.7-1Zm22.2-9.7l2.7,4.8h0l-18.5,10.7-.4.2h0c-3.8,1.9-8.6.6-10.8-3.2-2.3-3.9-.9-8.9,3-11.2,3.9-2.3,8.9-.9,11.2,3,.5.8.8,1.7,1,2.5l7.1-4.1-6.2-10.7c-1.7-2.9-2.7-6.1-3.1-9.4-.4-3.2-.2-6.4.7-9.5.8-3.1,2.2-6,4.2-8.5,2-2.7,4.5-4.9,7.4-6.5,5.2-3,11.2-4,16.3-3,.9.1,1.7.3,2.5.5,1.6.4,3.1,1,4.6,1.7.4-.3.9-.6,1.3-.9,1.6-.9,3.4-1.5,5.2-1.8,1.8-.2,3.6,0,5.3.4,1.7.5,3.3,1.3,4.8,2.3,1.5,1.1,2.7,2.5,3.6,4.1l8.3,14.4h0l2.7,4.8-14.2,8.2c-3.7-6.5-7.5-12.9-11.2-19.4-.3-.6-.3-1.1-.2-1.7,0-.3.2-.6.4-.9.2-.3.5-.5.7-.7.3-.2.6-.3.9-.3.3,0,.7,0,1,0,.3,0,.6.2.9.4.3.2.5.5.7.7l8.4,14.5h0c0,0,5.1-3.1,5.1-3.1l-8.3-14.4c-.6-1-1.3-1.8-2.2-2.5-.9-.7-1.9-1.1-2.9-1.4-1.1-.3-2.1-.4-3.2-.2-1.1.1-2.2.5-3.2,1.1-1,.6-1.8,1.3-2.5,2.2-.2.3-.5.7-.7,1-.2-.2-.4-.3-.6-.5-1.3-.9-2.6-1.7-4.1-2.2-.7-.3-1.5-.5-2.2-.7-2.4-.6-4.9-.8-7.4-.5-2.6.3-5,1.2-7.3,2.4-2.2,1.3-4.2,3-5.8,5.1-1.5,2-2.6,4.3-3.3,6.7-.6,2.4-.8,4.9-.5,7.4.3,2.6,1.2,5.1,2.4,7.3l6.2,10.7h0Zm54.2,5.5h0c0,0,8.4,14.4,8.4,14.4.2.3.3.6.3.9,0,.3,0,.7,0,1,0,.3-.2.6-.4.9-.2.3-.5.5-.7.7-.3.2-.6.3-.9.3-.3,0-.6,0-1,0-.6-.2-1.1-.5-1.4-1-3.7-6.5-7.5-12.9-11.2-19.4l14.2-8.2,2.7,4.8h0l8.3,14.4c.9,1.6,1.5,3.4,1.8,5.2.2,1.8,0,3.6-.4,5.3-.5,1.7-1.3,3.3-2.3,4.8-1.1,1.5-2.5,2.7-4.1,3.6-.5.3-.9.5-1.4.7-.1,1.6-.4,3.3-.8,4.9-.2.8-.5,1.7-.8,2.5-1.7,4.9-5.6,9.7-10.8,12.6-2.9,1.7-6.1,2.7-9.4,3.1-3.2.4-6.4.2-9.5-.7-3.1-.8-6-2.2-8.5-4.2-2.7-2-4.9-4.5-6.5-7.4l-6.2-10.7-7.1,4.1c.7.6,1.3,1.3,1.7,2.1,2.3,3.9.9,8.9-3,11.2-3.9,2.3-8.9.9-11.2-3-2.2-3.8-1-8.6,2.6-10.9h0s.4-.2.4-.2l18.5-10.7h0l2.7,4.8h0l6.2,10.7c1.3,2.2,3,4.2,5.1,5.8,2,1.5,4.3,2.6,6.7,3.3,2.4.6,4.9.8,7.4.5,2.6-.3,5.1-1.2,7.3-2.4,2.2-1.3,4.2-3,5.8-5.1,1.5-2,2.6-4.3,3.3-6.7.2-.8.4-1.5.5-2.3.2-1.5.2-3.1,0-4.6,0-.3,0-.5,0-.8.4,0,.8,0,1.2,0,1.1-.1,2.2-.5,3.2-1.1,1-.6,1.8-1.3,2.5-2.2.7-.9,1.1-1.9,1.4-2.9.3-1.1.4-2.2.2-3.2-.1-1.1-.5-2.2-1.1-3.2l-8.3-14.4-5.1,3Zm-15-4c4.7,8.1,9.4,16.2,14,24.3h0c0,0,0,.2,0,.2,2.4,4.7,1.9,10.5-1.3,14.7-1.1,1.5-2.5,2.7-4.1,3.6-1.6.9-3.4,1.5-5.2,1.8-1.8.2-3.6,0-5.3-.4-1.7-.5-3.3-1.3-4.8-2.3-1.5-1.1-2.7-2.5-3.6-4.1l-11.1-19.2,14.2-8.2c3.7,6.5,7.5,12.9,11.2,19.4h0c.2.6.3,1.2.1,1.7,0,.3-.2.6-.4.9-.2.3-.5.5-.7.7-.3.2-.6.3-.9.3-.3,0-.7,0-1,0-.3,0-.6-.2-.9-.4-.3-.2-.5-.5-.7-.7l-8.4-14.5-5.1,3,8.4,14.5c.6,1,1.3,1.8,2.2,2.5.9.7,1.9,1.1,2.9,1.4,1.1.3,2.1.4,3.2.2,1.1-.1,2.2-.5,3.2-1.1,1-.6,1.8-1.3,2.5-2.2.7-.9,1.1-1.9,1.4-2.9.5-2,.3-4.2-.7-6.1h0c0,0-14-24.3-14-24.3l-22.2,12.8c.6,3.3-.9,6.8-4,8.6-3.9,2.3-8.9.9-11.2-3-2.3-3.9-.9-8.9,3-11.2,3.1-1.8,6.8-1.3,9.4.9l22.2-12.8-14-24.3h0c-1.1-1.8-2.9-3.1-4.9-3.7-1.1-.3-2.1-.4-3.2-.2-1.1.1-2.2.5-3.2,1.1-1,.6-1.8,1.3-2.5,2.2-.7.9-1.1,1.9-1.4,2.9-.3,1.1-.4,2.2-.2,3.2.1,1.1.5,2.2,1.1,3.2l8.4,14.5,5.1-3-8.4-14.5c-.2-.3-.3-.6-.3-.9,0-.3,0-.7,0-1,0-.3.2-.6.4-.9.2-.3.5-.5.7-.7.3-.2.6-.3.9-.3.3,0,.6,0,1,0,.6.2,1,.5,1.4,1h0c3.7,6.5,7.5,13,11.2,19.4l-14.2,8.2-11.1-19.2c-.9-1.6-1.5-3.4-1.8-5.2-.2-1.8,0-3.6.4-5.3.5-1.7,1.3-3.3,2.3-4.8,1.1-1.5,2.5-2.7,4.1-3.6,1.6-.9,3.4-1.5,5.2-1.8,5.3-.7,10.5,1.8,13.4,6.3v.2c.1,0,.1,0,.1,0,4.7,8.1,9.4,16.2,14,24.3l19.3-11.2,2.7,4.8-19.3,11.2Z" fill="#ec1c24" fill-rule="evenodd" stroke-width="0"/><path d="m484.1,247.8c-.7,1.3-2.4,1.7-3.7,1-1.3-.7-1.7-2.4-1-3.7.7-1.3,2.4-1.7,3.7-1,1.3.7,1.7,2.4,1,3.7m-8-28.6c.7-1.3,2.4-1.7,3.7-1,1.3.7,1.7,2.4,1,3.7-.7,1.3-2.4,1.7-3.7,1-1.3-.7-1.7-2.4-1-3.7Zm28.8-7.4c.7-1.3.3-2.9-1-3.7-1.3-.7-2.9-.3-3.7,1-.7,1.3-.3,2.9,1,3.7,1.3.7,2.9.3,3.7-1Zm-22.2-9.7l-2.7,4.8h0l18.5,10.7.4.2h0c3.8,1.9,8.6.6,10.8-3.2,2.3-3.9.9-8.9-3-11.2-3.9-2.3-8.9-.9-11.2,3-.5.8-.8,1.7-1,2.5l-7.1-4.1,6.2-10.7c1.7-2.9,2.7-6.1,3.1-9.4.4-3.2.2-6.4-.7-9.5-.8-3.1-2.2-6-4.2-8.5-2-2.7-4.5-4.9-7.4-6.5-5.2-3-11.2-4-16.3-3-.9.1-1.7.3-2.5.5-1.6.4-3.1,1-4.6,1.7-.4-.3-.9-.6-1.3-.9-1.6-.9-3.4-1.5-5.2-1.8-1.8-.2-3.6,0-5.3.4-1.7.5-3.3,1.3-4.8,2.3-1.5,1.1-2.7,2.5-3.6,4.1l-8.3,14.4h0l-2.7,4.8,14.2,8.2c3.7-6.5,7.5-12.9,11.2-19.4.3-.6.3-1.1.2-1.7,0-.3-.2-.6-.4-.9-.2-.3-.5-.5-.7-.7-.3-.2-.6-.3-.9-.3-.3,0-.7,0-1,0-.3,0-.6.2-.9.4-.3.2-.5.5-.7.7l-8.4,14.5h0c0,0-5.1-3.1-5.1-3.1l8.3-14.4c.6-1,1.3-1.8,2.2-2.5.9-.7,1.9-1.1,2.9-1.4,1.1-.3,2.2-.4,3.2-.2,1.1.1,2.2.5,3.2,1.1,1,.6,1.8,1.3,2.5,2.2.2.3.5.7.7,1,.2-.2.4-.3.6-.5,1.3-.9,2.6-1.7,4.1-2.2.7-.3,1.5-.5,2.2-.7,2.4-.6,4.9-.8,7.4-.5,2.6.3,5,1.2,7.3,2.4,2.2,1.3,4.2,3,5.8,5.1,1.5,2,2.6,4.3,3.3,6.7.6,2.4.8,4.9.5,7.4-.3,2.6-1.2,5.1-2.4,7.3l-6.2,10.7h0Zm-54.2,5.5h0c0,0-8.4,14.4-8.4,14.4-.2.3-.3.6-.3.9,0,.3,0,.7,0,1,0,.3.2.6.4.9.2.3.5.5.7.7.3.2.6.3.9.3.3,0,.6,0,1,0,.6-.2,1.1-.5,1.4-1,3.7-6.5,7.5-12.9,11.2-19.4l-14.2-8.2-2.7,4.8h0l-8.3,14.4c-.9,1.6-1.5,3.4-1.8,5.2-.2,1.8,0,3.6.4,5.3.5,1.7,1.3,3.3,2.3,4.8,1.1,1.5,2.5,2.7,4.1,3.6.5.3.9.5,1.4.7.1,1.6.4,3.3.8,4.9.2.8.5,1.7.8,2.5,1.7,4.9,5.6,9.7,10.8,12.6,2.9,1.7,6.1,2.7,9.4,3.1,3.2.4,6.4.2,9.5-.7,3.1-.8,6-2.2,8.5-4.2,2.7-2,4.9-4.5,6.5-7.4l6.2-10.7,7.1,4.1c-.7.6-1.3,1.3-1.7,2.1-2.3,3.9-.9,8.9,3,11.2,3.9,2.3,8.9.9,11.2-3,2.2-3.8,1-8.6-2.6-10.9h0s-.4-.2-.4-.2l-18.5-10.7h0l-2.7,4.8h0l-6.2,10.7c-1.3,2.2-3,4.2-5.1,5.8-2,1.5-4.3,2.6-6.7,3.3-2.4.6-4.9.8-7.4.5-2.6-.3-5.1-1.2-7.3-2.4-2.2-1.3-4.2-3-5.8-5.1-1.5-2-2.6-4.3-3.3-6.7-.2-.8-.4-1.5-.5-2.3-.2-1.5-.2-3.1,0-4.6,0-.3,0-.5,0-.8-.4,0-.8,0-1.2,0-1.1-.1-2.2-.5-3.2-1.1-1-.6-1.8-1.3-2.5-2.2-.7-.9-1.1-1.9-1.4-2.9-.3-1.1-.4-2.2-.2-3.2.1-1.1.5-2.2,1.1-3.2l8.3-14.4,5.1,3Zm15-4c-4.7,8.1-9.4,16.2-14,24.3h0c0,0,0,.2,0,.2-2.4,4.7-1.9,10.5,1.3,14.7,1.1,1.5,2.5,2.7,4.1,3.6,1.6.9,3.4,1.5,5.2,1.8,1.8.2,3.6,0,5.3-.4,1.7-.5,3.3-1.3,4.8-2.3,1.5-1.1,2.7-2.5,3.6-4.1l11.1-19.2-14.2-8.2c-3.7,6.5-7.5,12.9-11.2,19.4h0c-.2.6-.3,1.2-.1,1.7,0,.3.2.6.4.9.2.3.5.5.7.7.3.2.6.3.9.3.3,0,.7,0,1,0,.3,0,.6-.2.9-.4.3-.2.5-.5.7-.7l8.4-14.5,5.1,3-8.4,14.5c-.6,1-1.3,1.8-2.2,2.5-.9.7-1.9,1.1-2.9,1.4-1.1.3-2.2.4-3.2.2-1.1-.1-2.2-.5-3.2-1.1-1-.6-1.8-1.3-2.5-2.2-.7-.9-1.1-1.9-1.4-2.9-.5-2-.3-4.2.7-6.1h0c0,0,14-24.3,14-24.3l22.2,12.8c-.6,3.3.9,6.8,4,8.6,3.9,2.3,8.9.9,11.2-3,2.3-3.9.9-8.9-3-11.2-3.1-1.8-6.8-1.3-9.4.9l-22.2-12.8,14-24.3h0c1.1-1.8,2.9-3.1,4.9-3.7,1.1-.3,2.2-.4,3.2-.2,1.1.1,2.2.5,3.2,1.1,1,.6,1.8,1.3,2.5,2.2.7.9,1.1,1.9,1.4,2.9.3,1.1.4,2.2.2,3.2-.1,1.1-.5,2.2-1.1,3.2l-8.4,14.5-5.1-3,8.4-14.5c.2-.3.3-.6.3-.9,0-.3,0-.7,0-1,0-.3-.2-.6-.4-.9-.2-.3-.5-.5-.7-.7-.3-.2-.6-.3-.9-.3-.3,0-.6,0-1,0-.6.2-1,.5-1.4,1h0c-3.7,6.5-7.5,13-11.2,19.4l14.2,8.2,11.1-19.2c.9-1.6,1.5-3.4,1.8-5.2.2-1.8,0-3.6-.4-5.3-.5-1.7-1.3-3.3-2.3-4.8-1.1-1.5-2.5-2.7-4.1-3.6-1.6-.9-3.4-1.5-5.2-1.8-5.3-.7-10.5,1.8-13.4,6.3v.2c-.1,0-.1,0-.1,0-4.7,8.1-9.4,16.2-14,24.3l-19.3-11.2-2.7,4.8,19.3,11.2Z" fill="#ec1c24" fill-rule="evenodd" stroke-width="0"/><path d="m225.1,98.3c-.7,1.3-.3,2.9,1,3.7,1.3.7,2.9.3,3.7-1,.7-1.3.3-2.9-1-3.7-1.3-.7-2.9-.3-3.7,1m28.8-7.4c.7-1.3.3-2.9-1-3.7s-2.9-.3-3.7,1c-.7,1.3-.3,2.9,1,3.7,1.3.7,2.9.3,3.7-1Zm-8-28.6c.7-1.3,2.4-1.7,3.7-1,1.3.7,1.7,2.4,1,3.7-.7,1.3-2.4,1.7-3.7,1s-1.7-2.4-1-3.7Zm19.5,14.4l-2.7,4.8h0l-18.5-10.7-.4-.2h0c-3.6-2.4-4.8-7.2-2.6-11,2.3-3.9,7.3-5.3,11.2-3,3.9,2.3,5.3,7.3,3,11.2-.5.8-1.1,1.5-1.7,2.1l7.1,4.1,6.2-10.7c1.7-2.9,3.9-5.4,6.5-7.4,2.6-1.9,5.5-3.3,8.5-4.2,3.1-.8,6.3-1.1,9.5-.7,3.3.4,6.5,1.5,9.4,3.1,5.2,3,9,7.7,10.8,12.6.3.8.6,1.6.8,2.5.4,1.6.7,3.2.8,4.9.5.2,1,.5,1.4.7,1.6.9,3,2.2,4.1,3.6,1.1,1.4,1.9,3,2.3,4.8.5,1.7.6,3.5.4,5.3-.2,1.8-.8,3.6-1.8,5.2l-8.3,14.4h0l-2.7,4.8-14.2-8.2c3.7-6.5,7.5-12.9,11.2-19.4.4-.5.8-.8,1.4-1,.3,0,.6-.1,1,0,.3,0,.6.2.9.3.3.2.5.4.7.7.2.3.3.6.4.9,0,.3.1.6,0,1,0,.3-.1.6-.3.9l-8.4,14.5h0c0,0,5.1,2.9,5.1,2.9l8.3-14.4c.6-1,.9-2.1,1.1-3.2.1-1.1,0-2.2-.2-3.2-.3-1.1-.8-2-1.4-2.9-.7-.9-1.5-1.7-2.5-2.2-1-.6-2.1-.9-3.2-1.1-.4,0-.8,0-1.2,0,0-.3,0-.5,0-.8.2-1.5.1-3.1,0-4.6-.1-.8-.3-1.5-.5-2.3-.6-2.4-1.8-4.7-3.3-6.7-1.6-2.1-3.5-3.8-5.8-5.1-2.2-1.3-4.7-2.1-7.3-2.4-2.5-.3-5-.1-7.4.5-2.4.6-4.7,1.7-6.7,3.3-2.1,1.6-3.8,3.5-5.1,5.8l-6.2,10.7h0Zm22.3,49.7h0c0,0-8.4,14.4-8.4,14.4-.2.3-.4.5-.7.7-.3.2-.6.3-.9.4-.3,0-.6.1-1,0-.3,0-.6-.1-.9-.3-.3-.2-.5-.4-.7-.7-.2-.3-.3-.6-.4-.9-.2-.6,0-1.2.2-1.7,3.7-6.5,7.5-12.9,11.2-19.4l14.2,8.2-2.7,4.8h0l-8.3,14.4c-.9,1.6-2.2,3-3.6,4.1-1.4,1.1-3,1.9-4.8,2.3-1.7.5-3.5.6-5.3.4-1.8-.2-3.6-.8-5.2-1.8-.5-.3-.9-.6-1.3-.9-1.5.7-3,1.3-4.6,1.7-.8.2-1.7.4-2.5.5-5.1,1-11.2,0-16.3-3-2.9-1.7-5.4-3.9-7.4-6.5-1.9-2.5-3.3-5.5-4.2-8.5-.8-3.1-1.1-6.3-.7-9.5.4-3.3,1.5-6.5,3.1-9.4l6.2-10.7-7.1-4.1c-.2.9-.5,1.7-1,2.5-2.3,3.9-7.3,5.3-11.2,3-3.9-2.3-5.3-7.3-3-11.2,2.2-3.8,6.9-5.2,10.8-3.2h0s.4.2.4.2l18.5,10.7h0l-2.7,4.8h0s-6.2,10.7-6.2,10.7c-1.3,2.2-2.1,4.7-2.4,7.3-.3,2.5-.1,5,.5,7.4.6,2.4,1.7,4.7,3.3,6.7,1.6,2.1,3.5,3.8,5.8,5.1,2.2,1.3,4.7,2.1,7.3,2.4,2.5.3,5,.1,7.4-.5.8-.2,1.5-.5,2.2-.7,1.4-.6,2.8-1.3,4.1-2.2.2-.2.4-.3.6-.5.2.3.4.7.7,1,.7.9,1.5,1.7,2.5,2.2,1,.6,2.1.9,3.2,1.1,1.1.1,2.2,0,3.2-.2,1.1-.3,2-.8,2.9-1.4.9-.7,1.7-1.5,2.2-2.5l8.3-14.4-5.1-3Zm-4-15c-4.7,8.1-9.4,16.2-14,24.3h0c0,0-.1.2-.1.2-2.8,4.4-8.1,6.9-13.4,6.3-1.8-.2-3.6-.8-5.2-1.8-1.6-.9-3-2.2-4.1-3.6-1.1-1.4-1.9-3-2.3-4.8-.5-1.7-.6-3.5-.4-5.3.2-1.8.8-3.6,1.8-5.2l11.1-19.2,14.2,8.2c-3.7,6.5-7.5,12.9-11.2,19.4h0c-.3.5-.8.9-1.4,1-.3,0-.6.1-1,0-.3,0-.6-.2-.9-.3-.3-.2-.5-.4-.7-.7-.2-.3-.3-.6-.4-.9,0-.3-.1-.6,0-1,0-.3.1-.6.3-.9l8.4-14.5-5.1-3-8.4,14.5c-.6,1-.9,2.1-1.1,3.2-.1,1.1,0,2.2.2,3.2.3,1.1.8,2,1.4,2.9.7.9,1.5,1.7,2.5,2.2,1,.6,2.1.9,3.2,1.1,1.1.1,2.2,0,3.2-.2,2-.5,3.8-1.8,4.9-3.6h0c0,0,14-24.3,14-24.3l-22.2-12.8c-2.6,2.2-6.3,2.6-9.4.9-3.9-2.3-5.3-7.3-3-11.2,2.3-3.9,7.3-5.3,11.2-3,3.1,1.8,4.6,5.3,4,8.6l22.2,12.8,14-24.3h0c1-1.9,1.2-4.1.7-6.1-.3-1.1-.8-2-1.4-2.9-.7-.9-1.5-1.7-2.5-2.2-1-.6-2.1-.9-3.2-1.1-1.1-.1-2.2,0-3.2.2-1.1.3-2,.8-2.9,1.4-.9.7-1.7,1.5-2.2,2.5l-8.4,14.5,5.1,3,8.4-14.5c.2-.3.4-.5.7-.7.3-.2.6-.3.9-.4.3,0,.6-.1,1,0,.3,0,.6.1.9.3.3.2.5.4.7.7.2.3.3.6.4.9.2.6.1,1.1-.1,1.7h0c-3.7,6.5-7.5,13-11.2,19.4l-14.2-8.2,11.1-19.2c.9-1.6,2.2-3,3.6-4.1,1.4-1.1,3-1.9,4.8-2.3,1.7-.5,3.5-.6,5.3-.4,1.8.2,3.6.8,5.2,1.8,1.6.9,3,2.2,4.1,3.6,3.2,4.2,3.7,10,1.3,14.7v.2c0,0-.1,0-.1,0-4.7,8.1-9.4,16.2-14,24.3l19.3,11.2-2.7,4.8-19.3-11.2Z" fill="#ec1c24" fill-rule="evenodd" stroke-width="0"/><path d="m331.4,96.9l-33.6,58.2,33.6,58.2h67.2l33.6-58.2-33.6-58.2h-67.2Zm-3-5.2h73.1l18.3,31.7,18.3,31.7-18.3,31.7-18.3,31.7h-73.1l-18.3-31.7-18.3-31.7,18.3-31.7,18.3-31.7Z" fill="#ec1c24" fill-rule="evenodd" stroke-width="0"/><polygon points="331.4 96.9 297.8 155 331.4 213.2 398.6 213.2 432.1 155 398.6 96.9 331.4 96.9" fill="#e6d2b1" fill-rule="evenodd" stroke-width="0"/><path d="m365,166.7c-4.3,0-7.8,3.5-7.8,7.8s3.5,7.8,7.8,7.8,7.8-3.5,7.8-7.8-3.5-7.7-7.7-7.8h0Zm0-50.4h0c-21.4,0-38.8,17.4-38.8,38.8s17.4,38.8,38.8,38.8h0c10.7,0,19.4-8.7,19.4-19.4s-8.7-19.4-19.4-19.4.7,0,0,0c-10.7,0-19.4-8.7-19.4-19.4s8.7-19.4,19.4-19.4Z" fill="#fff" fill-rule="evenodd" stroke-width="0"/><path d="m365,143.4c4.3,0,7.8-3.5,7.8-7.8s-3.5-7.8-7.8-7.8-7.8,3.5-7.8,7.8,3.5,7.7,7.7,7.8h0Zm0,50.4h0c21.4,0,38.8-17.4,38.8-38.8s-17.4-38.8-38.8-38.8h0c-10.7,0-19.4,8.7-19.4,19.4s8.7,19.4,19.4,19.4-.7,0,0,0c10.7,0,19.4,8.7,19.4,19.4s-8.7,19.4-19.4,19.4Z" fill="#ec1c24" fill-rule="evenodd" stroke-width="0"/><path d="m234.5,397.3c0,11.4-5.2,16.5-17.1,16.5s-4.8-.2-8.6-.8v-10.6c3.4.5,4.5.6,6.2.6,2.5,0,4.6-.8,5.7-2.1.7-1.1,1.1-2.5,1.1-5.2v-37.4h12.8v39Z" fill="#ec1c24" stroke-width="0"/><path d="m288.1,413h-13.8l-3.4-11.2h-17.6l-3.4,11.2h-11.2l17.5-54.7h14.8l17.1,54.7Zm-20.1-21.3l-5.8-19.2-5.8,19.2h11.6Z" fill="#ec1c24" stroke-width="0"/><path d="m304.7,368.4v44.6h-10.7v-54.7h19.9l9.6,32.7,10.2-32.7h19.9v54.7h-12.9v-44.6l-13.8,44.6h-8.8l-13.4-44.6Z" fill="#ec1c24" stroke-width="0"/><path d="m377.3,413h-12.8v-54.7h12.8v54.7Z" fill="#ec1c24" stroke-width="0"/><path d="m443.4,402.2v10.8h-34.7v-54.7h13v43.9h21.7Z" fill="#ec1c24" stroke-width="0"/><path d="m462.7,413h-12.8v-54.7h12.8v54.7Z" fill="#ec1c24" stroke-width="0"/><path d="m515.7,413h-11l-21.4-37c0,.9,0,1.6,0,1.9,0,1.2.2,2.1.2,2.4v32.7h-9.9v-54.7h13.8l18.6,32.2c-.2-1.7-.2-2.5-.2-3.6v-28.6h9.9v54.7Z" fill="#ec1c24" stroke-width="0"/><path d="m19,456.3c-.4,2.6-.9,3.9-2.3,5.4-1.7,1.9-3.9,2.8-6.7,2.8s-5.1-1-6.7-3c-1.9-2.4-2.9-5.6-2.9-9.4,0-7.5,3.8-12.3,9.8-12.3s8,3,8.9,8.5l-4,.4c-.5-2-.8-2.8-1.5-3.7-.8-1-2.1-1.7-3.4-1.7-3.3,0-5.1,3.2-5.1,8.7s1.9,8.9,5.3,8.9,4.4-2.1,4.8-5.1l4,.5Z" fill="#929497" stroke-width="0"/><path d="m41.6,452.3c0,7.2-4.2,12.2-10.3,12.2s-5.8-1.3-7.5-3.6c-1.7-2.3-2.7-5.4-2.7-8.9,0-7.2,4.2-12.3,10.3-12.3s10.1,4.9,10.1,12.6Zm-14.5-6.6c-.8,1.6-1.3,3.9-1.3,6.4,0,5.7,1.9,8.8,5.5,8.8s3.7-1.1,4.5-2.8,1.1-3.4,1.1-5.8c0-6-1.8-9.1-5.5-9.1s-3.5.9-4.3,2.5Z" fill="#929497" stroke-width="0"/><path d="m59.7,464.2l-9.4-15.3c-.1-.2-.3-.6-.6-1.3,0-.2-.4-.7-.6-1.3v17.9h-3.5v-24h4.8l8.4,14.1c0,0,.4.7.7,1.3.3.6.5,1,.8,1.5v-17h3.4v24h-4Z" fill="#929497" stroke-width="0"/><path d="m83.1,464.2l-9.4-15.3c-.1-.2-.3-.6-.6-1.3,0-.2-.4-.7-.6-1.3v17.9h-3.5v-24h4.8l8.4,14.1c0,0,.4.7.7,1.3.3.6.5,1,.8,1.5v-17h3.4v24h-4Z" fill="#929497" stroke-width="0"/><path d="m92.4,464.2v-24h15.4v3.6h-11.1v6.5h8.9v3.5h-8.9v6.7h11.3v3.7h-15.6Z" fill="#929497" stroke-width="0"/><path d="m128.5,456.3c-.4,2.6-.9,3.9-2.3,5.4-1.7,1.9-3.9,2.8-6.7,2.8s-5.1-1-6.7-3c-1.9-2.4-2.9-5.6-2.9-9.4,0-7.5,3.8-12.3,9.8-12.3s8,3,8.9,8.5l-4,.4c-.5-2-.8-2.8-1.5-3.7-.8-1-2.1-1.7-3.4-1.7-3.3,0-5.1,3.2-5.1,8.7s1.9,8.9,5.3,8.9,4.4-2.1,4.8-5.1l4,.5Z" fill="#929497" stroke-width="0"/><path d="m135.9,464.2v-20.3h-6.4v-3.7h17.4v3.7h-6.4v20.3h-4.6Z" fill="#929497" stroke-width="0"/><path d="m149.6,464.2v-24h4.3v24h-4.3Z" fill="#929497" stroke-width="0"/><path d="m173.4,464.2l-9.4-15.3c-.1-.2-.3-.6-.6-1.3,0-.2-.4-.7-.6-1.3v17.9h-3.5v-24h4.8l8.4,14.1c0,0,.4.7.7,1.3.3.6.5,1,.8,1.5v-17h3.4v24h-4Z" fill="#929497" stroke-width="0"/><path d="m200.8,464.2h-1.9l-1.3-3.2c-1.5,2.5-3.5,3.6-6.5,3.6s-5.7-1.2-7.3-3.7c-1.6-2.3-2.4-5.5-2.4-8.7s.9-6.4,2.6-8.6c1.8-2.4,4.4-3.7,7.6-3.7s5.1,1,6.9,3.1c1.1,1.3,1.6,2.3,2.1,4.3l-3.8.6c-.3-1.3-.6-1.9-1.1-2.6-.9-1.2-2.4-1.8-4-1.8s-3.1.7-4.1,2c-1.2,1.5-1.7,3.5-1.7,6.5,0,6,1.9,9.1,5.7,9.1s3.8-1.1,4.7-3.1c.4-.9.5-1.3.5-2.5h-5v-3.5h9v12.3Z" fill="#929497" stroke-width="0"/><path d="m214.7,464.2v-24h9.8c2.3,0,3.6.3,5,1.2,2.1,1.3,3.2,3.5,3.2,6,0,4.3-3.2,7.3-7.8,7.3h-6v9.5h-4.3Zm9.4-13.2c2.6,0,4.1-1.4,4.1-3.6s-.4-2.1-1.1-2.7c-.7-.6-1.8-1-3.5-1h-4.7v7.2h5.1Z" fill="#929497" stroke-width="0"/><path d="m235.9,464.2v-24h15.4v3.6h-11.1v6.5h8.9v3.5h-8.9v6.7h11.3v3.7h-15.6Z" fill="#929497" stroke-width="0"/><path d="m273.8,452.3c0,7.2-4.2,12.2-10.3,12.2s-5.8-1.3-7.5-3.6c-1.7-2.3-2.7-5.4-2.7-8.9,0-7.2,4.2-12.3,10.3-12.3s10.1,4.9,10.1,12.6Zm-14.5-6.6c-.8,1.6-1.3,3.9-1.3,6.4,0,5.7,1.9,8.8,5.5,8.8s3.7-1.1,4.5-2.8c.7-1.4,1.1-3.4,1.1-5.8,0-6-1.8-9.1-5.5-9.1s-3.5.9-4.3,2.5Z" fill="#929497" stroke-width="0"/><path d="m277.8,464.2v-24h9.8c2.3,0,3.6.3,5,1.2,2.1,1.3,3.2,3.5,3.2,6,0,4.3-3.2,7.3-7.8,7.3h-6v9.5h-4.3Zm9.4-13.2c2.6,0,4.1-1.4,4.1-3.6s-.4-2.1-1.1-2.7c-.7-.6-1.8-1-3.5-1h-4.7v7.2h5.1Z" fill="#929497" stroke-width="0"/><path d="m299,464.2v-24h4.6v20.1h10.2v3.9h-14.8Z" fill="#929497" stroke-width="0"/><path d="m316.9,464.2v-24h15.4v3.6h-11.1v6.5h8.9v3.5h-8.9v6.7h11.3v3.7h-15.6Z" fill="#929497" stroke-width="0"/><path d="m367.6,464.2h-4.5l-4.8-17.6-4.4,17.6h-4.4l-6.6-24h4.6l4.6,17.5,4.3-17.5h4.4l4.8,17.5,4.5-17.5h3.8l-6.4,24Z" fill="#929497" stroke-width="0"/><path d="m376.9,464.2v-24h4.3v24h-4.3Z" fill="#929497" stroke-width="0"/><path d="m390.3,464.2v-20.3h-6.4v-3.7h17.4v3.7h-6.4v20.3h-4.6Z" fill="#929497" stroke-width="0"/><path d="m417.4,464.2v-10.4h-9.2v10.4h-4.3v-24h4.3v9.9h9.2v-9.9h4.3v24h-4.3Z" fill="#929497" stroke-width="0"/><path d="m437.7,457.5c.4,1.2.7,1.8,1.4,2.3,1,.8,2.6,1.3,4.5,1.3,2.9,0,4.8-1.3,4.8-3.4s-1-2.4-3-2.9l-4.6-1.2c-2.4-.6-3.7-1.3-4.5-2.4-.9-1.2-1.4-2.6-1.4-4.1,0-4.3,3.4-7.2,8.5-7.2s4.9.7,6.6,2.1c1,.9,1.6,1.6,2,3.1l-4.1,1c-.6-1.8-2.1-2.7-4.5-2.7s-4.1,1.2-4.1,3,1.1,2.3,3.3,2.9l4.1,1c2.6.7,4.1,1.5,5.1,3,.8,1.1,1.2,2.4,1.2,3.9,0,4.6-3.8,7.5-9.6,7.5s-5.5-.8-7.4-2.3c-1.2-1-1.8-1.9-2.4-3.9l4.2-.9Z" fill="#929497" stroke-width="0"/><path d="m475.7,464.2v-21l-6.7,21h-2.3l-6.7-21v21h-3.5v-24h6.8l5,15.5,5-15.5h6.8v24h-4.4Z" fill="#929497" stroke-width="0"/><path d="m499.5,464.2l-1.9-5.7h-9.2l-1.9,5.7h-3.7l8-24h5.3l8.1,24h-4.6Zm-6.6-19.9l-3.5,10.7h7l-3.5-10.7Z" fill="#929497" stroke-width="0"/><path d="m521.2,464.2l-3.7-9.9h-6.1v9.9h-4.3v-24h10.4c2.9,0,4.7.5,6.3,1.9,1.4,1.2,2.2,3,2.2,5.2s-1.3,5.1-4.3,6.4l4.2,10.6h-4.6Zm-4.4-13.3c3,0,4.6-1.3,4.6-3.7s-1.6-3.5-4.2-3.5h-5.8v7.2h5.4Z" fill="#929497" stroke-width="0"/><path d="m534.1,464.2v-20.3h-6.4v-3.7h17.4v3.7h-6.4v20.3h-4.6Z" fill="#929497" stroke-width="0"/><path d="m558.4,457.5c.4,1.2.7,1.8,1.4,2.3,1,.8,2.6,1.3,4.5,1.3,2.9,0,4.8-1.3,4.8-3.4s-1-2.4-3-2.9l-4.6-1.2c-2.4-.6-3.7-1.3-4.5-2.4-.9-1.2-1.4-2.6-1.4-4.1,0-4.3,3.4-7.2,8.5-7.2s4.9.7,6.6,2.1c1,.9,1.6,1.6,2,3.1l-4.1,1c-.6-1.8-2.1-2.7-4.5-2.7s-4.1,1.2-4.1,3,1.1,2.3,3.3,2.9l4.1,1c2.6.7,4.1,1.5,5.1,3,.8,1.1,1.2,2.4,1.2,3.9,0,4.6-3.8,7.5-9.6,7.5s-5.5-.8-7.4-2.3c-1.2-1-1.8-1.9-2.4-3.9l4.2-.9Z" fill="#929497" stroke-width="0"/><path d="m596.4,452.3c0,7.2-4.2,12.2-10.3,12.2s-5.8-1.3-7.5-3.6c-1.7-2.3-2.7-5.4-2.7-8.9,0-7.2,4.2-12.3,10.3-12.3s10.1,4.9,10.1,12.6Zm-14.5-6.6c-.8,1.6-1.3,3.9-1.3,6.4,0,5.7,1.9,8.8,5.5,8.8s3.7-1.1,4.5-2.8c.7-1.4,1.1-3.4,1.1-5.8,0-6-1.8-9.1-5.5-9.1s-3.5.9-4.3,2.5Z" fill="#929497" stroke-width="0"/><path d="m600.4,464.2v-24h4.6v20.1h10.2v3.9h-14.8Z" fill="#929497" stroke-width="0"/><path d="m634.5,455.6c0,3.6-.4,5-2,6.6s-3.7,2.3-6.4,2.3-5-.8-6.4-2.3c-1.4-1.4-1.9-3.1-1.9-6.3v-15.7h4.4v15.4c0,1.9.3,3.1,1,3.9s2,1.3,3.4,1.3,2.9-.6,3.6-1.5c.5-.7.9-2.1.9-3.7v-15.4h3.4v15.4Z" fill="#929497" stroke-width="0"/><path d="m643.3,464.2v-20.3h-6.4v-3.7h17.4v3.7h-6.4v20.3h-4.6Z" fill="#929497" stroke-width="0"/><path d="m657,464.2v-24h4.3v24h-4.3Z" fill="#929497" stroke-width="0"/><path d="m685.8,452.3c0,7.2-4.2,12.2-10.3,12.2s-5.8-1.3-7.5-3.6c-1.7-2.3-2.7-5.4-2.7-8.9,0-7.2,4.2-12.3,10.3-12.3s10.1,4.9,10.1,12.6Zm-14.5-6.6c-.8,1.6-1.3,3.9-1.3,6.4,0,5.7,1.9,8.8,5.5,8.8s3.7-1.1,4.5-2.8c.7-1.4,1.1-3.4,1.1-5.8,0-6-1.8-9.1-5.5-9.1s-3.5.9-4.3,2.5Z" fill="#929497" stroke-width="0"/><path d="m703.9,464.2l-9.4-15.3c-.1-.2-.3-.6-.6-1.3,0-.2-.4-.7-.6-1.3v17.9h-3.5v-24h4.8l8.4,14.1c0,0,.4.7.7,1.3.3.6.5,1,.8,1.5v-17h3.4v24h-4Z" fill="#929497" stroke-width="0"/><path d="m714.8,457.5c.4,1.2.7,1.8,1.4,2.3,1,.8,2.6,1.3,4.5,1.3,2.9,0,4.8-1.3,4.8-3.4s-1-2.4-3-2.9l-4.6-1.2c-2.4-.6-3.7-1.3-4.5-2.4-.9-1.2-1.4-2.6-1.4-4.1,0-4.3,3.4-7.2,8.5-7.2s4.9.7,6.6,2.1c1,.9,1.6,1.6,2,3.1l-4.1,1c-.6-1.8-2.1-2.7-4.5-2.7s-4.1,1.2-4.1,3,1.1,2.3,3.3,2.9l4.1,1c2.6.7,4.1,1.5,5.1,3,.8,1.1,1.2,2.4,1.2,3.9,0,4.6-3.8,7.5-9.6,7.5s-5.5-.8-7.4-2.3c-1.2-1-1.8-1.9-2.4-3.9l4.2-.9Z" fill="#929497" stroke-width="0"/></svg>