<?xml version="1.0" encoding="UTF-8"?><svg id="Layer_1" xmlns="http://www.w3.org/2000/svg" width="37.3in" height="7.2in" viewBox="0 0 2689 519"><path d="m1860,0c276.3,0,552.7,0,829,0v519H0V0C600.6,0,1201.3,0,1802,0c0,.5,0,1,0,1.5-.1,10.1-.4,20.3-.3,30.4,0,49.9.1,99.8.2,149.6-.6,1.5-1.1,3.1.7,4.2,0,1.6,0,3.2.1,4.8-.8,0-1.6,0-2.5,0-5.4-9.2-10.9-18.5-16.2-27.7-11.4-19.7-22.8-39.5-34.2-59.3-11.6-20-23.2-40-34.7-60-8.1-14-16.1-28.1-24.3-42.2h-81.5v326.4h58.1c-.6-72.9.8-145.5-.8-218.2,2.4-.1,3,1.6,3.8,3,4.6,8,9.3,15.9,13.9,23.9,11.9,20.6,23.7,41.3,35.6,61.9,13.6,23.6,27.3,47.2,41,70.8,10.3,17.7,20.6,35.4,30.9,53.1-.5.9-.2,1.4.8,1.5.3.6.6,1.1.9,1.7-.2.8.1,1.3.8,1.6.2.2.4.4.7.6,1,1.3,2.4.8,3.7.8,19.3,0,38.6,0,58,0,1.1,0,2.4.3,3.7-1.1v-5c0-105.3,0-210.6,0-315.9,0-2.1-.2-4.3-.4-6.4Zm-970.9,1.3h-118.4c-20.1,64.8-40.1,129.5-60.2,194.2-.6,0-1.3-.1-1.9-.2-18.9-64.7-37.8-129.5-56.7-193.9h-118.5v326.3h63.8V65c.6,0,1.2-.2,1.9-.3,26.3,87.6,52.6,175.1,79,263h51.7c27-87.6,54-175.3,81-263,.7.1,1.4.2,2.2.3v262.8h76.2V1.3ZM288.2,260.9h106.7c6.7,22.2,13.3,44.5,20,66.9h81.3C462.2,218.8,428.2,110.2,394.1,1.3h-88.3c-34.7,108.7-69.4,217.5-104.2,326.5h66.1c6.8-22.2,13.6-44.4,20.5-67ZM1221.3,1.2v326.5h205.7v-63.8h-129.1V1.2h-76.6Zm-1120.2,0c-1,2.2-.6,4.2-.6,6.2,0,69.2,0,138.3,0,207.5,0,9.6.2,19.3-1.5,28.9-1.7,9.3-6,16.3-14.5,20.6-13.9,6.9-28.6,6.1-43.4,4.6-5.9-.6-11.8-1.4-18-2.2v61.2c1.3,1.3,2.9,1.7,4.6,1.8,11.1,1.1,22,3,33.2,3.6,23.4,1.1,46.4-.2,68.4-9.1,18.6-7.5,31.2-20.9,38.7-39.4,6.4-15.9,8-32.6,8-49.4.2-76.3,0-152.7,0-229,0-1.7.6-3.6-.6-5.2h-74.3Zm930.6,326.5V1.3h-75.3v326.5h75.3ZM1543.8,1.4h-75.3v326.3h75.3V1.4Zm-279.9,428.4c7.9,29,15.8,57.7,23.5,86.1h15.4c5.2-21.1,10.4-41.9,15.6-62.8h1.9c5.7,21,11.4,41.8,17.1,62.8h15.8c7.7-28.8,15.3-57.3,23-86.3-4.9-.2-8.8-.7-12.6.3-5.4,20.7-10.8,41.2-16.1,61.7-.7,0-1.4,0-2.1,0-5.7-20.6-11.4-41.3-17.1-62h-15.1c-4.8,19.4-9.6,38.7-14.3,58.1-.4,1.7-.3,3.7-3.3,3.6-5.4-20.5-10.8-41-16.4-61.9-5.1.2-10-.5-15.4.5Zm479.8-.2c-6.6,18.3-11.3,37.1-18.3,55-.6,0-1.1-.2-1.7-.3-6-18.3-12-36.7-17.8-54.6h-23.4v86.2c3.9.3,7.3.5,11.5-.2v-73.5c.6-.1,1.2-.2,1.8-.3,7.8,24.6,15.7,49.3,23.5,73.8,2.6.6,4.9.7,7.6-.2,7.7-24.1,15.4-48.4,23.1-72.7.6.1,1.3.3,1.9.4v72.5h14.7v-86.2h-23Zm809.6,86.2v-63.3c.3,0,.6,0,1-.1,12.8,21.2,25.7,42.4,38.5,63.6,4.7.3,9.1.4,13.7-.1v-86.2h-11.6v60.5c-.4,0-.8,0-1.2.1-12-20.2-24-40.5-35.8-60.5h-16.3v86.1c3.8.6,7.2.5,11.7,0Zm-646.4-35.5c4.6,12,9.3,23.8,13.9,35.8,5,0,9.6.6,14.9-.5-5.1-12.8-10-25.2-14.9-37.6,1.7-1,3-1.9,4.3-2.5,10-5.2,12.9-15.5,11.6-24.4-1.5-10.5-8.9-18.9-19-20.5-16-2.6-32.2-.7-48.4-1.2v86.6h13.8v-35.6h23.8Zm-1319.6-50.7v86.4c3.8.3,7.3.6,11.7-.3v-63.1c13.3,21.4,26.7,42.2,39.4,63.5,4.6.2,9,.5,13.2-.1v-86.2h-11.1v60.6c-.4,0-.9.2-1.3.2-12-20.3-24-40.7-35.9-60.9h-16Zm-321.2,23.1c.4-.1.8-.3,1.3-.4,12.9,21.3,25.8,42.7,38.5,63.6h13.7v-86.4c-3.7-.1-7.1-.7-11.4.6v60c-.4,0-.9.1-1.3.2-12-20.4-24-40.7-35.8-60.7h-15.9v86.3c3.8,0,7.2.8,11-.6v-62.8Zm-97,63.2h11.4v-63.4c.5,0,1-.2,1.5-.3,12,21.7,25.6,42.5,38.1,63.6h13.5v-86.2c-3.7-.3-7-.5-11.1.2v60.4c-.4,0-.9.2-1.3.3-12-20.3-24-40.7-35.9-60.9h-16.1v86.3Zm-54.7,2.2c11.4.2,20.8-4.1,27.5-13.3,12.1-16.5,12-34.6,6.1-53.2-1.6-4.9-4.2-9.4-7.7-13.2-17.2-18.8-48.5-12-58,12.4-5.7,14.7-5.4,29.5,0,44.2,5.7,15.1,16.9,23.1,32,23.2Zm2045,.1c13-.3,23.6-6.6,30.2-19.5,7.3-14.4,7.4-29.3,3.1-44.5-4.1-14.4-16.3-25.1-28.8-26.3-18.4-1.8-31,8.1-36.8,20.9-7.3,16-6.9,32.3,0,48.3,5.8,13.4,16,20.8,32.3,21.1Zm-1189.4,0c14.6-.2,25.3-6.7,31.8-19.9,5.6-11.4,7-23.3,4.8-35.8-1.5-8.8-4.3-17.1-10.4-23.8-17.7-19.2-48.4-12.7-58.1,12.2-5.8,14.8-5.4,29.6.2,44.3,5.5,14.7,17.1,22.8,31.8,22.9Zm-232.3-64.8c-.7-5.5-2.9-9.6-5.9-13.6-12.1-16.1-40.2-16-52.4,0-13.9,18.2-13.4,45.5-2.1,64.4,9.2,15.5,37.5,20.5,48.7,2.8.5-.8,1.2-1.1,2.6-.9,2.5,2.9,2.6,7.6,5.3,10.7,1.9.4,3.7.8,5.5-.7v-42.6h-32.1c0,3.8-.8,7.2.6,11h17.3c1.3,11.2-6,19.4-13.7,21.4-9.9,2.5-19.5-1.7-23.2-10.7-2.5-5.9-3.3-12.1-3.8-18.4-.8-9.1.1-17.9,4-26.2,4.3-9.1,13.6-13,23.3-10.3,7.8,2.1,11.7,7.6,13.6,15,4.2.3,8-.8,12.2-1.8Zm1713.1,22.1c-.2,5.1,1.5,12.7,4.4,19.9,5.2,12.8,14,21.5,28.3,22.6,16.2,1.3,28.3-5.3,35.5-20.2,7.3-15.2,7.1-30.8,1.5-46.4-9.3-25.7-36.5-29.2-52.8-17.1-12.6,9.4-16.6,23.1-16.9,41.1Zm-898.6,40.6v-86.4c-4.8-.3-9.2-.7-14.2.3v35.6h-35.3v-35.9c-4.9-.5-9.3-.5-13.6,0v86.3h13.8v-37.5h35.1v37.6h14Zm555.6-70.4c-.3-3.4-1.9-5.5-3.7-7.5-11.4-12.6-37.5-14.3-49.7-2.6-13.5,12.8-8.2,34.6,6.6,39.7,8.3,2.8,16.9,4.9,25.3,7.2,4,1.1,7.5,2.8,9.3,6.9,3,7.1-.8,14.7-9.4,16.5-12.4,2.6-24.1,1.9-30.7-11.9-4.3,1-8.4,1.9-13,3,2.2,5.5,4.1,10.2,8.7,13.5,12,8.6,25.4,9.5,39,6.4,13.9-3.2,21.7-13.1,21.7-26.1,0-12.5-6.8-20-21.2-23.8-7.2-1.9-14.4-4-21.5-6.3-4.5-1.4-7.4-4.5-7.5-9.4-.2-5.1,2.5-8.8,7.1-10.3,10.8-3.5,20.1-2.5,26.3,8.4,4.1-1.1,8.2-2.3,12.6-3.5Zm510.2,51.6c2.1,5.5,4.2,10.3,9.1,13.5,12.3,8.1,25.7,9.6,39.6,5.6,14.6-4.2,20.8-13,20.5-27.3-.3-11.7-6.8-18.5-21.5-22.5-6.7-1.8-13.4-3.6-20.1-5.6-4.9-1.5-8.1-4.7-8.5-9.9-.3-5.3,3-9,9-11,10-3.2,17-.7,24.6,9.1,4-1.7,8.7-1.3,12.2-4.1,0-1.5-.4-2.5-1-3.5-8.4-14-33.8-18.4-48.9-8.6-8,5.2-11.5,13.1-10.9,22.2.7,9.7,5.5,17.4,15.5,20.4,8.6,2.6,17.2,4.9,25.8,7.5,5.6,1.7,8.4,5.3,8.6,10.4.2,5-3.2,9.9-8.3,11.8-12.7,4.8-24.3.9-32.9-11.1-4.1.7-8.4,1.5-12.9,3.2Zm-956.1-51.5c.3-3.7-1.8-5.6-3.5-7.5-11.2-12.5-36.2-14.3-48.9-3.3-14.4,12.6-9.4,35.4,6.9,40.6,8.1,2.6,16.3,4.6,24.4,6.9,7,1.9,10.1,5.6,10.2,11.2,0,5.9-3.6,10.3-10.4,12.2-6.3,1.8-12.5,1.1-18.7-.5-6.1-1.6-9.4-5.8-11.5-11.3-4.9.5-9,1.8-13.2,3,2.1,7.4,4.8,11.5,10.7,15,11.8,6.9,24.5,8.1,37.5,4.5,14.9-4.2,20.9-12.6,20.7-27.1-.2-12-6.6-18.8-21.6-22.9-6.9-1.9-13.8-3.7-20.6-5.8-4.7-1.5-7.6-4.9-7.8-9.9-.2-4.9,3-8.7,8.3-10.6,9.7-3.5,17.1-1,25.5,8.8,3.9-1.1,7.9-2.2,12.1-3.4Zm-856.2,36.5c1.5-.2,2.5-.3,3.5-.4,8.3-.3,16.6.8,24.9-.8,12.9-2.5,21.6-12.5,21.7-24.9.1-13.8-7.3-23.2-21.2-26-8.9-1.8-17.9-.5-26.9-.7-5.4-.1-10.9,0-16.4,0v86.5c4.6.5,8.9.4,13.7,0,1.1-11.1,0-22.3.7-33.8Zm-409.2-40.9c.3-4.3.6-7.9-.1-11.3h-54.9v85.9h55.1v-11.8h-40.7v-26h31.9c.2-4.2.6-7.6-.3-11.6h-31.6v-25.2h40.6Zm641.4,40.9c9.5-.7,18.3.1,27.1-.9,12.9-1.6,22.3-11.7,23.2-24,1-15.2-9.6-25.7-22.1-27.2-6.8-.9-13.6-.4-20.5-.5-7.1,0-14.2,0-21.6,0v86.8c4.7-.3,9.1.6,13.8-.6v-33.6Zm752.9,33.9c3.4-6.5,4.3-13.9,7.6-20.6h34.5c2.5,7,4.9,13.8,7.2,20.5h15.5c-9.8-29.1-19.5-57.6-29.2-86.3h-18.6c-9.5,28.7-19,57.3-28.7,86.3h11.6Zm485.8-86.4c-.2,1-.5,1.4-.5,1.9,0,20.7-.2,41.3.2,62,0,5.8,2.1,11.3,6.4,15.8,7.9,8.3,17.9,9.8,28.5,8.7,16.3-1.6,25.2-13.4,25.3-26.3.1-19.6,0-39.3.2-58.9,0-1,0-2-1.1-3-3.2-.5-6.6-.5-9.9,0-1.1,2.1-.7,3.9-.7,5.7,0,18.2,0,36.3,0,54.5,0,7.6-3.1,12.3-9.1,14.5-13.9,5.2-24.7-2.2-24.8-16.9,0-17.5,0-35,0-52.5,0-1.7.6-3.7-.9-5.4h-13.6Zm-1351.5.2h-54.9v86.2h55.2c.3-4.1.7-7.8-.4-12.1h-40.6v-25.9h32.3c.1-4,.8-7.4-.6-11.3h-31.8v-25.5h41.1c.3-4.1.6-7.5-.2-11.3Zm257.1,48.3h32.4c.2-4,.8-7.4-.6-11.4h-31.7v-25.6h40.6c.4-4.2.7-7.7-.1-11.2h-54.4v86.2h54.9c.7-4,.7-7.7,0-11.9h-41v-26.1Zm-1114.2-20.8c-.8-7.8-3.9-14.6-9-20.5-11.3-13.1-40.5-13.5-51.5,8.8-8.3,16.9-8.3,34.3-1.5,51.6,7.9,20.1,25.3,24.7,42.7,18.9,10.5-3.5,20.3-17.1,18.7-26.8-3.8-1.9-8-.8-12.1-2-.6,2.3-1,4.2-1.6,6.1-2.7,7.8-8.4,12.3-15.6,12.6-8.1.3-14.4-3.4-17.2-11.1-5.3-15-5.5-30.3.3-45.2,2.2-5.7,6.7-9.9,13.5-10.4,7.8-.6,13.6,2.4,16.9,9.6,1.5,3.3,2.6,6.8,3.9,10.4,4.1-.4,8.2,0,12.4-1.9Zm391.5,29.6c-.7,2.6-1,4.6-1.7,6.4-2.8,8.2-8.7,12.6-16.6,12.7-8,0-14-4.2-16.7-12.5-4.7-14.3-4.8-28.7.4-42.9,2.3-6.2,6.7-10.7,13.8-11.3,8.1-.7,13.9,2.6,17.2,10,1.4,3.1,2.4,6.5,3.7,9.9,4.2-.3,8.5.2,12.4-2-1.2-8.3-4.3-15.5-8.9-20.4-13.9-14.8-40.2-11.4-50.4,7-10.1,18.3-9.7,37.2-1.3,56,7.7,17.3,24.3,21.7,41,16.4,11-3.5,20.8-17.7,19.2-26.9-3.6-2.2-7.9-.5-12-2.5Zm1950.4-44.8c-.3-4.7.8-8.6-.8-12.4h-61.7c-.3,4.2-.8,8.1.3,12.4h22.5v73.8c5.5.4,10.4.5,15.9,0v-73.8h23.7Zm-956.1-.3h23.2c.3-4.4.5-8.1-.1-12h-62c-.5,4.2-.8,7.9.4,12.2h22.9v74c5.5.2,10.4.6,15.8-.3v-74Zm-936.4,74.2v-74.2h23.5c.3-4.3.5-8.1,0-12h-62c-.6,4.1-.8,7.9.2,12.2h22.4v74h16Zm1450.9-74.1v74.3c5.5-.2,10.4.5,15.9-.5v-73.8h23c.9-4.4,1-8.2,0-12.2h-61.9v12.2h23Zm-813.4,61h-37.3v-73.5c-5.4,0-10.1-.5-14.9.3v86.1h52.3c.5-4.2.4-8.2,0-13Zm1109.8,13.1c.2-4.5.7-8.5-.4-13.1h-37.5v-73.4c-5.2,0-9.9-.5-14.5.3v86.2h52.4Zm155.8,0c5,.2,9.4.5,14-.2v-86.1c-4.8-.4-9.4-.6-14,0v86.3Zm-1017.9,0v-86.4c-4.7-.3-9.1-.6-13.3,0v86.3h13.3Zm-836.9-86.3h-13.6v86.2c4.7.3,9.1.6,13.6-.2v-86Z" fill="#fefdfd" stroke-width="0"/><path d="m1860,0c.1,2.1.4,4.3.4,6.4,0,105.3,0,210.6,0,315.9v5c-1.4,1.4-2.6,1.1-3.7,1.1-19.3,0-38.6,0-58,0-1.3,0-2.7.5-3.7-.8,21.3,0,42.5,0,64.1,0V1.5c-19.3,0-38.3,0-57.2,0,0-.5,0-1,0-1.5,19.3,0,38.7,0,58,0Z" fill="#939497" stroke-width="0"/><path d="m889.1,1.3v326.6h-76.2V65c-.7-.1-1.4-.2-2.2-.3-27,87.7-54,175.4-81,263h-51.7c-26.4-87.8-52.7-175.4-79-263-.6,0-1.2.2-1.9.3v262.7h-63.8V1.4h118.5c18.8,64.4,37.7,129.1,56.7,193.9.6,0,1.3.1,1.9.2,20.1-64.7,40.1-129.4,60.2-194.2h118.4Z" fill="#ea1d24" stroke-width="0"/><path d="m1801.9,1.5c18.9,0,37.9,0,57.2,0v326.1c-21.6,0-42.9,0-64.1,0-.2-.2-.5-.4-.7-.6.2-.8.3-1.5-.8-1.6-.3-.6-.6-1.1-.9-1.7.2-.7-.1-1.2-.8-1.5-10.3-17.7-20.6-35.4-30.9-53.1-13.7-23.6-27.4-47.2-41-70.8-11.9-20.6-23.8-41.3-35.6-61.9-4.6-8-9.2-15.9-13.9-23.9-.8-1.4-1.5-3.1-3.8-3,1.6,72.6.2,145.3.8,218.2h-58.1V1.3h81.5c8.1,14.2,16.2,28.2,24.3,42.2,11.5,20,23.1,40,34.7,60,11.4,19.7,22.8,39.5,34.2,59.3,5.4,9.3,10.8,18.5,16.2,27.7.1,1,.9,1.5,1.8,1.8.9-.4.9-1.1.7-1.9,0-1.6,0-3.2-.1-4.8.3-1.5.4-2.9-.7-4.2,0-49.9-.2-99.8-.2-149.6,0-10.1.2-20.3.3-30.4Z" fill="#ea1d24" stroke-width="0"/><path d="m288.2,260.9c-6.9,22.5-13.7,44.7-20.5,67h-66.1C236.4,218.8,271.2,110,305.8,1.3h88.3c34.1,108.9,68.1,217.5,102.2,326.4h-81.3c-6.7-22.4-13.4-44.6-20-66.9h-106.7Zm54.8-171.8c-.8,0-1.6,0-2.4-.1-11.4,37.1-22.8,74.2-34.3,111.7h71c-11.6-37.6-22.9-74.5-34.3-111.5Z" fill="#ea1d24" stroke-width="0"/><path d="m1221.3,1.2h76.6v262.7h129.1v63.8h-205.7V1.2Z" fill="#ea1d24" stroke-width="0"/><path d="m101,1.3h74.3c1.2,1.6.6,3.5.6,5.2,0,76.3.1,152.7,0,229,0,16.8-1.6,33.5-8,49.4-7.5,18.5-20.2,31.8-38.7,39.4-22,8.9-45,10.2-68.4,9.1-11.2-.5-22.1-2.5-33.2-3.6-1.7-.2-3.3-.5-4.6-1.8v-61.2c6.2.8,12.1,1.6,18,2.2,14.8,1.6,29.5,2.4,43.4-4.6,8.5-4.2,12.9-11.2,14.5-20.6,1.7-9.6,1.5-19.2,1.5-28.9,0-69.2,0-138.3,0-207.5,0-2-.4-4,.6-6.2Z" fill="#ea1d24" stroke-width="0"/><path d="m1031.6,327.8h-75.3V1.3h75.3v326.5Z" fill="#ea1d24" stroke-width="0"/><path d="m1543.8,1.4v326.3h-75.3V1.4h75.3Z" fill="#ea1d24" stroke-width="0"/><path d="m1263.9,429.8c5.4-1,10.2-.3,15.4-.5,5.5,20.9,10.9,41.4,16.4,61.9,2.9,0,2.9-1.9,3.3-3.6,4.7-19.3,9.5-38.6,14.3-58.1h15.1c5.7,20.7,11.4,41.3,17.1,62,.7,0,1.4,0,2.1,0,5.4-20.5,10.7-41,16.1-61.7,3.8-1,7.8-.5,12.6-.3-7.7,29-15.4,57.5-23,86.3h-15.8c-5.7-20.9-11.4-41.8-17.1-62.6h-1.9c-5.2,20.8-10.3,41.7-15.6,62.7h-15.4c-7.8-28.4-15.6-57.1-23.5-86.1Z" fill="#939497" stroke-width="0"/><path d="m1743.6,429.6h23v86.2h-14.7v-72.5c-.6-.1-1.3-.3-1.9-.4-7.7,24.3-15.5,48.6-23.1,72.7-2.7.9-5,.8-7.6.2-7.8-24.5-15.6-49.2-23.5-73.8-.6.1-1.2.2-1.8.3v73.5c-4.2.7-7.7.5-11.5.2v-86.2h23.4c5.8,17.9,11.8,36.2,17.8,54.6.6,0,1.1.2,1.7.3,7-17.9,11.7-36.7,18.3-55Z" fill="#939497" stroke-width="0"/><path d="m2553.3,515.8c-4.5.5-7.9.6-11.7,0v-86.1h16.3c11.8,20,23.8,40.3,35.8,60.5.4,0,.8,0,1.2-.1v-60.5h11.6v86.2c-4.6.6-9,.4-13.7.1-12.8-21.2-25.7-42.4-38.5-63.6-.3,0-.6,0-1,.1v63.3Z" fill="#939497" stroke-width="0"/><path d="m1906.9,480.2h-23.8v35.6h-13.8v-86.6c16.3.5,32.4-1.4,48.4,1.2,10.1,1.6,17.5,10,19,20.5,1.3,8.9-1.6,19.3-11.6,24.4-1.3.7-2.6,1.5-4.3,2.5,4.9,12.4,9.8,24.8,14.9,37.6-5.3,1-9.9.5-14.9.5-4.6-12-9.2-23.8-13.9-35.8Zm-23.7-11.5c10.2-.4,20,1.4,29.6-1.4,5.1-1.5,9-7,9.1-12.4.1-5-3-10.6-7.7-12.2-10.1-3.5-20.6-.9-31-1.7v27.8Z" fill="#939497" stroke-width="0"/><path d="m587.3,429.5h16c11.9,20.2,23.9,40.5,35.9,60.9.4,0,.9-.2,1.3-.2v-60.6h11.1v86.2c-4.2.7-8.6.4-13.2.1-12.8-21.2-26.1-42-39.4-63.5v63.1c-4.4.9-7.8.6-11.7.3v-86.4Z" fill="#939497" stroke-width="0"/><path d="m266.1,452.6v62.8c-3.8,1.3-7.2.7-11,.6v-86.3h15.9c11.8,19.9,23.8,40.3,35.8,60.7.4,0,.9-.1,1.3-.2v-60c4.3-1.3,7.7-.8,11.4-.6v86.4h-13.7c-12.7-20.9-25.6-42.3-38.5-63.6-.4.1-.8.3-1.3.4Z" fill="#939497" stroke-width="0"/><path d="m169.1,515.9v-86.3h16.1c11.9,20.2,23.9,40.5,35.9,60.9.4,0,.9-.2,1.3-.3v-60.4c4.1-.7,7.4-.5,11.1-.2v86.2h-13.5c-12.5-21.1-26.1-41.9-38.1-63.6-.5,0-1,.2-1.5.3v63.4h-11.4Z" fill="#939497" stroke-width="0"/><path d="m114.4,518.1c-15.1,0-26.4-8.1-32-23.2-5.5-14.7-5.7-29.5,0-44.2,9.4-24.5,40.8-31.2,58-12.4,3.5,3.8,6.2,8.3,7.7,13.2,5.9,18.6,6,36.7-6.1,53.2-6.7,9.2-16.1,13.4-27.5,13.3Zm21.6-44.7c-.3-8.5-.7-16.8-4.8-24.7-3.9-7.5-10-10.2-18-9.6-7.4.6-12.7,4.1-15.5,11.2-2.2,5.8-2.8,11.9-3.3,18-.8,9.7,0,19.1,4,28.1,3.4,7.5,9.5,10.6,17.2,10.3,8.2-.3,13.9-4.6,17.1-12.3,2.8-6.8,3.1-13.9,3.3-21Z" fill="#939497" stroke-width="0"/><path d="m2159.4,518.2c-16.3-.3-26.6-7.7-32.3-21.1-6.9-16-7.3-32.3,0-48.3,5.8-12.8,18.4-22.6,36.8-20.9,12.5,1.2,24.8,11.9,28.8,26.3,4.3,15.1,4.2,30.1-3.1,44.5-6.6,12.9-17.2,19.2-30.2,19.5Zm0-79.1c-8,0-14.5,3-17,9.2-6.4,15.9-7,32-.3,48,3.1,7.5,9.4,10.6,17.2,10.5,8.2-.2,14.5-5.2,17.3-12.8,1.7-4.7,2.2-9.6,2.6-14.6.9-10.4.3-20.5-4.1-30.1-3.1-6.7-8.3-10.1-15.7-10.1Z" fill="#939497" stroke-width="0"/><path d="m970,518.1c-14.8-.1-26.3-8.2-31.8-22.9-5.5-14.7-5.9-29.5-.2-44.3,9.7-24.9,40.5-31.4,58.1-12.2,6.2,6.7,8.9,15,10.4,23.8,2.2,12.4.8,24.4-4.8,35.8-6.5,13.2-17.2,19.7-31.8,19.9Zm0-79.1c-6.3,0-12.8,2.5-15.6,9.5-6.4,16-7.3,32.4.1,48.4,6,12.7,23.8,13.3,31.7,1.6,4.3-6.4,5-13.7,5.3-20.9.5-10,0-19.9-4.7-29.1-3.3-6.3-8.5-9.6-16.8-9.4Z" fill="#939497" stroke-width="0"/><path d="m737.7,453.3c-4.2,1-7.9,2.1-12.2,1.8-1.9-7.4-5.9-12.9-13.6-15-9.7-2.6-19,1.2-23.3,10.3-3.9,8.3-4.8,17.1-4,26.2.5,6.3,1.3,12.5,3.8,18.4,3.8,8.9,13.3,13.2,23.2,10.7,7.7-2,15-10.2,13.7-21.4h-17.3c-1.4-3.8-.7-7.2-.6-11h32.1v42.6c-1.9,1.5-3.6,1.1-5.5.7-2.8-3.1-2.8-7.7-5.3-10.7-1.4-.2-2.1.2-2.6.9-11.3,17.7-39.5,12.7-48.7-2.8-11.3-19-11.8-46.3,2.1-64.4,12.2-16,40.3-16,52.4,0,2.9,3.9,5.2,8,5.9,13.6Z" fill="#939497" stroke-width="0"/><path d="m2450.8,475.3c.3-18,4.3-31.6,16.9-41.1,16.3-12.2,43.5-8.6,52.8,17.1,5.6,15.6,5.8,31.2-1.5,46.4-7.1,14.9-19.3,21.5-35.5,20.2-14.3-1.2-23.2-9.8-28.3-22.6-2.9-7.3-4.6-14.9-4.4-19.9Zm36.9-36.3c-7.5,0-13.8,2.8-16.5,9.8-6.3,16.1-7.3,32.6.5,48.6,5.7,11.7,23.2,12.7,30.8,1.9,4.4-6.2,5.2-13.4,5.8-20.8.8-10.2,0-20.1-4.3-29.5-3.2-6.9-8.7-10.1-16.3-10.1Z" fill="#939497" stroke-width="0"/><path d="m1552.2,516h-14v-37.6h-35.1v37.5h-13.8v-86.3c4.3-.5,8.7-.4,13.6,0v35.9h35.3v-35.6c5-1,9.4-.6,14.2-.3v86.4Z" fill="#939497" stroke-width="0"/><path d="m2107.8,445.5c-4.5,1.2-8.6,2.4-12.6,3.5-6.2-10.8-15.6-11.9-26.3-8.4-4.6,1.5-7.3,5.2-7.1,10.3.2,5,3.1,8,7.5,9.4,7.1,2.3,14.3,4.4,21.5,6.3,14.3,3.8,21.1,11.4,21.2,23.8,0,13-7.7,22.9-21.7,26.1-13.7,3.1-27,2.2-39-6.4-4.7-3.3-6.5-8-8.7-13.5,4.6-1.1,8.7-2,13-3,6.6,13.8,18.3,14.5,30.7,11.9,8.5-1.8,12.4-9.4,9.4-16.5-1.7-4.1-5.3-5.8-9.3-6.9-8.5-2.3-17-4.4-25.3-7.2-14.9-5-20.2-26.8-6.6-39.7,12.3-11.6,38.4-9.9,49.7,2.6,1.8,2,3.3,4.1,3.7,7.5Z" fill="#939497" stroke-width="0"/><path d="m2618.1,497.1c4.5-1.7,8.8-2.6,12.9-3.2,8.6,12.1,20.2,15.9,32.9,11.1,5.1-1.9,8.5-6.8,8.3-11.8-.2-5.1-3-8.7-8.6-10.4-8.6-2.6-17.2-4.8-25.8-7.5-10-3.1-14.8-10.7-15.5-20.4-.6-9,2.9-16.9,10.9-22.2,15-9.9,40.4-5.4,48.9,8.6.6,1,1.1,2,1,3.5-3.5,2.8-8.3,2.4-12.2,4.1-7.6-9.8-14.6-12.4-24.6-9.1-6.1,2-9.4,5.8-9,11,.3,5.2,3.6,8.5,8.5,9.9,6.7,2,13.4,3.8,20.1,5.6,14.7,4,21.2,10.8,21.5,22.5.3,14.3-5.8,23.1-20.5,27.3-13.8,4-27.2,2.5-39.6-5.6-4.9-3.2-7-8.1-9.1-13.5Z" fill="#939497" stroke-width="0"/><path d="m1662,445.6c-4.2,1.2-8.2,2.3-12.1,3.4-8.3-9.8-15.7-12.4-25.5-8.8-5.3,1.9-8.5,5.7-8.3,10.6.2,5,3.1,8.4,7.8,9.9,6.8,2.1,13.7,3.9,20.6,5.8,15,4.1,21.4,10.8,21.6,22.9.2,14.5-5.8,22.8-20.7,27.1-13,3.7-25.7,2.5-37.5-4.5-5.9-3.5-8.6-7.6-10.7-15,4.2-1.2,8.3-2.5,13.2-3,2.2,5.5,5.5,9.8,11.5,11.3,6.2,1.6,12.4,2.3,18.7.5,6.8-2,10.5-6.3,10.4-12.2,0-5.6-3.2-9.3-10.2-11.2-8.2-2.2-16.3-4.3-24.4-6.9-16.3-5.2-21.3-28-6.9-40.6,12.7-11,37.7-9.2,48.9,3.3,1.7,1.9,3.8,3.8,3.5,7.5Z" fill="#939497" stroke-width="0"/><path d="m805.8,482.1c-.8,11.5.4,22.6-.7,33.8-4.8.4-9.1.5-13.7,0v-86.5c5.5,0,11-.1,16.4,0,9,.2,18-1,26.9.7,13.8,2.8,21.3,12.2,21.2,26-.1,12.4-8.8,22.4-21.7,24.9-8.2,1.6-16.6.5-24.9.8-1,0-1.9.2-3.5.4Zm-.3-13c6.6,0,12.8,0,19.1,0,3.4,0,6.7-.6,9.6-2.1,5-2.6,6.8-7.2,6.5-12.4-.3-5.3-2-10.4-7.8-12.1-9-2.7-18.2-1.3-27.4-1.2v27.8Z" fill="#939497" stroke-width="0"/><path d="m396.6,441.1h-40.6v25.2h31.6c.9,4,.5,7.4.3,11.6h-31.9v26h40.7v11.8h-55.1v-85.9h54.9c.8,3.4.5,7,.1,11.3Z" fill="#939497" stroke-width="0"/><path d="m1037.9,482v33.6c-4.8,1.2-9.1.3-13.8.6v-86.8c7.3,0,14.5,0,21.6,0,6.8,0,13.6-.3,20.5.5,12.4,1.6,23.1,12,22.1,27.2-.8,12.3-10.2,22.4-23.2,24-8.8,1.1-17.6.2-27.1.9Zm.6-40.9c-1,6.5-.8,24.2.3,28.1,9-.8,18.2,1.6,27.1-1.9,5.1-2,7.9-7.7,7.2-14-.7-6.3-3.9-10.1-9.5-11.3-8.2-1.8-16.5-.6-25.1-.9Z" fill="#939497" stroke-width="0"/><path d="m1790.8,515.9h-11.6c9.7-29.1,19.2-57.7,28.7-86.3h18.6c9.7,28.6,19.3,57.2,29.2,86.3h-15.5c-2.4-6.7-4.8-13.6-7.2-20.5h-34.5c-3.3,6.7-4.2,14.1-7.6,20.6Zm37.8-32.6c-3.3-13.8-7.9-26.5-12.6-39.1-.5,0-1.1,0-1.6.1-4.1,12.8-8.3,25.6-12.6,39h26.8Z" fill="#939497" stroke-width="0"/><path d="m2276.6,429.5h13.6c1.5,1.7.9,3.7.9,5.4,0,17.5,0,35,0,52.5,0,14.7,10.9,22,24.8,16.9,6-2.2,9-6.9,9.1-14.5,0-18.2,0-36.3,0-54.5,0-1.8-.4-3.6.7-5.7,3.3-.4,6.7-.4,9.9,0,1.1,1,1.1,2,1.1,3-.2,19.6,0,39.3-.2,58.9,0,12.9-8.9,24.7-25.3,26.3-10.6,1.1-20.5-.4-28.5-8.7-4.3-4.5-6.3-10-6.4-15.8-.3-20.7-.2-41.3-.2-62s.2-.9.5-1.9Z" fill="#939497" stroke-width="0"/><path d="m925.1,429.6c.8,3.8.5,7.2.2,11.3h-41.1v25.5h31.8c1.4,4,.7,7.4.6,11.3h-32.3v25.9h40.6c1.1,4.3.7,8,.4,12.1h-55.2v-86.2h54.9Z" fill="#939497" stroke-width="0"/><path d="m1182.1,477.9v26.1h41c.7,4.2.8,8,0,11.9h-54.9v-86.2h54.4c.8,3.5.5,7,.1,11.2h-40.6v25.6h31.7c1.4,4,.8,7.4.6,11.4h-32.4Z" fill="#939497" stroke-width="0"/><path d="m68,457.1c-4.2,2-8.4,1.6-12.4,1.9-1.4-3.6-2.4-7.1-3.9-10.4-3.3-7.2-9.1-10.2-16.9-9.6-6.8.5-11.2,4.7-13.5,10.4-5.8,14.9-5.6,30.2-.3,45.2,2.7,7.7,9.1,11.4,17.2,11.1,7.3-.3,13-4.8,15.6-12.6.6-1.9,1-3.8,1.6-6.1,4,1.2,8.3.1,12.1,2,1.7,9.6-8.1,23.3-18.7,26.8-17.4,5.8-34.8,1.2-42.7-18.9-6.8-17.3-6.8-34.7,1.5-51.6,11-22.3,40.2-21.8,51.5-8.8,5.1,5.9,8.2,12.7,9,20.5Z" fill="#939497" stroke-width="0"/><path d="m459.4,486.8c4.1,2,8.4.3,12,2.5,1.6,9.1-8.1,23.4-19.2,26.9-16.7,5.3-33.2.9-41-16.4-8.4-18.8-8.8-37.7,1.3-56,10.2-18.4,36.5-21.8,50.4-7,4.6,4.8,7.7,12.1,8.9,20.4-3.9,2.2-8.2,1.6-12.4,2-1.3-3.4-2.3-6.8-3.7-9.9-3.3-7.4-9.1-10.7-17.2-10-7.1.7-11.6,5.2-13.8,11.3-5.2,14.2-5,28.6-.4,42.9,2.7,8.3,8.7,12.5,16.7,12.5,7.9,0,13.9-4.5,16.6-12.7.6-1.9,1-3.8,1.7-6.4Z" fill="#939497" stroke-width="0"/><path d="m2409.8,442h-23.7v73.8c-5.5.6-10.4.5-15.9,0v-73.8h-22.5c-1.1-4.4-.7-8.2-.3-12.4h61.7c1.5,3.8.4,7.7.8,12.4Z" fill="#939497" stroke-width="0"/><path d="m1453.7,441.7v74c-5.4.9-10.2.5-15.8.3v-74h-22.9c-1.2-4.3-.8-8.1-.4-12.2h62c.7,3.8.4,7.6.1,12h-23.2Z" fill="#939497" stroke-width="0"/><path d="m517.2,515.9h-16v-74h-22.4c-1-4.3-.8-8.1-.2-12.2h62c.6,3.9.4,7.7,0,12h-23.5v74.2Z" fill="#939497" stroke-width="0"/><path d="m1968.2,441.8h-23v-12.2h61.9c1,4,.9,7.8,0,12.2h-23v73.8c-5.5,1-10.4.3-15.9.5v-74.3Z" fill="#939497" stroke-width="0"/><path d="m1154.8,502.8c.5,4.8.5,8.7,0,13h-52.3v-86.1c4.8-.7,9.5-.3,14.9-.3v73.5h37.3Z" fill="#939497" stroke-width="0"/><path d="m2264.6,515.9h-52.4v-86.2c4.6-.8,9.2-.4,14.5-.3v73.4h37.5c1,4.6.6,8.6.4,13.1Z" fill="#939497" stroke-width="0"/><path d="m2420.4,515.9v-86.3c4.7-.6,9.2-.5,14,0v86.1c-4.7.7-9.1.4-14,.2Z" fill="#939497" stroke-width="0"/><path d="m1402.6,516h-13.3v-86.3c4.2-.7,8.6-.4,13.3,0v86.4Z" fill="#939497" stroke-width="0"/><path d="m565.6,429.7v86c-4.5.9-8.9.5-13.6.2v-86.2h13.6Z" fill="#939497" stroke-width="0"/><path d="m1801.8,181.5c1.1,1.2,1.1,2.7.7,4.2-1.8-1.1-1.4-2.6-.7-4.2Z" fill="#939497" stroke-width="0"/><path d="m1802.7,190.5c.2.8.2,1.5-.7,1.9-.9-.3-1.6-.8-1.8-1.8.8,0,1.6,0,2.5,0Z" fill="#939497" stroke-width="0"/><path d="m1793.5,325.3c1.1.1,1,.8.8,1.6-.7-.3-1-.8-.8-1.6Z" fill="#939497" stroke-width="0"/><path d="m1791.8,322.1c.7.3,1,.8.8,1.5-1-.1-1.3-.6-.8-1.5Z" fill="#939497" stroke-width="0"/><path d="m343.1,89.1c11.4,37,22.8,74,34.3,111.5h-71c11.5-37.4,22.9-74.6,34.3-111.7.8,0,1.6,0,2.4.1Z" fill="#fefdfd" stroke-width="0"/><path d="m1883.1,468.7v-27.8c10.4.8,20.9-1.9,31,1.7,4.7,1.6,7.8,7.2,7.7,12.2-.1,5.4-4.1,11-9.1,12.4-9.6,2.8-19.4,1-29.6,1.4Z" fill="#fefdfd" stroke-width="0"/><path d="m136,473.4c-.2,7.2-.5,14.3-3.3,21-3.2,7.7-8.9,12-17.1,12.3-7.7.3-13.8-2.8-17.2-10.3-4.1-9-4.8-18.4-4-28.1.5-6.1,1.1-12.2,3.3-18,2.8-7.2,8.1-10.6,15.5-11.2,8-.6,14.1,2,18,9.6,4,7.8,4.4,16.2,4.8,24.7Z" fill="#fefdfd" stroke-width="0"/><path d="m2159.5,439c7.4,0,12.6,3.4,15.7,10.1,4.4,9.6,5,19.7,4.1,30.1-.4,5-.9,9.9-2.6,14.6-2.8,7.7-9.1,12.6-17.3,12.8-7.8.2-14.1-3-17.2-10.5-6.6-16-6-32.1.3-48,2.5-6.2,9-9.2,17-9.2Z" fill="#fefdfd" stroke-width="0"/><path d="m970,439c8.3-.1,13.5,3.1,16.8,9.4,4.8,9.2,5.2,19.2,4.7,29.1-.4,7.2-1,14.6-5.3,20.9-7.9,11.7-25.7,11-31.7-1.6-7.5-15.9-6.5-32.4-.1-48.4,2.8-7,9.3-9.6,15.6-9.5Z" fill="#fefdfd" stroke-width="0"/><path d="m2487.7,439c7.6,0,13.1,3.2,16.3,10.1,4.3,9.4,5,19.3,4.3,29.5-.6,7.4-1.4,14.5-5.8,20.8-7.6,10.7-25.1,9.8-30.8-1.9-7.8-16-6.8-32.5-.5-48.6,2.7-7,9.1-9.8,16.5-9.8Z" fill="#fefdfd" stroke-width="0"/><path d="m805.4,469.1v-27.8c9.2,0,18.4-1.4,27.4,1.2,5.8,1.7,7.5,6.8,7.8,12.1.3,5.2-1.5,9.9-6.5,12.4-3,1.5-6.3,2.1-9.6,2.1-6.3,0-12.5,0-19.1,0Z" fill="#fefdfd" stroke-width="0"/><path d="m1038.5,441c8.5.3,16.8-.9,25.1.9,5.6,1.2,8.8,5,9.5,11.3.7,6.3-2.1,12-7.2,14-8.9,3.4-18.1,1.1-27.1,1.9-1.1-4-1.3-21.7-.3-28.1Z" fill="#fefdfd" stroke-width="0"/><path d="m1828.7,483.3h-26.8c4.3-13.4,8.5-26.2,12.6-39,.5,0,1.1,0,1.6-.1,4.7,12.7,9.3,25.3,12.6,39.1Z" fill="#fefdfd" stroke-width="0"/></svg>